  0
SECTION
  2
HEADER
  9
$EXTMIN
 10
34.0
 20
22.0
  9
$EXTMAX
 10
980.0
 20
680.0
  9
$LIMMIN
 10
23.0
 20
255.0
  9
$LIMMAX
 10
840.0
 20
684.0
  9
$LTSCALE
 40
200.0
  0
ENDSEC
  0
SECTION
  2
TABLES
  0
TABLE
  2
LTYPE
 70
     7
  0
LTYPE
  2
CONTINUOUS
 70
    64
  3
Solid line
 72
    65
 73
     0
 40
0.0
  0
LTYPE
  2
DASHED
 70
    64
  3
__ __ __ __ __ __ __ __ __ __ __ __ __ __ __
 72
    65
 73
     2
 40
0.75
 49
0.5
 49
-0.25
  0
LTYPE
  2
HIDDEN
 70
    64
  3
_ _ _ _ _ _ _ _ _ _ _ _ _ _ _ _ _ _ _ _ _ _ _
 72
    65
 73
     2
 40
0.375
 49
0.25
 49
-0.125
  0
LTYPE
  2
DOT
 70
    64
  3
...............................................
 72
    65
 73
     2
 40
0.25
 49
0.0
 49
-0.25
  0
LTYPE
  2
BORDER
 70
    64
  3
__ __ . __ __ . __ __ . __ __ . __ __ . __ __
 72
    65
 73
     6
 40
1.75
 49
0.5
 49
-0.25
 49
0.5
 49
-0.25
 49
0.0
 49
-0.25
  0
LTYPE
  2
CENTER
 70
    64
  3
____ _ ____ _ ____ _ ____ _ ____ _ ____ _ ____
 72
    65
 73
     4
 40
2.0
 49
1.25
 49
-0.25
 49
0.25
 49
-0.25
  0
LTYPE
  2
DIVIDE
 70
    64
  3
__ . . __ . . __ . . __ . . __ . . __ . . __
 72
    65
 73
     6
 40
1.25
 49
0.5
 49
-0.25
 49
0.0
 49
-0.25
 49
0.0
 49
-0.25
  0
ENDTAB
  0
TABLE
  2
LAYER
 70
    6
  0
LAYER
  2
0
 70
     0
 62
     7
  6
CONTINUOUS
  0
LAYER
  2
BORDER
 70
     0
 62
     7
  6
CONTINUOUS
  0
LAYER
  2
FS_OBJECT
 70
     0
 62
     7
  6
CONTINUOUS
  0
LAYER
  2
ICON
 70
     0
 62
     7
  6
CONTINUOUS
  0
LAYER
  2
PFD_OBJECT
 70
     0
 62
     7
  6
CONTINUOUS
  0
LAYER
  2
XY_PLOT
 70
     0
 62
     7
  6
CONTINUOUS
  0
ENDTAB
  0
TABLE
  2
STYLE
 70
     1
  0
STYLE
  2
STANDARD
 70
     0
 40
0.0
 41
1.0
 50
0.0
 71
     0
 42
0.2
  3
MONOTXT
  4

  0
ENDTAB
  0
TABLE
  2
VIEW
 70
     0
  0
ENDTAB
  0
ENDSEC
  0
SECTION
  2
BLOCKS
  0
ENDSEC
  0
SECTION
  2
ENTITIES
  0
TEXT
  8
FS_OBJECT
 62
     7
 10
196.60
 20
448.25
 40
6.50
  1
2. Benzene Oxidation
 41
1.19
  0
TEXT
  8
FS_OBJECT
 62
     7
 10
197.60
 20
429.25
 40
6.50
  1
Benzene --> 0.3 BioMass + 0.3 CO2 + 0.4 Water
 41
1.21
  0
TEXT
  8
FS_OBJECT
 62
     7
 10
544.60
 20
428.25
 40
6.50
  1
Rate = K * [Bz] * [Biomass] / ( 13.68 + [Bz] )
 41
1.21
  0
TEXT
  8
FS_OBJECT
 62
     7
 10
197.60
 20
402.25
 40
6.50
  1
3. Biomass Decay
 41
1.18
  0
TEXT
  8
FS_OBJECT
 62
     7
 10
197.60
 20
380.25
 40
6.50
  1
BioMass --> DeadBioMass
 41
1.20
  0
TEXT
  8
FS_OBJECT
 62
     7
 10
545.60
 20
385.25
 40
6.50
  1
Rate = K * [Biomass]
 41
1.19
  0
TEXT
  8
FS_OBJECT
 62
     7
 10
614.20
 20
329.75
 40
5.50
  1
Stream No.          
 41
1.23
  0
TEXT
  8
FS_OBJECT
 62
     7
 10
766.20
 20
329.75
 40
5.50
  1
            1 
 41
1.22
  0
TEXT
  8
FS_OBJECT
 62
     7
 10
614.20
 20
310.75
 40
5.50
  1
       Name         
 41
1.23
  0
TEXT
  8
FS_OBJECT
 62
     7
 10
766.20
 20
310.75
 40
5.50
  1
              
 41
1.22
  0
TEXT
  8
FS_OBJECT
 62
     7
 10
614.20
 20
292.75
 40
5.50
  1
- - Overall - -
 41
1.22
  0
TEXT
  8
FS_OBJECT
 62
     7
 10
765.40
 20
292.75
 40
5.50
  1
 
 41
0.76
  0
TEXT
  8
FS_OBJECT
 62
     7
 10
614.20
 20
274.75
 40
5.50
  1
Molar flow kmol/h   
 41
1.23
  0
TEXT
  8
FS_OBJECT
 62
     7
 10
766.20
 20
274.75
 40
5.50
  1
   15638.5234 
 41
1.22
  0
TEXT
  8
FS_OBJECT
 62
     7
 10
614.20
 20
256.75
 40
5.50
  1
Mass flow  kg/h     
 41
1.23
  0
TEXT
  8
FS_OBJECT
 62
     7
 10
766.20
 20
256.75
 40
5.50
  1
  282732.2500 
 41
1.22
  0
TEXT
  8
FS_OBJECT
 62
     7
 10
614.20
 20
237.75
 40
5.50
  1
Temp C              
 41
1.23
  0
TEXT
  8
FS_OBJECT
 62
     7
 10
766.20
 20
237.75
 40
5.50
  1
      25.0000 
 41
1.22
  0
TEXT
  8
FS_OBJECT
 62
     7
 10
614.20
 20
219.75
 40
5.50
  1
Pres bar            
 41
1.23
  0
TEXT
  8
FS_OBJECT
 62
     7
 10
766.20
 20
219.75
 40
5.50
  1
       1.0000 
 41
1.22
  0
TEXT
  8
FS_OBJECT
 62
     7
 10
614.20
 20
201.75
 40
5.50
  1
Actual vol liter/h  
 41
1.23
  0
TEXT
  8
FS_OBJECT
 62
     7
 10
766.20
 20
201.75
 40
5.50
  1
  282997.0000 
 41
1.22
  0
TEXT
  8
FS_OBJECT
 62
     7
 10
614.20
 20
183.75
 40
5.50
  1
Flow rates in kg/h
 41
1.23
  0
TEXT
  8
FS_OBJECT
 62
     7
 10
765.40
 20
183.75
 40
5.50
  1
 
 41
0.76
  0
TEXT
  8
FS_OBJECT
 62
     7
 10
614.20
 20
164.75
 40
5.50
  1
Benzene           
 41
1.23
  0
TEXT
  8
FS_OBJECT
 62
     7
 10
766.20
 20
164.75
 40
5.50
  1
     100.0000 
 41
1.22
  0
TEXT
  8
FS_OBJECT
 62
     7
 10
614.20
 20
146.75
 40
5.50
  1
BioMass           
 41
1.23
  0
TEXT
  8
FS_OBJECT
 62
     7
 10
766.20
 20
146.75
 40
5.50
  1
     696.0000 
 41
1.22
  0
TEXT
  8
FS_OBJECT
 62
     7
 10
614.20
 20
128.75
 40
5.50
  1
Carbon Dioxide    
 41
1.23
  0
TEXT
  8
FS_OBJECT
 62
     7
 10
766.20
 20
128.75
 40
5.50
  1
       0.0000 
 41
1.22
  0
TEXT
  8
FS_OBJECT
 62
     7
 10
614.20
 20
110.75
 40
5.50
  1
DeadBioMass       
 41
1.23
  0
TEXT
  8
FS_OBJECT
 62
     7
 10
766.20
 20
110.75
 40
5.50
  1
     126.2700 
 41
1.22
  0
TEXT
  8
FS_OBJECT
 62
     7
 10
614.20
 20
91.75
 40
5.50
  1
Alpha-D-Glucose   
 41
1.23
  0
TEXT
  8
FS_OBJECT
 62
     7
 10
766.20
 20
91.75
 40
5.50
  1
     785.0000 
 41
1.22
  0
TEXT
  8
FS_OBJECT
 62
     7
 10
614.20
 20
73.75
 40
5.50
  1
Water             
 41
1.23
  0
TEXT
  8
FS_OBJECT
 62
     7
 10
766.20
 20
73.75
 40
5.50
  1
  281025.0000 
 41
1.22
  0
LINE
  8
FS_OBJECT
  6
CONTINUOUS
 62
   252
 10
604.0
 20
340.0
 11
978.0
 21
340.0
  0
LINE
  8
FS_OBJECT
  6
CONTINUOUS
 62
   252
 10
978.0
 20
340.0
 11
978.0
 21
67.0
  0
LINE
  8
FS_OBJECT
  6
CONTINUOUS
 62
   252
 10
978.0
 20
67.0
 11
604.0
 21
67.0
  0
LINE
  8
FS_OBJECT
  6
CONTINUOUS
 62
   252
 10
604.0
 20
67.0
 11
604.0
 21
340.0
  0
LINE
  8
FS_OBJECT
  6
CONTINUOUS
 62
   252
 10
604.0
 20
322.0
 11
978.0
 21
322.0
  0
LINE
  8
FS_OBJECT
  6
CONTINUOUS
 62
   252
 10
604.0
 20
304.0
 11
978.0
 21
304.0
  0
LINE
  8
FS_OBJECT
  6
CONTINUOUS
 62
   252
 10
604.0
 20
286.0
 11
978.0
 21
286.0
  0
LINE
  8
FS_OBJECT
  6
CONTINUOUS
 62
   252
 10
604.0
 20
267.0
 11
978.0
 21
267.0
  0
LINE
  8
FS_OBJECT
  6
CONTINUOUS
 62
   252
 10
604.0
 20
249.0
 11
978.0
 21
249.0
  0
LINE
  8
FS_OBJECT
  6
CONTINUOUS
 62
   252
 10
604.0
 20
231.0
 11
978.0
 21
231.0
  0
LINE
  8
FS_OBJECT
  6
CONTINUOUS
 62
   252
 10
604.0
 20
213.0
 11
978.0
 21
213.0
  0
LINE
  8
FS_OBJECT
  6
CONTINUOUS
 62
   252
 10
604.0
 20
194.0
 11
978.0
 21
194.0
  0
LINE
  8
FS_OBJECT
  6
CONTINUOUS
 62
   252
 10
604.0
 20
176.0
 11
978.0
 21
176.0
  0
LINE
  8
FS_OBJECT
  6
CONTINUOUS
 62
   252
 10
604.0
 20
158.0
 11
978.0
 21
158.0
  0
LINE
  8
FS_OBJECT
  6
CONTINUOUS
 62
   252
 10
604.0
 20
140.0
 11
978.0
 21
140.0
  0
LINE
  8
FS_OBJECT
  6
CONTINUOUS
 62
   252
 10
604.0
 20
121.0
 11
978.0
 21
121.0
  0
LINE
  8
FS_OBJECT
  6
CONTINUOUS
 62
   252
 10
604.0
 20
103.0
 11
978.0
 21
103.0
  0
LINE
  8
FS_OBJECT
  6
CONTINUOUS
 62
   252
 10
604.0
 20
85.0
 11
978.0
 21
85.0
  0
ARC
  8
FS_OBJECT
 62
     7
 10
424.00
 20
139.0
 40
13.00
 50
0.0
 51
53.13
  0
ARC
  8
FS_OBJECT
 62
     7
 10
385.0
 20
87.0
 40
78.00
 50
53.13
 51
90.0
  0
ARC
  8
FS_OBJECT
 62
     7
 10
385.0
 20
87.0
 40
78.00
 50
90.0
 51
126.87
  0
ARC
  8
FS_OBJECT
 62
     7
 10
346.00
 20
139.0
 40
13.00
 50
126.87
 51
180.0
  0
ARC
  8
FS_OBJECT
 62
     7
 10
346.00
 20
139.0
 40
13.00
 50
180.0
 51
233.13
  0
ARC
  8
FS_OBJECT
 62
     7
 10
385.0
 20
191.0
 40
78.00
 50
233.13
 51
270.0
  0
ARC
  8
FS_OBJECT
 62
     7
 10
385.0
 20
191.0
 40
78.00
 50
270.0
 51
306.87
  0
ARC
  8
FS_OBJECT
 62
     7
 10
424.00
 20
139.0
 40
13.00
 50
306.87
 51
0.0
  0
LINE
  8
FS_OBJECT
  6
CONTINUOUS
 62
     7
 10
334.0
 20
140.0
 11
438.0
 21
140.0
  0
LINE
  8
FS_OBJECT
  6
CONTINUOUS
 62
     7
 10
438.0
 20
140.0
 11
438.0
 21
283.0
  0
LINE
  8
FS_OBJECT
  6
CONTINUOUS
 62
     7
 10
438.0
 20
283.0
 11
383.0
 21
283.0
  0
LINE
  8
FS_OBJECT
  6
CONTINUOUS
 62
     7
 10
383.0
 20
283.0
 11
334.0
 21
283.0
  0
LINE
  8
FS_OBJECT
  6
CONTINUOUS
 62
     7
 10
334.0
 20
283.0
 11
334.0
 21
140.0
  0
LINE
  8
FS_OBJECT
  6
CONTINUOUS
 62
     7
 10
359.0
 20
153.0
 11
356.0
 21
153.0
  0
LINE
  8
FS_OBJECT
  6
CONTINUOUS
 62
     7
 10
356.0
 20
153.0
 11
354.0
 21
154.0
  0
LINE
  8
FS_OBJECT
  6
CONTINUOUS
 62
     7
 10
354.0
 20
154.0
 11
352.0
 21
156.0
  0
LINE
  8
FS_OBJECT
  6
CONTINUOUS
 62
     7
 10
352.0
 20
156.0
 11
351.0
 21
158.0
  0
LINE
  8
FS_OBJECT
  6
CONTINUOUS
 62
     7
 10
351.0
 20
158.0
 11
350.0
 21
160.0
  0
LINE
  8
FS_OBJECT
  6
CONTINUOUS
 62
     7
 10
350.0
 20
160.0
 11
350.0
 21
162.0
  0
LINE
  8
FS_OBJECT
  6
CONTINUOUS
 62
     7
 10
350.0
 20
162.0
 11
350.0
 21
165.0
  0
LINE
  8
FS_OBJECT
  6
CONTINUOUS
 62
     7
 10
350.0
 20
165.0
 11
351.0
 21
167.0
  0
LINE
  8
FS_OBJECT
  6
CONTINUOUS
 62
     7
 10
351.0
 20
167.0
 11
352.0
 21
169.0
  0
LINE
  8
FS_OBJECT
  6
CONTINUOUS
 62
     7
 10
352.0
 20
169.0
 11
354.0
 21
170.0
  0
LINE
  8
FS_OBJECT
  6
CONTINUOUS
 62
     7
 10
354.0
 20
170.0
 11
356.0
 21
171.0
  0
LINE
  8
FS_OBJECT
  6
CONTINUOUS
 62
     7
 10
356.0
 20
171.0
 11
358.0
 21
172.0
  0
LINE
  8
FS_OBJECT
  6
CONTINUOUS
 62
     7
 10
358.0
 20
172.0
 11
359.0
 21
172.0
  0
LINE
  8
FS_OBJECT
  6
CONTINUOUS
 62
     7
 10
359.0
 20
172.0
 11
412.0
 21
153.0
  0
LINE
  8
FS_OBJECT
  6
CONTINUOUS
 62
     7
 10
412.0
 20
153.0
 11
414.0
 21
153.0
  0
LINE
  8
FS_OBJECT
  6
CONTINUOUS
 62
     7
 10
414.0
 20
153.0
 11
416.0
 21
154.0
  0
LINE
  8
FS_OBJECT
  6
CONTINUOUS
 62
     7
 10
416.0
 20
154.0
 11
418.0
 21
155.0
  0
LINE
  8
FS_OBJECT
  6
CONTINUOUS
 62
     7
 10
418.0
 20
155.0
 11
419.0
 21
156.0
  0
LINE
  8
FS_OBJECT
  6
CONTINUOUS
 62
     7
 10
419.0
 20
156.0
 11
420.0
 21
157.0
  0
LINE
  8
FS_OBJECT
  6
CONTINUOUS
 62
     7
 10
420.0
 20
157.0
 11
421.0
 21
159.0
  0
LINE
  8
FS_OBJECT
  6
CONTINUOUS
 62
     7
 10
421.0
 20
159.0
 11
422.0
 21
161.0
  0
LINE
  8
FS_OBJECT
  6
CONTINUOUS
 62
     7
 10
422.0
 20
161.0
 11
422.0
 21
162.0
  0
LINE
  8
FS_OBJECT
  6
CONTINUOUS
 62
     7
 10
422.0
 20
162.0
 11
422.0
 21
164.0
  0
LINE
  8
FS_OBJECT
  6
CONTINUOUS
 62
     7
 10
422.0
 20
164.0
 11
421.0
 21
166.0
  0
LINE
  8
FS_OBJECT
  6
CONTINUOUS
 62
     7
 10
421.0
 20
166.0
 11
420.0
 21
168.0
  0
LINE
  8
FS_OBJECT
  6
CONTINUOUS
 62
     7
 10
420.0
 20
168.0
 11
419.0
 21
169.0
  0
LINE
  8
FS_OBJECT
  6
CONTINUOUS
 62
     7
 10
419.0
 20
169.0
 11
418.0
 21
171.0
  0
LINE
  8
FS_OBJECT
  6
CONTINUOUS
 62
     7
 10
418.0
 20
171.0
 11
416.0
 21
171.0
  0
LINE
  8
FS_OBJECT
  6
CONTINUOUS
 62
     7
 10
416.0
 20
171.0
 11
414.0
 21
172.0
  0
LINE
  8
FS_OBJECT
  6
CONTINUOUS
 62
     7
 10
414.0
 20
172.0
 11
412.0
 21
172.0
  0
LINE
  8
FS_OBJECT
  6
CONTINUOUS
 62
     7
 10
412.0
 20
172.0
 11
359.0
 21
153.0
  0
LINE
  8
FS_OBJECT
  6
CONTINUOUS
 62
     7
 10
386.0
 20
161.0
 11
386.0
 21
164.0
  0
CIRCLE
  8
FS_OBJECT
 62
     7
 10
317.0
 20
295.0
 40
13.0
  0
TEXT
  8
FS_OBJECT
 62
     7
 10
315.60
 20
293.25
 40
6.50
  1
1
 41
0.74
  0
LINE
  8
FS_OBJECT
  6
CONTINUOUS
 62
     7
 10
189.0
 20
276.0
 11
197.0
 21
276.0
  0
LINE
  8
FS_OBJECT
  6
CONTINUOUS
 62
     7
 10
122.0
 20
283.0
 11
170.0
 21
283.0
  0
LINE
  8
FS_OBJECT
  6
CONTINUOUS
 62
     7
 10
170.0
 20
283.0
 11
170.0
 21
289.0
  0
LINE
  8
FS_OBJECT
  6
CONTINUOUS
 62
     7
 10
170.0
 20
289.0
 11
189.0
 21
276.0
  0
LINE
  8
FS_OBJECT
  6
CONTINUOUS
 62
     7
 10
189.0
 20
276.0
 11
170.0
 21
264.0
  0
LINE
  8
FS_OBJECT
  6
CONTINUOUS
 62
     7
 10
170.0
 20
264.0
 11
170.0
 21
270.0
  0
LINE
  8
FS_OBJECT
  6
CONTINUOUS
 62
     7
 10
170.0
 20
270.0
 11
122.0
 21
270.0
  0
LINE
  8
FS_OBJECT
  6
CONTINUOUS
 62
     7
 10
122.0
 20
270.0
 11
122.0
 21
283.0
  0
LINE
  8
FS_OBJECT
  6
CONTINUOUS
 62
     7
 10
333.0
 20
276.0
 11
321.0
 21
273.0
  0
LINE
  8
FS_OBJECT
  6
CONTINUOUS
 62
     7
 10
321.0
 20
273.0
 11
321.0
 21
279.0
  0
LINE
  8
FS_OBJECT
  6
CONTINUOUS
 62
     7
 10
321.0
 20
279.0
 11
333.0
 21
276.0
  0
LINE
  8
FS_OBJECT
  6
CONTINUOUS
 62
     7
 10
189.0
 20
276.0
 11
271.0
 21
276.0
  0
LINE
  8
FS_OBJECT
  6
CONTINUOUS
 62
     7
 10
271.0
 20
276.0
 11
271.0
 21
276.0
  0
LINE
  8
FS_OBJECT
  6
CONTINUOUS
 62
     7
 10
271.0
 20
276.0
 11
334.0
 21
276.0
  0
LINE
  8
FS_OBJECT
  6
CONTINUOUS
 62
     7
 10
218.0
 20
285.0
 11
239.0
 21
285.0
  0
LINE
  8
FS_OBJECT
  6
CONTINUOUS
 62
     7
 10
239.0
 20
285.0
 11
239.0
 21
262.0
  0
LINE
  8
FS_OBJECT
  6
CONTINUOUS
 62
     7
 10
239.0
 20
262.0
 11
218.0
 21
262.0
  0
LINE
  8
FS_OBJECT
  6
CONTINUOUS
 62
     7
 10
218.0
 20
262.0
 11
218.0
 21
285.0
  0
TEXT
  8
FS_OBJECT
 62
     7
 10
227.60
 20
272.25
 40
6.50
  1
1
 41
0.74
  0
LINE
  8
FS_OBJECT
  6
CONTINUOUS
 62
     7
 10
551.0
 20
36.0
 11
559.0
 21
36.0
  0
LINE
  8
FS_OBJECT
  6
CONTINUOUS
 62
     7
 10
559.0
 20
42.0
 11
606.0
 21
42.0
  0
LINE
  8
FS_OBJECT
  6
CONTINUOUS
 62
     7
 10
606.0
 20
42.0
 11
606.0
 21
49.0
  0
LINE
  8
FS_OBJECT
  6
CONTINUOUS
 62
     7
 10
606.0
 20
49.0
 11
625.0
 21
36.0
  0
LINE
  8
FS_OBJECT
  6
CONTINUOUS
 62
     7
 10
625.0
 20
36.0
 11
606.0
 21
23.0
  0
LINE
  8
FS_OBJECT
  6
CONTINUOUS
 62
     7
 10
606.0
 20
23.0
 11
606.0
 21
30.0
  0
LINE
  8
FS_OBJECT
  6
CONTINUOUS
 62
     7
 10
606.0
 20
30.0
 11
559.0
 21
30.0
  0
LINE
  8
FS_OBJECT
  6
CONTINUOUS
 62
     7
 10
559.0
 20
30.0
 11
559.0
 21
42.0
  0
LINE
  8
FS_OBJECT
  6
CONTINUOUS
 62
     7
 10
558.0
 20
36.0
 11
546.0
 21
33.0
  0
LINE
  8
FS_OBJECT
  6
CONTINUOUS
 62
     7
 10
546.0
 20
33.0
 11
546.0
 21
39.0
  0
LINE
  8
FS_OBJECT
  6
CONTINUOUS
 62
     7
 10
546.0
 20
39.0
 11
558.0
 21
36.0
  0
LINE
  8
FS_OBJECT
  6
CONTINUOUS
 62
     7
 10
386.0
 20
115.0
 11
386.0
 21
36.0
  0
LINE
  8
FS_OBJECT
  6
CONTINUOUS
 62
     7
 10
386.0
 20
36.0
 11
559.0
 21
36.0
  0
LINE
  8
FS_OBJECT
  6
CONTINUOUS
 62
     7
 10
376.0
 20
84.0
 11
398.0
 21
84.0
  0
LINE
  8
FS_OBJECT
  6
CONTINUOUS
 62
     7
 10
398.0
 20
84.0
 11
398.0
 21
61.0
  0
LINE
  8
FS_OBJECT
  6
CONTINUOUS
 62
     7
 10
398.0
 20
61.0
 11
376.0
 21
61.0
  0
LINE
  8
FS_OBJECT
  6
CONTINUOUS
 62
     7
 10
376.0
 20
61.0
 11
376.0
 21
84.0
  0
TEXT
  8
FS_OBJECT
 62
     7
 10
385.60
 20
71.25
 40
6.50
  1
2
 41
0.74
  0
ENDSEC
  0
EOF
