  0
SECTION
  2
HEADER
  9
$EXTMIN
 10
7020.0
 20
5573.0
  9
$EXTMAX
 10
8012.0
 20
6376.0
  9
$LIMMIN
 10
6885.0
 20
5568.0
  9
$LIMMAX
 10
7844.0
 20
6112.0
  9
$LTSCALE
 40
200.0
  0
ENDSEC
  0
SECTION
  2
TABLES
  0
TABLE
  2
LTYPE
 70
     7
  0
LTYPE
  2
CONTINUOUS
 70
    64
  3
Solid line
 72
    65
 73
     0
 40
0.0
  0
LTYPE
  2
DASHED
 70
    64
  3
__ __ __ __ __ __ __ __ __ __ __ __ __ __ __
 72
    65
 73
     2
 40
0.75
 49
0.5
 49
-0.25
  0
LTYPE
  2
HIDDEN
 70
    64
  3
_ _ _ _ _ _ _ _ _ _ _ _ _ _ _ _ _ _ _ _ _ _ _
 72
    65
 73
     2
 40
0.375
 49
0.25
 49
-0.125
  0
LTYPE
  2
DOT
 70
    64
  3
...............................................
 72
    65
 73
     2
 40
0.25
 49
0.0
 49
-0.25
  0
LTYPE
  2
BORDER
 70
    64
  3
__ __ . __ __ . __ __ . __ __ . __ __ . __ __
 72
    65
 73
     6
 40
1.75
 49
0.5
 49
-0.25
 49
0.5
 49
-0.25
 49
0.0
 49
-0.25
  0
LTYPE
  2
CENTER
 70
    64
  3
____ _ ____ _ ____ _ ____ _ ____ _ ____ _ ____
 72
    65
 73
     4
 40
2.0
 49
1.25
 49
-0.25
 49
0.25
 49
-0.25
  0
LTYPE
  2
DIVIDE
 70
    64
  3
__ . . __ . . __ . . __ . . __ . . __ . . __
 72
    65
 73
     6
 40
1.25
 49
0.5
 49
-0.25
 49
0.0
 49
-0.25
 49
0.0
 49
-0.25
  0
ENDTAB
  0
TABLE
  2
LAYER
 70
    6
  0
LAYER
  2
0
 70
     0
 62
     7
  6
CONTINUOUS
  0
LAYER
  2
BORDER
 70
     0
 62
     7
  6
CONTINUOUS
  0
LAYER
  2
FS_OBJECT
 70
     0
 62
     7
  6
CONTINUOUS
  0
LAYER
  2
ICON
 70
     0
 62
     7
  6
CONTINUOUS
  0
LAYER
  2
PFD_OBJECT
 70
     0
 62
     7
  6
CONTINUOUS
  0
LAYER
  2
XY_PLOT
 70
     0
 62
     7
  6
CONTINUOUS
  0
ENDTAB
  0
TABLE
  2
STYLE
 70
     1
  0
STYLE
  2
STANDARD
 70
     0
 40
0.0
 41
1.0
 50
0.0
 71
     0
 42
0.2
  3
MONOTXT
  4

  0
ENDTAB
  0
TABLE
  2
VIEW
 70
     0
  0
ENDTAB
  0
ENDSEC
  0
SECTION
  2
BLOCKS
  0
ENDSEC
  0
SECTION
  2
ENTITIES
  0
LINE
  8
FS_OBJECT
  6
CONTINUOUS
 62
     7
 10
7537.0
 20
6162.0
 11
7529.0
 21
6162.0
  0
LINE
  8
FS_OBJECT
  6
CONTINUOUS
 62
     7
 10
7604.0
 20
6156.0
 11
7557.0
 21
6156.0
  0
LINE
  8
FS_OBJECT
  6
CONTINUOUS
 62
     7
 10
7557.0
 20
6156.0
 11
7557.0
 21
6150.0
  0
LINE
  8
FS_OBJECT
  6
CONTINUOUS
 62
     7
 10
7557.0
 20
6150.0
 11
7538.0
 21
6163.0
  0
LINE
  8
FS_OBJECT
  6
CONTINUOUS
 62
     7
 10
7538.0
 20
6163.0
 11
7557.0
 21
6175.0
  0
LINE
  8
FS_OBJECT
  6
CONTINUOUS
 62
     7
 10
7557.0
 20
6175.0
 11
7557.0
 21
6169.0
  0
LINE
  8
FS_OBJECT
  6
CONTINUOUS
 62
     7
 10
7557.0
 20
6169.0
 11
7604.0
 21
6169.0
  0
LINE
  8
FS_OBJECT
  6
CONTINUOUS
 62
     7
 10
7604.0
 20
6169.0
 11
7604.0
 21
6156.0
  0
LINE
  8
FS_OBJECT
  6
CONTINUOUS
 62
     7
 10
7210.0
 20
6013.0
 11
7218.0
 21
6013.0
  0
LINE
  8
FS_OBJECT
  6
CONTINUOUS
 62
     7
 10
7143.0
 20
6020.0
 11
7191.0
 21
6020.0
  0
LINE
  8
FS_OBJECT
  6
CONTINUOUS
 62
     7
 10
7191.0
 20
6020.0
 11
7191.0
 21
6026.0
  0
LINE
  8
FS_OBJECT
  6
CONTINUOUS
 62
     7
 10
7191.0
 20
6026.0
 11
7210.0
 21
6013.0
  0
LINE
  8
FS_OBJECT
  6
CONTINUOUS
 62
     7
 10
7210.0
 20
6013.0
 11
7191.0
 21
6001.0
  0
LINE
  8
FS_OBJECT
  6
CONTINUOUS
 62
     7
 10
7191.0
 20
6001.0
 11
7191.0
 21
6007.0
  0
LINE
  8
FS_OBJECT
  6
CONTINUOUS
 62
     7
 10
7191.0
 20
6007.0
 11
7143.0
 21
6007.0
  0
LINE
  8
FS_OBJECT
  6
CONTINUOUS
 62
     7
 10
7143.0
 20
6007.0
 11
7143.0
 21
6020.0
  0
LINE
  8
FS_OBJECT
  6
CONTINUOUS
 62
     7
 10
7262.0
 20
5646.0
 11
7247.0
 21
5643.0
  0
LINE
  8
FS_OBJECT
  6
CONTINUOUS
 62
     7
 10
7247.0
 20
5643.0
 11
7247.0
 21
5649.0
  0
LINE
  8
FS_OBJECT
  6
CONTINUOUS
 62
     7
 10
7247.0
 20
5649.0
 11
7262.0
 21
5646.0
  0
LINE
  8
FS_OBJECT
  6
CONTINUOUS
 62
     7
 10
7308.0
 20
5977.0
 11
7341.0
 21
5977.0
  0
LINE
  8
FS_OBJECT
  6
CONTINUOUS
 62
     7
 10
7341.0
 20
5977.0
 11
7330.0
 21
5993.0
  0
LINE
  8
FS_OBJECT
  6
CONTINUOUS
 62
     7
 10
7330.0
 20
5993.0
 11
7291.0
 21
5993.0
  0
LINE
  8
FS_OBJECT
  6
CONTINUOUS
 62
     7
 10
7291.0
 20
5993.0
 11
7280.0
 21
5977.0
  0
LINE
  8
FS_OBJECT
  6
CONTINUOUS
 62
     7
 10
7280.0
 20
5977.0
 11
7308.0
 21
5977.0
  0
CIRCLE
  8
FS_OBJECT
 62
     7
 10
7311.0
 20
6013.0
 40
28.0
  0
LINE
  8
FS_OBJECT
  6
CONTINUOUS
 62
     7
 10
7312.0
 20
6039.0
 11
7344.0
 21
6039.0
  0
LINE
  8
FS_OBJECT
  6
CONTINUOUS
 62
     7
 10
7344.0
 20
6039.0
 11
7329.0
 21
6036.0
  0
LINE
  8
FS_OBJECT
  6
CONTINUOUS
 62
     7
 10
7329.0
 20
6036.0
 11
7329.0
 21
6042.0
  0
LINE
  8
FS_OBJECT
  6
CONTINUOUS
 62
     7
 10
7329.0
 20
6042.0
 11
7344.0
 21
6039.0
  0
LINE
  8
FS_OBJECT
  6
CONTINUOUS
 62
     7
 10
7659.0
 20
5721.0
 11
7649.0
 21
5710.0
  0
LINE
  8
FS_OBJECT
  6
CONTINUOUS
 62
     7
 10
7649.0
 20
5710.0
 11
7645.0
 21
5715.0
  0
LINE
  8
FS_OBJECT
  6
CONTINUOUS
 62
     7
 10
7645.0
 20
5715.0
 11
7659.0
 21
5721.0
  0
CIRCLE
  8
FS_OBJECT
 62
     7
 10
7503.0
 20
5889.0
 40
29.0
  0
LINE
  8
FS_OBJECT
  6
CONTINUOUS
 62
     7
 10
7475.0
 20
5888.0
 11
7481.0
 21
5888.0
  0
LINE
  8
FS_OBJECT
  6
CONTINUOUS
 62
     7
 10
7481.0
 20
5888.0
 11
7486.0
 21
5876.0
  0
LINE
  8
FS_OBJECT
  6
CONTINUOUS
 62
     7
 10
7486.0
 20
5876.0
 11
7498.0
 21
5900.0
  0
LINE
  8
FS_OBJECT
  6
CONTINUOUS
 62
     7
 10
7498.0
 20
5900.0
 11
7510.0
 21
5876.0
  0
LINE
  8
FS_OBJECT
  6
CONTINUOUS
 62
     7
 10
7510.0
 20
5876.0
 11
7521.0
 21
5900.0
  0
LINE
  8
FS_OBJECT
  6
CONTINUOUS
 62
     7
 10
7521.0
 20
5900.0
 11
7527.0
 21
5888.0
  0
LINE
  8
FS_OBJECT
  6
CONTINUOUS
 62
     7
 10
7527.0
 20
5888.0
 11
7533.0
 21
5888.0
  0
CIRCLE
  8
FS_OBJECT
 62
     7
 10
7104.0
 20
5888.0
 40
28.0
  0
LINE
  8
FS_OBJECT
  6
CONTINUOUS
 62
     7
 10
7105.0
 20
5917.0
 11
7105.0
 21
5911.0
  0
LINE
  8
FS_OBJECT
  6
CONTINUOUS
 62
     7
 10
7105.0
 20
5911.0
 11
7093.0
 21
5905.0
  0
LINE
  8
FS_OBJECT
  6
CONTINUOUS
 62
     7
 10
7093.0
 20
5905.0
 11
7116.0
 21
5894.0
  0
LINE
  8
FS_OBJECT
  6
CONTINUOUS
 62
     7
 10
7116.0
 20
5894.0
 11
7093.0
 21
5882.0
  0
LINE
  8
FS_OBJECT
  6
CONTINUOUS
 62
     7
 10
7093.0
 20
5882.0
 11
7116.0
 21
5871.0
  0
LINE
  8
FS_OBJECT
  6
CONTINUOUS
 62
     7
 10
7116.0
 20
5871.0
 11
7105.0
 21
5865.0
  0
LINE
  8
FS_OBJECT
  6
CONTINUOUS
 62
     7
 10
7105.0
 20
5865.0
 11
7105.0
 21
5859.0
  0
ARC
  8
FS_OBJECT
 62
     7
 10
7765.00
 20
6004.0
 40
10.00
 50
0.0
 51
53.13
  0
ARC
  8
FS_OBJECT
 62
     7
 10
7735.0
 20
5964.0
 40
60.00
 50
53.13
 51
90.0
  0
ARC
  8
FS_OBJECT
 62
     7
 10
7735.0
 20
5964.0
 40
60.00
 50
90.0
 51
126.87
  0
ARC
  8
FS_OBJECT
 62
     7
 10
7705.00
 20
6004.0
 40
10.00
 50
126.87
 51
180.0
  0
ARC
  8
FS_OBJECT
 62
     7
 10
7705.00
 20
6004.0
 40
10.00
 50
180.0
 51
233.13
  0
ARC
  8
FS_OBJECT
 62
     7
 10
7735.0
 20
6044.0
 40
60.00
 50
233.13
 51
270.0
  0
ARC
  8
FS_OBJECT
 62
     7
 10
7735.0
 20
6044.0
 40
60.00
 50
270.0
 51
306.87
  0
ARC
  8
FS_OBJECT
 62
     7
 10
7765.00
 20
6004.0
 40
10.00
 50
306.87
 51
0.0
  0
ARC
  8
FS_OBJECT
 62
     7
 10
7765.00
 20
5882.0
 40
10.00
 50
0.0
 51
53.13
  0
ARC
  8
FS_OBJECT
 62
     7
 10
7735.0
 20
5842.0
 40
60.00
 50
53.13
 51
90.0
  0
ARC
  8
FS_OBJECT
 62
     7
 10
7735.0
 20
5842.0
 40
60.00
 50
90.0
 51
126.87
  0
ARC
  8
FS_OBJECT
 62
     7
 10
7705.00
 20
5882.0
 40
10.00
 50
126.87
 51
180.0
  0
ARC
  8
FS_OBJECT
 62
     7
 10
7705.00
 20
5882.0
 40
10.00
 50
180.0
 51
233.13
  0
ARC
  8
FS_OBJECT
 62
     7
 10
7735.0
 20
5922.0
 40
60.00
 50
233.13
 51
270.0
  0
ARC
  8
FS_OBJECT
 62
     7
 10
7735.0
 20
5922.0
 40
60.00
 50
270.0
 51
306.87
  0
ARC
  8
FS_OBJECT
 62
     7
 10
7765.00
 20
5882.0
 40
10.00
 50
306.87
 51
0.0
  0
LINE
  8
FS_OBJECT
  6
CONTINUOUS
 62
     7
 10
7695.0
 20
6004.0
 11
7776.0
 21
6004.0
  0
LINE
  8
FS_OBJECT
  6
CONTINUOUS
 62
     7
 10
7776.0
 20
6004.0
 11
7776.0
 21
5882.0
  0
LINE
  8
FS_OBJECT
  6
CONTINUOUS
 62
     7
 10
7776.0
 20
5882.0
 11
7695.0
 21
5882.0
  0
LINE
  8
FS_OBJECT
  6
CONTINUOUS
 62
     7
 10
7695.0
 20
5882.0
 11
7695.0
 21
6004.0
  0
LINE
  8
FS_OBJECT
  6
CONTINUOUS
 62
     7
 10
7695.0
 20
6003.0
 11
7776.0
 21
5882.0
  0
LINE
  8
FS_OBJECT
  6
CONTINUOUS
 62
     7
 10
7695.0
 20
5882.0
 11
7776.0
 21
6003.0
  0
LINE
  8
FS_OBJECT
  6
CONTINUOUS
 62
     7
 10
7595.0
 20
6097.0
 11
7595.0
 21
6073.0
  0
LINE
  8
FS_OBJECT
  6
CONTINUOUS
 62
     7
 10
7595.0
 20
6073.0
 11
7579.0
 21
6049.0
  0
LINE
  8
FS_OBJECT
  6
CONTINUOUS
 62
     7
 10
7579.0
 20
6049.0
 11
7579.0
 21
5970.0
  0
LINE
  8
FS_OBJECT
  6
CONTINUOUS
 62
     7
 10
7579.0
 20
5970.0
 11
7643.0
 21
5970.0
  0
LINE
  8
FS_OBJECT
  6
CONTINUOUS
 62
     7
 10
7643.0
 20
5970.0
 11
7643.0
 21
6049.0
  0
LINE
  8
FS_OBJECT
  6
CONTINUOUS
 62
     7
 10
7643.0
 20
6049.0
 11
7627.0
 21
6073.0
  0
LINE
  8
FS_OBJECT
  6
CONTINUOUS
 62
     7
 10
7627.0
 20
6073.0
 11
7627.0
 21
6097.0
  0
LINE
  8
FS_OBJECT
  6
CONTINUOUS
 62
     7
 10
7627.0
 20
6097.0
 11
7595.0
 21
6097.0
  0
LINE
  8
FS_OBJECT
  6
CONTINUOUS
 62
     7
 10
7579.0
 20
6042.0
 11
7587.0
 21
6042.0
  0
LINE
  8
FS_OBJECT
  6
CONTINUOUS
 62
     7
 10
7587.0
 20
6042.0
 11
7595.0
 21
6026.0
  0
LINE
  8
FS_OBJECT
  6
CONTINUOUS
 62
     7
 10
7595.0
 20
6026.0
 11
7611.0
 21
6058.0
  0
LINE
  8
FS_OBJECT
  6
CONTINUOUS
 62
     7
 10
7611.0
 20
6058.0
 11
7627.0
 21
6026.0
  0
LINE
  8
FS_OBJECT
  6
CONTINUOUS
 62
     7
 10
7627.0
 20
6026.0
 11
7635.0
 21
6042.0
  0
LINE
  8
FS_OBJECT
  6
CONTINUOUS
 62
     7
 10
7635.0
 20
6042.0
 11
7643.0
 21
6042.0
  0
LINE
  8
FS_OBJECT
  6
CONTINUOUS
 62
     7
 10
7838.0
 20
6099.0
 11
7838.0
 21
6167.0
  0
LINE
  8
FS_OBJECT
  6
CONTINUOUS
 62
     7
 10
7838.0
 20
6167.0
 11
7804.0
 21
6150.0
  0
LINE
  8
FS_OBJECT
  6
CONTINUOUS
 62
     7
 10
7804.0
 20
6150.0
 11
7804.0
 21
6116.0
  0
LINE
  8
FS_OBJECT
  6
CONTINUOUS
 62
     7
 10
7804.0
 20
6116.0
 11
7838.0
 21
6099.0
  0
LINE
  8
FS_OBJECT
  6
CONTINUOUS
 62
     7
 10
7363.0
 20
5902.0
 11
7391.0
 21
5902.0
  0
LINE
  8
FS_OBJECT
  6
CONTINUOUS
 62
     7
 10
7391.0
 20
5902.0
 11
7391.0
 21
5874.0
  0
LINE
  8
FS_OBJECT
  6
CONTINUOUS
 62
     7
 10
7391.0
 20
5874.0
 11
7363.0
 21
5874.0
  0
LINE
  8
FS_OBJECT
  6
CONTINUOUS
 62
     7
 10
7363.0
 20
5874.0
 11
7363.0
 21
5902.0
  0
LINE
  8
FS_OBJECT
  6
CONTINUOUS
 62
     7
 10
7363.0
 20
5902.0
 11
7391.0
 21
5874.0
  0
LINE
  8
FS_OBJECT
  6
CONTINUOUS
 62
     7
 10
7391.0
 20
5902.0
 11
7363.0
 21
5874.0
  0
LINE
  8
FS_OBJECT
  6
CONTINUOUS
 62
     7
 10
7329.0
 20
6350.0
 11
7357.0
 21
6350.0
  0
LINE
  8
FS_OBJECT
  6
CONTINUOUS
 62
     7
 10
7357.0
 20
6350.0
 11
7357.0
 21
6322.0
  0
LINE
  8
FS_OBJECT
  6
CONTINUOUS
 62
     7
 10
7357.0
 20
6322.0
 11
7329.0
 21
6322.0
  0
LINE
  8
FS_OBJECT
  6
CONTINUOUS
 62
     7
 10
7329.0
 20
6322.0
 11
7329.0
 21
6350.0
  0
LINE
  8
FS_OBJECT
  6
CONTINUOUS
 62
     7
 10
7357.0
 20
6322.0
 11
7329.0
 21
6350.0
  0
LINE
  8
FS_OBJECT
  6
CONTINUOUS
 62
     7
 10
7329.0
 20
6322.0
 11
7357.0
 21
6350.0
  0
LINE
  8
FS_OBJECT
  6
CONTINUOUS
 62
     7
 10
7464.0
 20
6193.0
 11
7464.0
 21
6261.0
  0
LINE
  8
FS_OBJECT
  6
CONTINUOUS
 62
     7
 10
7464.0
 20
6261.0
 11
7430.0
 21
6244.0
  0
LINE
  8
FS_OBJECT
  6
CONTINUOUS
 62
     7
 10
7430.0
 20
6244.0
 11
7430.0
 21
6210.0
  0
LINE
  8
FS_OBJECT
  6
CONTINUOUS
 62
     7
 10
7430.0
 20
6210.0
 11
7464.0
 21
6193.0
  0
LINE
  8
FS_OBJECT
  6
CONTINUOUS
 62
     7
 10
7822.0
 20
5934.0
 11
7850.0
 21
5934.0
  0
LINE
  8
FS_OBJECT
  6
CONTINUOUS
 62
     7
 10
7850.0
 20
5934.0
 11
7850.0
 21
5906.0
  0
LINE
  8
FS_OBJECT
  6
CONTINUOUS
 62
     7
 10
7850.0
 20
5906.0
 11
7822.0
 21
5906.0
  0
LINE
  8
FS_OBJECT
  6
CONTINUOUS
 62
     7
 10
7822.0
 20
5906.0
 11
7822.0
 21
5934.0
  0
LINE
  8
FS_OBJECT
  6
CONTINUOUS
 62
     7
 10
7822.0
 20
5906.0
 11
7850.0
 21
5934.0
  0
LINE
  8
FS_OBJECT
  6
CONTINUOUS
 62
     7
 10
7822.0
 20
5934.0
 11
7850.0
 21
5906.0
  0
ARC
  8
FS_OBJECT
 62
     7
 10
7523.0
 20
6336.0
 40
16.50
 50
0.0
 51
36.87
  0
ARC
  8
FS_OBJECT
 62
     7
 10
7534.0
 20
6344.25
 40
2.75
 50
36.87
 51
90.0
  0
ARC
  8
FS_OBJECT
 62
     7
 10
7534.0
 20
6344.25
 40
2.75
 50
90.0
 51
143.13
  0
ARC
  8
FS_OBJECT
 62
     7
 10
7545.0
 20
6336.0
 40
16.50
 50
143.13
 51
180.0
  0
ARC
  8
FS_OBJECT
 62
     7
 10
7545.0
 20
6336.0
 40
16.50
 50
180.0
 51
216.87
  0
ARC
  8
FS_OBJECT
 62
     7
 10
7534.0
 20
6327.75
 40
2.75
 50
216.87
 51
270.0
  0
ARC
  8
FS_OBJECT
 62
     7
 10
7534.0
 20
6327.75
 40
2.75
 50
270.0
 51
323.13
  0
ARC
  8
FS_OBJECT
 62
     7
 10
7523.0
 20
6336.0
 40
16.50
 50
323.13
 51
0.0
  0
LINE
  8
FS_OBJECT
  6
CONTINUOUS
 62
     7
 10
7200.0
 20
5620.0
 11
7185.0
 21
5617.0
  0
LINE
  8
FS_OBJECT
  6
CONTINUOUS
 62
     7
 10
7185.0
 20
5617.0
 11
7185.0
 21
5623.0
  0
LINE
  8
FS_OBJECT
  6
CONTINUOUS
 62
     7
 10
7185.0
 20
5623.0
 11
7200.0
 21
5620.0
  0
LINE
  8
FS_OBJECT
  6
CONTINUOUS
 62
     7
 10
7347.0
 20
5676.0
 11
7350.0
 21
5661.0
  0
LINE
  8
FS_OBJECT
  6
CONTINUOUS
 62
     7
 10
7350.0
 20
5661.0
 11
7344.0
 21
5661.0
  0
LINE
  8
FS_OBJECT
  6
CONTINUOUS
 62
     7
 10
7344.0
 20
5661.0
 11
7347.0
 21
5676.0
  0
LINE
  8
FS_OBJECT
  6
CONTINUOUS
 62
     7
 10
7596.0
 20
5690.0
 11
7581.0
 21
5687.0
  0
LINE
  8
FS_OBJECT
  6
CONTINUOUS
 62
     7
 10
7581.0
 20
5687.0
 11
7581.0
 21
5693.0
  0
LINE
  8
FS_OBJECT
  6
CONTINUOUS
 62
     7
 10
7581.0
 20
5693.0
 11
7596.0
 21
5690.0
  0
LINE
  8
FS_OBJECT
  6
CONTINUOUS
 62
     7
 10
7128.0
 20
5700.0
 11
7143.0
 21
5703.0
  0
LINE
  8
FS_OBJECT
  6
CONTINUOUS
 62
     7
 10
7143.0
 20
5703.0
 11
7143.0
 21
5697.0
  0
LINE
  8
FS_OBJECT
  6
CONTINUOUS
 62
     7
 10
7143.0
 20
5697.0
 11
7128.0
 21
5700.0
  0
LINE
  8
FS_OBJECT
  6
CONTINUOUS
 62
     7
 10
7347.0
 20
5703.0
 11
7344.0
 21
5718.0
  0
LINE
  8
FS_OBJECT
  6
CONTINUOUS
 62
     7
 10
7344.0
 20
5718.0
 11
7350.0
 21
5718.0
  0
LINE
  8
FS_OBJECT
  6
CONTINUOUS
 62
     7
 10
7350.0
 20
5718.0
 11
7347.0
 21
5703.0
  0
LINE
  8
FS_OBJECT
  6
CONTINUOUS
 62
     7
 10
7222.0
 20
5817.0
 11
7222.0
 21
5849.0
  0
LINE
  8
FS_OBJECT
  6
CONTINUOUS
 62
     7
 10
7222.0
 20
5849.0
 11
7347.0
 21
5849.0
  0
LINE
  8
FS_OBJECT
  6
CONTINUOUS
 62
     7
 10
7347.0
 20
5849.0
 11
7347.0
 21
5703.0
  0
LINE
  8
FS_OBJECT
  6
CONTINUOUS
 62
     7
 10
7202.0
 20
5774.0
 11
7187.0
 21
5771.0
  0
LINE
  8
FS_OBJECT
  6
CONTINUOUS
 62
     7
 10
7187.0
 20
5771.0
 11
7187.0
 21
5777.0
  0
LINE
  8
FS_OBJECT
  6
CONTINUOUS
 62
     7
 10
7187.0
 20
5777.0
 11
7202.0
 21
5774.0
  0
LINE
  8
FS_OBJECT
  6
CONTINUOUS
 62
     7
 10
7105.0
 20
5859.0
 11
7105.0
 21
5774.0
  0
LINE
  8
FS_OBJECT
  6
CONTINUOUS
 62
     7
 10
7105.0
 20
5774.0
 11
7203.0
 21
5774.0
  0
LINE
  8
FS_OBJECT
  6
CONTINUOUS
 62
     7
 10
7363.0
 20
5888.0
 11
7348.0
 21
5885.0
  0
LINE
  8
FS_OBJECT
  6
CONTINUOUS
 62
     7
 10
7348.0
 20
5885.0
 11
7348.0
 21
5891.0
  0
LINE
  8
FS_OBJECT
  6
CONTINUOUS
 62
     7
 10
7348.0
 20
5891.0
 11
7363.0
 21
5888.0
  0
LINE
  8
FS_OBJECT
  6
CONTINUOUS
 62
     7
 10
7133.0
 20
5888.0
 11
7235.0
 21
5888.0
  0
LINE
  8
FS_OBJECT
  6
CONTINUOUS
 62
     7
 10
7235.0
 20
5888.0
 11
7235.0
 21
5888.0
  0
LINE
  8
FS_OBJECT
  6
CONTINUOUS
 62
     7
 10
7235.0
 20
5888.0
 11
7363.0
 21
5888.0
  0
LINE
  8
FS_OBJECT
  6
CONTINUOUS
 62
     7
 10
7474.0
 20
5889.0
 11
7459.0
 21
5886.0
  0
LINE
  8
FS_OBJECT
  6
CONTINUOUS
 62
     7
 10
7459.0
 20
5886.0
 11
7459.0
 21
5892.0
  0
LINE
  8
FS_OBJECT
  6
CONTINUOUS
 62
     7
 10
7459.0
 20
5892.0
 11
7474.0
 21
5889.0
  0
LINE
  8
FS_OBJECT
  6
CONTINUOUS
 62
     7
 10
7391.0
 20
5888.0
 11
7410.0
 21
5888.0
  0
LINE
  8
FS_OBJECT
  6
CONTINUOUS
 62
     7
 10
7410.0
 20
5888.0
 11
7410.0
 21
5888.0
  0
LINE
  8
FS_OBJECT
  6
CONTINUOUS
 62
     7
 10
7410.0
 20
5888.0
 11
7475.0
 21
5888.0
  0
LINE
  8
FS_OBJECT
  6
CONTINUOUS
 62
     7
 10
7377.0
 20
5902.0
 11
7374.0
 21
5917.0
  0
LINE
  8
FS_OBJECT
  6
CONTINUOUS
 62
     7
 10
7374.0
 20
5917.0
 11
7380.0
 21
5917.0
  0
LINE
  8
FS_OBJECT
  6
CONTINUOUS
 62
     7
 10
7380.0
 20
5917.0
 11
7377.0
 21
5902.0
  0
LINE
  8
FS_OBJECT
  6
CONTINUOUS
 62
     7
 10
7343.0
 20
6039.0
 11
7377.0
 21
6039.0
  0
LINE
  8
FS_OBJECT
  6
CONTINUOUS
 62
     7
 10
7377.0
 20
6039.0
 11
7377.0
 21
5902.0
  0
LINE
  8
FS_OBJECT
  6
CONTINUOUS
 62
     7
 10
7282.0
 20
6013.0
 11
7267.0
 21
6010.0
  0
LINE
  8
FS_OBJECT
  6
CONTINUOUS
 62
     7
 10
7267.0
 20
6010.0
 11
7267.0
 21
6016.0
  0
LINE
  8
FS_OBJECT
  6
CONTINUOUS
 62
     7
 10
7267.0
 20
6016.0
 11
7282.0
 21
6013.0
  0
LINE
  8
FS_OBJECT
  6
CONTINUOUS
 62
     7
 10
7210.0
 20
6013.0
 11
7246.0
 21
6013.0
  0
LINE
  8
FS_OBJECT
  6
CONTINUOUS
 62
     7
 10
7246.0
 20
6013.0
 11
7246.0
 21
6013.0
  0
LINE
  8
FS_OBJECT
  6
CONTINUOUS
 62
     7
 10
7246.0
 20
6013.0
 11
7283.0
 21
6013.0
  0
LINE
  8
FS_OBJECT
  6
CONTINUOUS
 62
     7
 10
7735.0
 20
6025.0
 11
7732.0
 21
6040.0
  0
LINE
  8
FS_OBJECT
  6
CONTINUOUS
 62
     7
 10
7732.0
 20
6040.0
 11
7738.0
 21
6040.0
  0
LINE
  8
FS_OBJECT
  6
CONTINUOUS
 62
     7
 10
7738.0
 20
6040.0
 11
7735.0
 21
6025.0
  0
LINE
  8
FS_OBJECT
  6
CONTINUOUS
 62
     7
 10
7643.0
 20
6042.0
 11
7735.0
 21
6042.0
  0
LINE
  8
FS_OBJECT
  6
CONTINUOUS
 62
     7
 10
7735.0
 20
6042.0
 11
7735.0
 21
6025.0
  0
LINE
  8
FS_OBJECT
  6
CONTINUOUS
 62
     7
 10
7503.0
 20
5860.0
 11
7506.0
 21
5845.0
  0
LINE
  8
FS_OBJECT
  6
CONTINUOUS
 62
     7
 10
7506.0
 20
5845.0
 11
7500.0
 21
5845.0
  0
LINE
  8
FS_OBJECT
  6
CONTINUOUS
 62
     7
 10
7500.0
 20
5845.0
 11
7503.0
 21
5860.0
  0
LINE
  8
FS_OBJECT
  6
CONTINUOUS
 62
     1
 10
7735.0
 20
5862.0
 11
7735.0
 21
5819.0
  0
LINE
  8
FS_OBJECT
  6
CONTINUOUS
 62
     1
 10
7735.0
 20
5819.0
 11
7504.0
 21
5819.0
  0
LINE
  8
FS_OBJECT
  6
CONTINUOUS
 62
     1
 10
7504.0
 20
5819.0
 11
7504.0
 21
5859.0
  0
LINE
  8
FS_OBJECT
  6
CONTINUOUS
 62
     7
 10
7815.0
 20
5689.0
 11
7800.0
 21
5686.0
  0
LINE
  8
FS_OBJECT
  6
CONTINUOUS
 62
     7
 10
7800.0
 20
5686.0
 11
7800.0
 21
5692.0
  0
LINE
  8
FS_OBJECT
  6
CONTINUOUS
 62
     7
 10
7800.0
 20
5692.0
 11
7815.0
 21
5689.0
  0
LINE
  8
FS_OBJECT
  6
CONTINUOUS
 62
     7
 10
7936.0
 20
5587.0
 11
7921.0
 21
5584.0
  0
LINE
  8
FS_OBJECT
  6
CONTINUOUS
 62
     7
 10
7921.0
 20
5584.0
 11
7921.0
 21
5590.0
  0
LINE
  8
FS_OBJECT
  6
CONTINUOUS
 62
     7
 10
7921.0
 20
5590.0
 11
7936.0
 21
5587.0
  0
LINE
  8
FS_OBJECT
  6
CONTINUOUS
 62
     7
 10
7943.0
 20
5679.0
 11
7928.0
 21
5676.0
  0
LINE
  8
FS_OBJECT
  6
CONTINUOUS
 62
     7
 10
7928.0
 20
5676.0
 11
7928.0
 21
5682.0
  0
LINE
  8
FS_OBJECT
  6
CONTINUOUS
 62
     7
 10
7928.0
 20
5682.0
 11
7943.0
 21
5679.0
  0
LINE
  8
FS_OBJECT
  6
CONTINUOUS
 62
     7
 10
7835.0
 20
5907.0
 11
7838.0
 21
5892.0
  0
LINE
  8
FS_OBJECT
  6
CONTINUOUS
 62
     7
 10
7838.0
 20
5892.0
 11
7832.0
 21
5892.0
  0
LINE
  8
FS_OBJECT
  6
CONTINUOUS
 62
     7
 10
7832.0
 20
5892.0
 11
7835.0
 21
5907.0
  0
LINE
  8
FS_OBJECT
  6
CONTINUOUS
 62
     7
 10
7835.0
 20
5741.0
 11
7835.0
 21
5906.0
  0
LINE
  8
FS_OBJECT
  6
CONTINUOUS
 62
     7
 10
7835.0
 20
5906.0
 11
7836.0
 21
5906.0
  0
LINE
  8
FS_OBJECT
  6
CONTINUOUS
 62
     7
 10
7942.0
 20
5920.0
 11
7927.0
 21
5917.0
  0
LINE
  8
FS_OBJECT
  6
CONTINUOUS
 62
     7
 10
7927.0
 20
5917.0
 11
7927.0
 21
5923.0
  0
LINE
  8
FS_OBJECT
  6
CONTINUOUS
 62
     7
 10
7927.0
 20
5923.0
 11
7942.0
 21
5920.0
  0
LINE
  8
FS_OBJECT
  6
CONTINUOUS
 62
     7
 10
7831.0
 20
6103.0
 11
7834.0
 21
6088.0
  0
LINE
  8
FS_OBJECT
  6
CONTINUOUS
 62
     7
 10
7834.0
 20
6088.0
 11
7828.0
 21
6088.0
  0
LINE
  8
FS_OBJECT
  6
CONTINUOUS
 62
     7
 10
7828.0
 20
6088.0
 11
7831.0
 21
6103.0
  0
LINE
  8
FS_OBJECT
  6
CONTINUOUS
 62
     7
 10
7836.0
 20
5934.0
 11
7831.0
 21
5934.0
  0
LINE
  8
FS_OBJECT
  6
CONTINUOUS
 62
     7
 10
7831.0
 20
5934.0
 11
7831.0
 21
6103.0
  0
LINE
  8
FS_OBJECT
  6
CONTINUOUS
 62
     7
 10
7545.0
 20
6336.0
 11
7560.0
 21
6339.0
  0
LINE
  8
FS_OBJECT
  6
CONTINUOUS
 62
     7
 10
7560.0
 20
6339.0
 11
7560.0
 21
6333.0
  0
LINE
  8
FS_OBJECT
  6
CONTINUOUS
 62
     7
 10
7560.0
 20
6333.0
 11
7545.0
 21
6336.0
  0
LINE
  8
FS_OBJECT
  6
CONTINUOUS
 62
     7
 10
7810.0
 20
6153.0
 11
7804.0
 21
6153.0
  0
LINE
  8
FS_OBJECT
  6
CONTINUOUS
 62
     7
 10
7804.0
 20
6153.0
 11
7804.0
 21
6336.0
  0
LINE
  8
FS_OBJECT
  6
CONTINUOUS
 62
     7
 10
7804.0
 20
6336.0
 11
7545.0
 21
6336.0
  0
LINE
  8
FS_OBJECT
  6
CONTINUOUS
 62
     7
 10
7356.0
 20
6336.0
 11
7371.0
 21
6339.0
  0
LINE
  8
FS_OBJECT
  6
CONTINUOUS
 62
     7
 10
7371.0
 20
6339.0
 11
7371.0
 21
6333.0
  0
LINE
  8
FS_OBJECT
  6
CONTINUOUS
 62
     7
 10
7371.0
 20
6333.0
 11
7356.0
 21
6336.0
  0
LINE
  8
FS_OBJECT
  6
CONTINUOUS
 62
     1
 10
7524.0
 20
6336.0
 11
7438.0
 21
6336.0
  0
LINE
  8
FS_OBJECT
  6
CONTINUOUS
 62
     1
 10
7438.0
 20
6336.0
 11
7438.0
 21
6336.0
  0
LINE
  8
FS_OBJECT
  6
CONTINUOUS
 62
     1
 10
7438.0
 20
6336.0
 11
7357.0
 21
6336.0
  0
LINE
  8
FS_OBJECT
  6
CONTINUOUS
 62
     7
 10
7457.0
 20
6197.0
 11
7460.0
 21
6182.0
  0
LINE
  8
FS_OBJECT
  6
CONTINUOUS
 62
     7
 10
7460.0
 20
6182.0
 11
7454.0
 21
6182.0
  0
LINE
  8
FS_OBJECT
  6
CONTINUOUS
 62
     7
 10
7454.0
 20
6182.0
 11
7457.0
 21
6197.0
  0
LINE
  8
FS_OBJECT
  6
CONTINUOUS
 62
     7
 10
7537.0
 20
6162.0
 11
7457.0
 21
6162.0
  0
LINE
  8
FS_OBJECT
  6
CONTINUOUS
 62
     7
 10
7457.0
 20
6162.0
 11
7457.0
 21
6196.0
  0
LINE
  8
FS_OBJECT
  6
CONTINUOUS
 62
     7
 10
7343.0
 20
6323.0
 11
7346.0
 21
6308.0
  0
LINE
  8
FS_OBJECT
  6
CONTINUOUS
 62
     7
 10
7346.0
 20
6308.0
 11
7340.0
 21
6308.0
  0
LINE
  8
FS_OBJECT
  6
CONTINUOUS
 62
     7
 10
7340.0
 20
6308.0
 11
7343.0
 21
6323.0
  0
LINE
  8
FS_OBJECT
  6
CONTINUOUS
 62
     7
 10
7436.0
 20
6247.0
 11
7343.0
 21
6247.0
  0
LINE
  8
FS_OBJECT
  6
CONTINUOUS
 62
     7
 10
7343.0
 20
6247.0
 11
7343.0
 21
6322.0
  0
LINE
  8
FS_OBJECT
  6
CONTINUOUS
 62
     7
 10
7075.0
 20
5888.0
 11
7060.0
 21
5885.0
  0
LINE
  8
FS_OBJECT
  6
CONTINUOUS
 62
     7
 10
7060.0
 20
5885.0
 11
7060.0
 21
5891.0
  0
LINE
  8
FS_OBJECT
  6
CONTINUOUS
 62
     7
 10
7060.0
 20
5891.0
 11
7075.0
 21
5888.0
  0
LINE
  8
FS_OBJECT
  6
CONTINUOUS
 62
     7
 10
7329.0
 20
6336.0
 11
7021.0
 21
6336.0
  0
LINE
  8
FS_OBJECT
  6
CONTINUOUS
 62
     7
 10
7021.0
 20
6336.0
 11
7021.0
 21
5888.0
  0
LINE
  8
FS_OBJECT
  6
CONTINUOUS
 62
     7
 10
7021.0
 20
5888.0
 11
7076.0
 21
5888.0
  0
LINE
  8
FS_OBJECT
  6
CONTINUOUS
 62
     7
 10
7579.0
 20
6042.0
 11
7564.0
 21
6039.0
  0
LINE
  8
FS_OBJECT
  6
CONTINUOUS
 62
     7
 10
7564.0
 20
6039.0
 11
7564.0
 21
6045.0
  0
LINE
  8
FS_OBJECT
  6
CONTINUOUS
 62
     7
 10
7564.0
 20
6045.0
 11
7579.0
 21
6042.0
  0
LINE
  8
FS_OBJECT
  6
CONTINUOUS
 62
     7
 10
7533.0
 20
5888.0
 11
7547.0
 21
5888.0
  0
LINE
  8
FS_OBJECT
  6
CONTINUOUS
 62
     7
 10
7547.0
 20
5888.0
 11
7547.0
 21
6042.0
  0
LINE
  8
FS_OBJECT
  6
CONTINUOUS
 62
     7
 10
7547.0
 20
6042.0
 11
7579.0
 21
6042.0
  0
LINE
  8
FS_OBJECT
  6
CONTINUOUS
 62
     7
 10
7104.0
 20
5917.0
 11
7101.0
 21
5932.0
  0
LINE
  8
FS_OBJECT
  6
CONTINUOUS
 62
     7
 10
7101.0
 20
5932.0
 11
7107.0
 21
5932.0
  0
LINE
  8
FS_OBJECT
  6
CONTINUOUS
 62
     7
 10
7107.0
 20
5932.0
 11
7104.0
 21
5917.0
  0
LINE
  8
FS_OBJECT
  6
CONTINUOUS
 62
     1
 10
7504.0
 20
5917.0
 11
7504.0
 21
6103.0
  0
LINE
  8
FS_OBJECT
  6
CONTINUOUS
 62
     1
 10
7504.0
 20
6103.0
 11
7105.0
 21
6103.0
  0
LINE
  8
FS_OBJECT
  6
CONTINUOUS
 62
     1
 10
7105.0
 20
6103.0
 11
7105.0
 21
5917.0
  0
LINE
  8
FS_OBJECT
  6
CONTINUOUS
 62
     7
 10
7218.0
 20
6022.0
 11
7240.0
 21
6022.0
  0
LINE
  8
FS_OBJECT
  6
CONTINUOUS
 62
     7
 10
7240.0
 20
6022.0
 11
7240.0
 21
5999.0
  0
LINE
  8
FS_OBJECT
  6
CONTINUOUS
 62
     7
 10
7240.0
 20
5999.0
 11
7218.0
 21
5999.0
  0
LINE
  8
FS_OBJECT
  6
CONTINUOUS
 62
     7
 10
7218.0
 20
5999.0
 11
7218.0
 21
6022.0
  0
TEXT
  8
FS_OBJECT
 62
     7
 10
7227.60
 20
6009.25
 40
6.50
  1
1
 41
0.74
  0
LINE
  8
FS_OBJECT
  6
CONTINUOUS
 62
     7
 10
7487.0
 20
6171.0
 11
7509.0
 21
6171.0
  0
LINE
  8
FS_OBJECT
  6
CONTINUOUS
 62
     7
 10
7509.0
 20
6171.0
 11
7509.0
 21
6148.0
  0
LINE
  8
FS_OBJECT
  6
CONTINUOUS
 62
     7
 10
7509.0
 20
6148.0
 11
7487.0
 21
6148.0
  0
LINE
  8
FS_OBJECT
  6
CONTINUOUS
 62
     7
 10
7487.0
 20
6148.0
 11
7487.0
 21
6171.0
  0
TEXT
  8
FS_OBJECT
 62
     7
 10
7496.60
 20
6158.25
 40
6.50
  1
2
 41
0.74
  0
LINE
  8
FS_OBJECT
  6
CONTINUOUS
 62
     7
 10
7380.0
 20
6256.0
 11
7401.0
 21
6256.0
  0
LINE
  8
FS_OBJECT
  6
CONTINUOUS
 62
     7
 10
7401.0
 20
6256.0
 11
7401.0
 21
6233.0
  0
LINE
  8
FS_OBJECT
  6
CONTINUOUS
 62
     7
 10
7401.0
 20
6233.0
 11
7380.0
 21
6233.0
  0
LINE
  8
FS_OBJECT
  6
CONTINUOUS
 62
     7
 10
7380.0
 20
6233.0
 11
7380.0
 21
6256.0
  0
TEXT
  8
FS_OBJECT
 62
     7
 10
7389.60
 20
6243.25
 40
6.50
  1
3
 41
0.74
  0
LINE
  8
FS_OBJECT
  6
CONTINUOUS
 62
     7
 10
7165.0
 20
6345.0
 11
7187.0
 21
6345.0
  0
LINE
  8
FS_OBJECT
  6
CONTINUOUS
 62
     7
 10
7187.0
 20
6345.0
 11
7187.0
 21
6322.0
  0
LINE
  8
FS_OBJECT
  6
CONTINUOUS
 62
     7
 10
7187.0
 20
6322.0
 11
7165.0
 21
6322.0
  0
LINE
  8
FS_OBJECT
  6
CONTINUOUS
 62
     7
 10
7165.0
 20
6322.0
 11
7165.0
 21
6345.0
  0
TEXT
  8
FS_OBJECT
 62
     7
 10
7174.60
 20
6332.25
 40
6.50
  1
4
 41
0.74
  0
LINE
  8
FS_OBJECT
  6
CONTINUOUS
 62
     7
 10
7174.0
 20
5897.0
 11
7196.0
 21
5897.0
  0
LINE
  8
FS_OBJECT
  6
CONTINUOUS
 62
     7
 10
7196.0
 20
5897.0
 11
7196.0
 21
5874.0
  0
LINE
  8
FS_OBJECT
  6
CONTINUOUS
 62
     7
 10
7196.0
 20
5874.0
 11
7174.0
 21
5874.0
  0
LINE
  8
FS_OBJECT
  6
CONTINUOUS
 62
     7
 10
7174.0
 20
5874.0
 11
7174.0
 21
5897.0
  0
TEXT
  8
FS_OBJECT
 62
     7
 10
7183.60
 20
5884.25
 40
6.50
  1
5
 41
0.74
  0
LINE
  8
FS_OBJECT
  6
CONTINUOUS
 62
     7
 10
7422.0
 20
5899.0
 11
7443.0
 21
5899.0
  0
LINE
  8
FS_OBJECT
  6
CONTINUOUS
 62
     7
 10
7443.0
 20
5899.0
 11
7443.0
 21
5876.0
  0
LINE
  8
FS_OBJECT
  6
CONTINUOUS
 62
     7
 10
7443.0
 20
5876.0
 11
7422.0
 21
5876.0
  0
LINE
  8
FS_OBJECT
  6
CONTINUOUS
 62
     7
 10
7422.0
 20
5876.0
 11
7422.0
 21
5899.0
  0
TEXT
  8
FS_OBJECT
 62
     7
 10
7431.60
 20
5886.25
 40
6.50
  1
6
 41
0.74
  0
LINE
  8
FS_OBJECT
  6
CONTINUOUS
 62
     7
 10
7539.0
 20
5979.0
 11
7561.0
 21
5979.0
  0
LINE
  8
FS_OBJECT
  6
CONTINUOUS
 62
     7
 10
7561.0
 20
5979.0
 11
7561.0
 21
5956.0
  0
LINE
  8
FS_OBJECT
  6
CONTINUOUS
 62
     7
 10
7561.0
 20
5956.0
 11
7539.0
 21
5956.0
  0
LINE
  8
FS_OBJECT
  6
CONTINUOUS
 62
     7
 10
7539.0
 20
5956.0
 11
7539.0
 21
5979.0
  0
TEXT
  8
FS_OBJECT
 62
     7
 10
7548.60
 20
5966.25
 40
6.50
  1
7
 41
0.74
  0
LINE
  8
FS_OBJECT
  6
CONTINUOUS
 62
     7
 10
7678.0
 20
6054.0
 11
7700.0
 21
6054.0
  0
LINE
  8
FS_OBJECT
  6
CONTINUOUS
 62
     7
 10
7700.0
 20
6054.0
 11
7700.0
 21
6031.0
  0
LINE
  8
FS_OBJECT
  6
CONTINUOUS
 62
     7
 10
7700.0
 20
6031.0
 11
7678.0
 21
6031.0
  0
LINE
  8
FS_OBJECT
  6
CONTINUOUS
 62
     7
 10
7678.0
 20
6031.0
 11
7678.0
 21
6054.0
  0
TEXT
  8
FS_OBJECT
 62
     7
 10
7687.60
 20
6041.25
 40
6.50
  1
8
 41
0.74
  0
LINE
  8
FS_OBJECT
  6
CONTINUOUS
 62
     7
 10
7494.0
 20
6019.0
 11
7516.0
 21
6019.0
  0
LINE
  8
FS_OBJECT
  6
CONTINUOUS
 62
     7
 10
7516.0
 20
6019.0
 11
7516.0
 21
5996.0
  0
LINE
  8
FS_OBJECT
  6
CONTINUOUS
 62
     7
 10
7516.0
 20
5996.0
 11
7494.0
 21
5996.0
  0
LINE
  8
FS_OBJECT
  6
CONTINUOUS
 62
     7
 10
7494.0
 20
5996.0
 11
7494.0
 21
6019.0
  0
TEXT
  8
FS_OBJECT
 62
     7
 10
7500.60
 20
6005.25
 40
6.50
  1
10
 41
0.83
  0
LINE
  8
FS_OBJECT
  6
CONTINUOUS
 62
     7
 10
7290.0
 20
5863.0
 11
7312.0
 21
5863.0
  0
LINE
  8
FS_OBJECT
  6
CONTINUOUS
 62
     7
 10
7312.0
 20
5863.0
 11
7312.0
 21
5840.0
  0
LINE
  8
FS_OBJECT
  6
CONTINUOUS
 62
     7
 10
7312.0
 20
5840.0
 11
7290.0
 21
5840.0
  0
LINE
  8
FS_OBJECT
  6
CONTINUOUS
 62
     7
 10
7290.0
 20
5840.0
 11
7290.0
 21
5863.0
  0
TEXT
  8
FS_OBJECT
 62
     7
 10
7296.60
 20
5849.25
 40
6.50
  1
12
 41
0.83
  0
LINE
  8
FS_OBJECT
  6
CONTINUOUS
 62
     7
 10
7823.0
 20
6023.0
 11
7844.0
 21
6023.0
  0
LINE
  8
FS_OBJECT
  6
CONTINUOUS
 62
     7
 10
7844.0
 20
6023.0
 11
7844.0
 21
6000.0
  0
LINE
  8
FS_OBJECT
  6
CONTINUOUS
 62
     7
 10
7844.0
 20
6000.0
 11
7823.0
 21
6000.0
  0
LINE
  8
FS_OBJECT
  6
CONTINUOUS
 62
     7
 10
7823.0
 20
6000.0
 11
7823.0
 21
6023.0
  0
TEXT
  8
FS_OBJECT
 62
     7
 10
7829.60
 20
6009.25
 40
6.50
  1
16
 41
0.83
  0
LINE
  8
FS_OBJECT
  6
CONTINUOUS
 62
     7
 10
7795.0
 20
6301.0
 11
7817.0
 21
6301.0
  0
LINE
  8
FS_OBJECT
  6
CONTINUOUS
 62
     7
 10
7817.0
 20
6301.0
 11
7817.0
 21
6278.0
  0
LINE
  8
FS_OBJECT
  6
CONTINUOUS
 62
     7
 10
7817.0
 20
6278.0
 11
7795.0
 21
6278.0
  0
LINE
  8
FS_OBJECT
  6
CONTINUOUS
 62
     7
 10
7795.0
 20
6278.0
 11
7795.0
 21
6301.0
  0
TEXT
  8
FS_OBJECT
 62
     7
 10
7801.60
 20
6287.25
 40
6.50
  1
17
 41
0.83
  0
LINE
  8
FS_OBJECT
  6
CONTINUOUS
 62
     7
 10
7350.0
 20
6048.0
 11
7372.0
 21
6048.0
  0
LINE
  8
FS_OBJECT
  6
CONTINUOUS
 62
     7
 10
7372.0
 20
6048.0
 11
7372.0
 21
6025.0
  0
LINE
  8
FS_OBJECT
  6
CONTINUOUS
 62
     7
 10
7372.0
 20
6025.0
 11
7350.0
 21
6025.0
  0
LINE
  8
FS_OBJECT
  6
CONTINUOUS
 62
     7
 10
7350.0
 20
6025.0
 11
7350.0
 21
6048.0
  0
TEXT
  8
FS_OBJECT
 62
     7
 10
7356.60
 20
6034.25
 40
6.50
  1
24
 41
0.83
  0
LINE
  8
FS_OBJECT
  6
CONTINUOUS
 62
     7
 10
7471.0
 20
6345.0
 11
7493.0
 21
6345.0
  0
LINE
  8
FS_OBJECT
  6
CONTINUOUS
 62
     7
 10
7493.0
 20
6345.0
 11
7493.0
 21
6322.0
  0
LINE
  8
FS_OBJECT
  6
CONTINUOUS
 62
     7
 10
7493.0
 20
6322.0
 11
7471.0
 21
6322.0
  0
LINE
  8
FS_OBJECT
  6
CONTINUOUS
 62
     7
 10
7471.0
 20
6322.0
 11
7471.0
 21
6345.0
  0
TEXT
  8
FS_OBJECT
 62
     7
 10
7477.60
 20
6331.25
 40
6.50
  1
25
 41
0.83
  0
TEXT
  8
FS_OBJECT
 62
     7
 10
7152.60
 20
6039.25
 40
6.50
  1
FEEDSTOCK
 41
1.14
  0
TEXT
  8
FS_OBJECT
 62
     7
 10
7539.60
 20
6193.25
 40
6.50
  1
H2 MAKEUP
 41
1.14
  0
TEXT
  8
FS_OBJECT
 62
     7
 10
7528.60
 20
5858.25
 40
6.50
  1
CFEX
 41
1.03
  0
TEXT
  8
FS_OBJECT
 62
     7
 10
7126.60
 20
5849.25
 40
6.50
  1
H2EX
 41
1.03
  0
CIRCLE
  8
FS_OBJECT
 62
     7
 10
7316.0
 20
6363.0
 40
13.0
  0
TEXT
  8
FS_OBJECT
 62
     7
 10
7314.60
 20
6361.25
 40
6.50
  1
1
 41
0.74
  0
CIRCLE
  8
FS_OBJECT
 62
     7
 10
7417.0
 20
6274.0
 40
13.0
  0
TEXT
  8
FS_OBJECT
 62
     7
 10
7412.60
 20
6272.25
 40
6.50
  1
15
 41
0.83
  0
CIRCLE
  8
FS_OBJECT
 62
     7
 10
7507.0
 20
6360.0
 40
13.0
  0
TEXT
  8
FS_OBJECT
 62
     7
 10
7502.60
 20
6358.25
 40
6.50
  1
16
 41
0.83
  0
CIRCLE
  8
FS_OBJECT
 62
     7
 10
7791.0
 20
6180.0
 40
13.0
  0
TEXT
  8
FS_OBJECT
 62
     7
 10
7786.60
 20
6178.25
 40
6.50
  1
12
 41
0.83
  0
CIRCLE
  8
FS_OBJECT
 62
     7
 10
7803.0
 20
5952.0
 40
13.0
  0
TEXT
  8
FS_OBJECT
 62
     7
 10
7798.60
 20
5950.25
 40
6.50
  1
11
 41
0.83
  0
CIRCLE
  8
FS_OBJECT
 62
     7
 10
7186.0
 20
5834.0
 40
13.0
  0
TEXT
  8
FS_OBJECT
 62
     7
 10
7184.60
 20
5832.25
 40
6.50
  1
7
 41
0.74
  0
CIRCLE
  8
FS_OBJECT
 62
     7
 10
7062.0
 20
5933.0
 40
13.0
  0
TEXT
  8
FS_OBJECT
 62
     7
 10
7060.60
 20
5931.25
 40
6.50
  1
2
 41
0.74
  0
CIRCLE
  8
FS_OBJECT
 62
     7
 10
7268.0
 20
6054.0
 40
13.0
  0
TEXT
  8
FS_OBJECT
 62
     7
 10
7263.60
 20
6052.25
 40
6.50
  1
14
 41
0.83
  0
CIRCLE
  8
FS_OBJECT
 62
     7
 10
7350.0
 20
5915.0
 40
13.0
  0
TEXT
  8
FS_OBJECT
 62
     7
 10
7348.60
 20
5913.25
 40
6.50
  1
3
 41
0.74
  0
CIRCLE
  8
FS_OBJECT
 62
     7
 10
7458.0
 20
5930.0
 40
13.0
  0
TEXT
  8
FS_OBJECT
 62
     7
 10
7456.60
 20
5928.25
 40
6.50
  1
4
 41
0.74
  0
CIRCLE
  8
FS_OBJECT
 62
     7
 10
7563.0
 20
6110.0
 40
13.0
  0
TEXT
  8
FS_OBJECT
 62
     7
 10
7561.60
 20
6108.25
 40
6.50
  1
5
 41
0.74
  0
CIRCLE
  8
FS_OBJECT
 62
     7
 10
7756.0
 20
6042.0
 40
13.0
  0
TEXT
  8
FS_OBJECT
 62
     7
 10
7754.60
 20
6040.25
 40
6.50
  1
6
 41
0.74
  0
ENDSEC
  0
EOF
