  0
SECTION
  2
HEADER
  9
$EXTMIN
 10
7851.0
 20
5635.0
  9
$EXTMAX
 10
11283.0
 20
6939.0
  9
$LIMMIN
 10
7847.0
 20
5181.0
  9
$LIMMAX
 10
10965.0
 20
6819.0
  9
$LTSCALE
 40
200.0
  0
ENDSEC
  0
SECTION
  2
TABLES
  0
TABLE
  2
LTYPE
 70
     7
  0
LTYPE
  2
CONTINUOUS
 70
    64
  3
Solid line
 72
    65
 73
     0
 40
0.0
  0
LTYPE
  2
DASHED
 70
    64
  3
__ __ __ __ __ __ __ __ __ __ __ __ __ __ __
 72
    65
 73
     2
 40
0.75
 49
0.5
 49
-0.25
  0
LTYPE
  2
HIDDEN
 70
    64
  3
_ _ _ _ _ _ _ _ _ _ _ _ _ _ _ _ _ _ _ _ _ _ _
 72
    65
 73
     2
 40
0.375
 49
0.25
 49
-0.125
  0
LTYPE
  2
DOT
 70
    64
  3
...............................................
 72
    65
 73
     2
 40
0.25
 49
0.0
 49
-0.25
  0
LTYPE
  2
BORDER
 70
    64
  3
__ __ . __ __ . __ __ . __ __ . __ __ . __ __
 72
    65
 73
     6
 40
1.75
 49
0.5
 49
-0.25
 49
0.5
 49
-0.25
 49
0.0
 49
-0.25
  0
LTYPE
  2
CENTER
 70
    64
  3
____ _ ____ _ ____ _ ____ _ ____ _ ____ _ ____
 72
    65
 73
     4
 40
2.0
 49
1.25
 49
-0.25
 49
0.25
 49
-0.25
  0
LTYPE
  2
DIVIDE
 70
    64
  3
__ . . __ . . __ . . __ . . __ . . __ . . __
 72
    65
 73
     6
 40
1.25
 49
0.5
 49
-0.25
 49
0.0
 49
-0.25
 49
0.0
 49
-0.25
  0
ENDTAB
  0
TABLE
  2
LAYER
 70
    6
  0
LAYER
  2
0
 70
     0
 62
     7
  6
CONTINUOUS
  0
LAYER
  2
BORDER
 70
     0
 62
     7
  6
CONTINUOUS
  0
LAYER
  2
FS_OBJECT
 70
     0
 62
     7
  6
CONTINUOUS
  0
LAYER
  2
ICON
 70
     0
 62
     7
  6
CONTINUOUS
  0
LAYER
  2
PFD_OBJECT
 70
     0
 62
     7
  6
CONTINUOUS
  0
LAYER
  2
XY_PLOT
 70
     0
 62
     7
  6
CONTINUOUS
  0
ENDTAB
  0
TABLE
  2
STYLE
 70
     1
  0
STYLE
  2
STANDARD
 70
     0
 40
0.0
 41
1.0
 50
0.0
 71
     0
 42
0.2
  3
MONOTXT
  4

  0
ENDTAB
  0
TABLE
  2
VIEW
 70
     0
  0
ENDTAB
  0
ENDSEC
  0
SECTION
  2
BLOCKS
  0
ENDSEC
  0
SECTION
  2
ENTITIES
  0
LINE
  8
FS_OBJECT
  6
CONTINUOUS
 62
     7
 10
7920.0
 20
6719.0
 11
7928.0
 21
6719.0
  0
LINE
  8
FS_OBJECT
  6
CONTINUOUS
 62
     7
 10
7853.0
 20
6726.0
 11
7901.0
 21
6726.0
  0
LINE
  8
FS_OBJECT
  6
CONTINUOUS
 62
     7
 10
7901.0
 20
6726.0
 11
7901.0
 21
6732.0
  0
LINE
  8
FS_OBJECT
  6
CONTINUOUS
 62
     7
 10
7901.0
 20
6732.0
 11
7920.0
 21
6719.0
  0
LINE
  8
FS_OBJECT
  6
CONTINUOUS
 62
     7
 10
7920.0
 20
6719.0
 11
7901.0
 21
6707.0
  0
LINE
  8
FS_OBJECT
  6
CONTINUOUS
 62
     7
 10
7901.0
 20
6707.0
 11
7901.0
 21
6713.0
  0
LINE
  8
FS_OBJECT
  6
CONTINUOUS
 62
     7
 10
7901.0
 20
6713.0
 11
7853.0
 21
6713.0
  0
LINE
  8
FS_OBJECT
  6
CONTINUOUS
 62
     7
 10
7853.0
 20
6713.0
 11
7853.0
 21
6726.0
  0
LINE
  8
FS_OBJECT
  6
CONTINUOUS
 62
     7
 10
7921.0
 20
6646.0
 11
7929.0
 21
6646.0
  0
LINE
  8
FS_OBJECT
  6
CONTINUOUS
 62
     7
 10
7854.0
 20
6653.0
 11
7902.0
 21
6653.0
  0
LINE
  8
FS_OBJECT
  6
CONTINUOUS
 62
     7
 10
7902.0
 20
6653.0
 11
7902.0
 21
6659.0
  0
LINE
  8
FS_OBJECT
  6
CONTINUOUS
 62
     7
 10
7902.0
 20
6659.0
 11
7921.0
 21
6646.0
  0
LINE
  8
FS_OBJECT
  6
CONTINUOUS
 62
     7
 10
7921.0
 20
6646.0
 11
7902.0
 21
6634.0
  0
LINE
  8
FS_OBJECT
  6
CONTINUOUS
 62
     7
 10
7902.0
 20
6634.0
 11
7902.0
 21
6640.0
  0
LINE
  8
FS_OBJECT
  6
CONTINUOUS
 62
     7
 10
7902.0
 20
6640.0
 11
7854.0
 21
6640.0
  0
LINE
  8
FS_OBJECT
  6
CONTINUOUS
 62
     7
 10
7854.0
 20
6640.0
 11
7854.0
 21
6653.0
  0
LINE
  8
FS_OBJECT
  6
CONTINUOUS
 62
     7
 10
7920.0
 20
6380.0
 11
7928.0
 21
6380.0
  0
LINE
  8
FS_OBJECT
  6
CONTINUOUS
 62
     7
 10
7853.0
 20
6387.0
 11
7901.0
 21
6387.0
  0
LINE
  8
FS_OBJECT
  6
CONTINUOUS
 62
     7
 10
7901.0
 20
6387.0
 11
7901.0
 21
6393.0
  0
LINE
  8
FS_OBJECT
  6
CONTINUOUS
 62
     7
 10
7901.0
 20
6393.0
 11
7920.0
 21
6380.0
  0
LINE
  8
FS_OBJECT
  6
CONTINUOUS
 62
     7
 10
7920.0
 20
6380.0
 11
7901.0
 21
6368.0
  0
LINE
  8
FS_OBJECT
  6
CONTINUOUS
 62
     7
 10
7901.0
 20
6368.0
 11
7901.0
 21
6374.0
  0
LINE
  8
FS_OBJECT
  6
CONTINUOUS
 62
     7
 10
7901.0
 20
6374.0
 11
7853.0
 21
6374.0
  0
LINE
  8
FS_OBJECT
  6
CONTINUOUS
 62
     7
 10
7853.0
 20
6374.0
 11
7853.0
 21
6387.0
  0
LINE
  8
FS_OBJECT
  6
CONTINUOUS
 62
     7
 10
8073.0
 20
6660.0
 11
8101.0
 21
6660.0
  0
LINE
  8
FS_OBJECT
  6
CONTINUOUS
 62
     7
 10
8101.0
 20
6660.0
 11
8101.0
 21
6632.0
  0
LINE
  8
FS_OBJECT
  6
CONTINUOUS
 62
     7
 10
8101.0
 20
6632.0
 11
8073.0
 21
6632.0
  0
LINE
  8
FS_OBJECT
  6
CONTINUOUS
 62
     7
 10
8073.0
 20
6632.0
 11
8073.0
 21
6660.0
  0
LINE
  8
FS_OBJECT
  6
CONTINUOUS
 62
     7
 10
8073.0
 20
6660.0
 11
8101.0
 21
6632.0
  0
LINE
  8
FS_OBJECT
  6
CONTINUOUS
 62
     7
 10
8101.0
 20
6660.0
 11
8073.0
 21
6632.0
  0
CIRCLE
  8
FS_OBJECT
 62
     7
 10
8060.0
 20
6673.0
 40
13.0
  0
TEXT
  8
FS_OBJECT
 62
     7
 10
8058.60
 20
6671.25
 40
6.50
  1
1
 41
0.74
  0
LINE
  8
FS_OBJECT
  6
CONTINUOUS
 62
     7
 10
8347.0
 20
6610.0
 11
8380.0
 21
6610.0
  0
LINE
  8
FS_OBJECT
  6
CONTINUOUS
 62
     7
 10
8380.0
 20
6610.0
 11
8369.0
 21
6626.0
  0
LINE
  8
FS_OBJECT
  6
CONTINUOUS
 62
     7
 10
8369.0
 20
6626.0
 11
8330.0
 21
6626.0
  0
LINE
  8
FS_OBJECT
  6
CONTINUOUS
 62
     7
 10
8330.0
 20
6626.0
 11
8319.0
 21
6610.0
  0
LINE
  8
FS_OBJECT
  6
CONTINUOUS
 62
     7
 10
8319.0
 20
6610.0
 11
8347.0
 21
6610.0
  0
CIRCLE
  8
FS_OBJECT
 62
     7
 10
8350.0
 20
6646.0
 40
28.0
  0
LINE
  8
FS_OBJECT
  6
CONTINUOUS
 62
     7
 10
8351.0
 20
6672.0
 11
8383.0
 21
6672.0
  0
LINE
  8
FS_OBJECT
  6
CONTINUOUS
 62
     7
 10
8383.0
 20
6672.0
 11
8371.0
 21
6669.0
  0
LINE
  8
FS_OBJECT
  6
CONTINUOUS
 62
     7
 10
8371.0
 20
6669.0
 11
8371.0
 21
6675.0
  0
LINE
  8
FS_OBJECT
  6
CONTINUOUS
 62
     7
 10
8371.0
 20
6675.0
 11
8383.0
 21
6672.0
  0
CIRCLE
  8
FS_OBJECT
 62
     7
 10
8307.0
 20
6687.0
 40
13.0
  0
TEXT
  8
FS_OBJECT
 62
     7
 10
8305.60
 20
6685.25
 40
6.50
  1
2
 41
0.74
  0
LINE
  8
FS_OBJECT
  6
CONTINUOUS
 62
     7
 10
8538.0
 20
6686.0
 11
8566.0
 21
6686.0
  0
LINE
  8
FS_OBJECT
  6
CONTINUOUS
 62
     7
 10
8566.0
 20
6686.0
 11
8566.0
 21
6658.0
  0
LINE
  8
FS_OBJECT
  6
CONTINUOUS
 62
     7
 10
8566.0
 20
6658.0
 11
8538.0
 21
6658.0
  0
LINE
  8
FS_OBJECT
  6
CONTINUOUS
 62
     7
 10
8538.0
 20
6658.0
 11
8538.0
 21
6686.0
  0
LINE
  8
FS_OBJECT
  6
CONTINUOUS
 62
     7
 10
8538.0
 20
6686.0
 11
8566.0
 21
6658.0
  0
LINE
  8
FS_OBJECT
  6
CONTINUOUS
 62
     7
 10
8566.0
 20
6686.0
 11
8538.0
 21
6658.0
  0
CIRCLE
  8
FS_OBJECT
 62
     7
 10
8525.0
 20
6699.0
 40
13.0
  0
TEXT
  8
FS_OBJECT
 62
     7
 10
8523.60
 20
6697.25
 40
6.50
  1
3
 41
0.74
  0
LINE
  8
FS_OBJECT
  6
CONTINUOUS
 62
     7
 10
8057.0
 20
6344.0
 11
8090.0
 21
6344.0
  0
LINE
  8
FS_OBJECT
  6
CONTINUOUS
 62
     7
 10
8090.0
 20
6344.0
 11
8079.0
 21
6360.0
  0
LINE
  8
FS_OBJECT
  6
CONTINUOUS
 62
     7
 10
8079.0
 20
6360.0
 11
8040.0
 21
6360.0
  0
LINE
  8
FS_OBJECT
  6
CONTINUOUS
 62
     7
 10
8040.0
 20
6360.0
 11
8029.0
 21
6344.0
  0
LINE
  8
FS_OBJECT
  6
CONTINUOUS
 62
     7
 10
8029.0
 20
6344.0
 11
8057.0
 21
6344.0
  0
CIRCLE
  8
FS_OBJECT
 62
     7
 10
8060.0
 20
6380.0
 40
28.0
  0
LINE
  8
FS_OBJECT
  6
CONTINUOUS
 62
     7
 10
8061.0
 20
6406.0
 11
8093.0
 21
6406.0
  0
LINE
  8
FS_OBJECT
  6
CONTINUOUS
 62
     7
 10
8093.0
 20
6406.0
 11
8081.0
 21
6403.0
  0
LINE
  8
FS_OBJECT
  6
CONTINUOUS
 62
     7
 10
8081.0
 20
6403.0
 11
8081.0
 21
6409.0
  0
LINE
  8
FS_OBJECT
  6
CONTINUOUS
 62
     7
 10
8081.0
 20
6409.0
 11
8093.0
 21
6406.0
  0
LINE
  8
FS_OBJECT
  6
CONTINUOUS
 62
     7
 10
8578.0
 20
6420.0
 11
8606.0
 21
6420.0
  0
LINE
  8
FS_OBJECT
  6
CONTINUOUS
 62
     7
 10
8606.0
 20
6420.0
 11
8606.0
 21
6392.0
  0
LINE
  8
FS_OBJECT
  6
CONTINUOUS
 62
     7
 10
8606.0
 20
6392.0
 11
8578.0
 21
6392.0
  0
LINE
  8
FS_OBJECT
  6
CONTINUOUS
 62
     7
 10
8578.0
 20
6392.0
 11
8578.0
 21
6420.0
  0
LINE
  8
FS_OBJECT
  6
CONTINUOUS
 62
     7
 10
8578.0
 20
6420.0
 11
8606.0
 21
6392.0
  0
LINE
  8
FS_OBJECT
  6
CONTINUOUS
 62
     7
 10
8606.0
 20
6420.0
 11
8578.0
 21
6392.0
  0
CIRCLE
  8
FS_OBJECT
 62
     7
 10
8306.0
 20
6407.0
 40
29.0
  0
LINE
  8
FS_OBJECT
  6
CONTINUOUS
 62
     7
 10
8273.0
 20
6375.0
 11
8318.0
 21
6406.0
  0
LINE
  8
FS_OBJECT
  6
CONTINUOUS
 62
     7
 10
8318.0
 20
6406.0
 11
8295.0
 21
6406.0
  0
LINE
  8
FS_OBJECT
  6
CONTINUOUS
 62
     7
 10
8295.0
 20
6406.0
 11
8340.0
 21
6438.0
  0
LINE
  8
FS_OBJECT
  6
CONTINUOUS
 62
     7
 10
8340.0
 20
6438.0
 11
8332.0
 21
6429.0
  0
LINE
  8
FS_OBJECT
  6
CONTINUOUS
 62
     7
 10
8332.0
 20
6429.0
 11
8328.0
 21
6433.0
  0
LINE
  8
FS_OBJECT
  6
CONTINUOUS
 62
     7
 10
8328.0
 20
6433.0
 11
8340.0
 21
6438.0
  0
CIRCLE
  8
FS_OBJECT
 62
     7
 10
8017.0
 20
6421.0
 40
13.0
  0
TEXT
  8
FS_OBJECT
 62
     7
 10
8012.60
 20
6419.25
 40
6.50
  1
10
 41
0.83
  0
CIRCLE
  8
FS_OBJECT
 62
     7
 10
8260.0
 20
6451.0
 40
13.0
  0
TEXT
  8
FS_OBJECT
 62
     7
 10
8255.60
 20
6449.25
 40
6.50
  1
11
 41
0.83
  0
CIRCLE
  8
FS_OBJECT
 62
     7
 10
8565.0
 20
6433.0
 40
13.0
  0
TEXT
  8
FS_OBJECT
 62
     7
 10
8560.60
 20
6431.25
 40
6.50
  1
13
 41
0.83
  0
LINE
  8
FS_OBJECT
  6
CONTINUOUS
 62
     7
 10
8031.0
 20
6380.0
 11
8019.0
 21
6377.0
  0
LINE
  8
FS_OBJECT
  6
CONTINUOUS
 62
     7
 10
8019.0
 20
6377.0
 11
8019.0
 21
6383.0
  0
LINE
  8
FS_OBJECT
  6
CONTINUOUS
 62
     7
 10
8019.0
 20
6383.0
 11
8031.0
 21
6380.0
  0
LINE
  8
FS_OBJECT
  6
CONTINUOUS
 62
     7
 10
7920.0
 20
6380.0
 11
7982.0
 21
6380.0
  0
LINE
  8
FS_OBJECT
  6
CONTINUOUS
 62
     7
 10
7982.0
 20
6380.0
 11
7982.0
 21
6380.0
  0
LINE
  8
FS_OBJECT
  6
CONTINUOUS
 62
     7
 10
7982.0
 20
6380.0
 11
8032.0
 21
6380.0
  0
LINE
  8
FS_OBJECT
  6
CONTINUOUS
 62
     7
 10
7962.0
 20
6390.0
 11
7983.0
 21
6390.0
  0
LINE
  8
FS_OBJECT
  6
CONTINUOUS
 62
     7
 10
7983.0
 20
6390.0
 11
7983.0
 21
6367.0
  0
LINE
  8
FS_OBJECT
  6
CONTINUOUS
 62
     7
 10
7983.0
 20
6367.0
 11
7962.0
 21
6367.0
  0
LINE
  8
FS_OBJECT
  6
CONTINUOUS
 62
     7
 10
7962.0
 20
6367.0
 11
7962.0
 21
6390.0
  0
TEXT
  8
FS_OBJECT
 62
     7
 10
7971.60
 20
6377.25
 40
6.50
  1
1
 41
0.74
  0
LINE
  8
FS_OBJECT
  6
CONTINUOUS
 62
     7
 10
8277.0
 20
6407.0
 11
8265.0
 21
6404.0
  0
LINE
  8
FS_OBJECT
  6
CONTINUOUS
 62
     7
 10
8265.0
 20
6404.0
 11
8265.0
 21
6410.0
  0
LINE
  8
FS_OBJECT
  6
CONTINUOUS
 62
     7
 10
8265.0
 20
6410.0
 11
8277.0
 21
6407.0
  0
LINE
  8
FS_OBJECT
  6
CONTINUOUS
 62
     7
 10
8092.0
 20
6406.0
 11
8190.0
 21
6406.0
  0
LINE
  8
FS_OBJECT
  6
CONTINUOUS
 62
     7
 10
8190.0
 20
6406.0
 11
8190.0
 21
6406.0
  0
LINE
  8
FS_OBJECT
  6
CONTINUOUS
 62
     7
 10
8190.0
 20
6406.0
 11
8277.0
 21
6406.0
  0
LINE
  8
FS_OBJECT
  6
CONTINUOUS
 62
     7
 10
8125.0
 20
6415.0
 11
8147.0
 21
6415.0
  0
LINE
  8
FS_OBJECT
  6
CONTINUOUS
 62
     7
 10
8147.0
 20
6415.0
 11
8147.0
 21
6392.0
  0
LINE
  8
FS_OBJECT
  6
CONTINUOUS
 62
     7
 10
8147.0
 20
6392.0
 11
8125.0
 21
6392.0
  0
LINE
  8
FS_OBJECT
  6
CONTINUOUS
 62
     7
 10
8125.0
 20
6392.0
 11
8125.0
 21
6415.0
  0
TEXT
  8
FS_OBJECT
 62
     7
 10
8134.60
 20
6402.25
 40
6.50
  1
2
 41
0.74
  0
LINE
  8
FS_OBJECT
  6
CONTINUOUS
 62
     7
 10
8321.0
 20
6646.0
 11
8309.0
 21
6643.0
  0
LINE
  8
FS_OBJECT
  6
CONTINUOUS
 62
     7
 10
8309.0
 20
6643.0
 11
8309.0
 21
6649.0
  0
LINE
  8
FS_OBJECT
  6
CONTINUOUS
 62
     7
 10
8309.0
 20
6649.0
 11
8321.0
 21
6646.0
  0
LINE
  8
FS_OBJECT
  6
CONTINUOUS
 62
     7
 10
8101.0
 20
6646.0
 11
8219.0
 21
6646.0
  0
LINE
  8
FS_OBJECT
  6
CONTINUOUS
 62
     7
 10
8219.0
 20
6646.0
 11
8219.0
 21
6646.0
  0
LINE
  8
FS_OBJECT
  6
CONTINUOUS
 62
     7
 10
8219.0
 20
6646.0
 11
8322.0
 21
6646.0
  0
LINE
  8
FS_OBJECT
  6
CONTINUOUS
 62
     7
 10
8143.0
 20
6655.0
 11
8164.0
 21
6655.0
  0
LINE
  8
FS_OBJECT
  6
CONTINUOUS
 62
     7
 10
8164.0
 20
6655.0
 11
8164.0
 21
6632.0
  0
LINE
  8
FS_OBJECT
  6
CONTINUOUS
 62
     7
 10
8164.0
 20
6632.0
 11
8143.0
 21
6632.0
  0
LINE
  8
FS_OBJECT
  6
CONTINUOUS
 62
     7
 10
8143.0
 20
6632.0
 11
8143.0
 21
6655.0
  0
TEXT
  8
FS_OBJECT
 62
     7
 10
8152.60
 20
6642.25
 40
6.50
  1
3
 41
0.74
  0
LINE
  8
FS_OBJECT
  6
CONTINUOUS
 62
     7
 10
8538.0
 20
6672.0
 11
8526.0
 21
6669.0
  0
LINE
  8
FS_OBJECT
  6
CONTINUOUS
 62
     7
 10
8526.0
 20
6669.0
 11
8526.0
 21
6675.0
  0
LINE
  8
FS_OBJECT
  6
CONTINUOUS
 62
     7
 10
8526.0
 20
6675.0
 11
8538.0
 21
6672.0
  0
LINE
  8
FS_OBJECT
  6
CONTINUOUS
 62
     7
 10
8382.0
 20
6672.0
 11
8466.0
 21
6672.0
  0
LINE
  8
FS_OBJECT
  6
CONTINUOUS
 62
     7
 10
8466.0
 20
6672.0
 11
8466.0
 21
6672.0
  0
LINE
  8
FS_OBJECT
  6
CONTINUOUS
 62
     7
 10
8466.0
 20
6672.0
 11
8538.0
 21
6672.0
  0
LINE
  8
FS_OBJECT
  6
CONTINUOUS
 62
     7
 10
8414.0
 20
6681.0
 11
8436.0
 21
6681.0
  0
LINE
  8
FS_OBJECT
  6
CONTINUOUS
 62
     7
 10
8436.0
 20
6681.0
 11
8436.0
 21
6658.0
  0
LINE
  8
FS_OBJECT
  6
CONTINUOUS
 62
     7
 10
8436.0
 20
6658.0
 11
8414.0
 21
6658.0
  0
LINE
  8
FS_OBJECT
  6
CONTINUOUS
 62
     7
 10
8414.0
 20
6658.0
 11
8414.0
 21
6681.0
  0
TEXT
  8
FS_OBJECT
 62
     7
 10
8423.60
 20
6668.25
 40
6.50
  1
4
 41
0.74
  0
LINE
  8
FS_OBJECT
  6
CONTINUOUS
 62
     7
 10
8592.0
 20
6420.0
 11
8589.0
 21
6432.0
  0
LINE
  8
FS_OBJECT
  6
CONTINUOUS
 62
     7
 10
8589.0
 20
6432.0
 11
8595.0
 21
6432.0
  0
LINE
  8
FS_OBJECT
  6
CONTINUOUS
 62
     7
 10
8595.0
 20
6432.0
 11
8592.0
 21
6420.0
  0
LINE
  8
FS_OBJECT
  6
CONTINUOUS
 62
     7
 10
8566.0
 20
6672.0
 11
8592.0
 21
6672.0
  0
LINE
  8
FS_OBJECT
  6
CONTINUOUS
 62
     7
 10
8592.0
 20
6672.0
 11
8592.0
 21
6420.0
  0
LINE
  8
FS_OBJECT
  6
CONTINUOUS
 62
     7
 10
8575.0
 20
6578.0
 11
8596.0
 21
6578.0
  0
LINE
  8
FS_OBJECT
  6
CONTINUOUS
 62
     7
 10
8596.0
 20
6578.0
 11
8596.0
 21
6555.0
  0
LINE
  8
FS_OBJECT
  6
CONTINUOUS
 62
     7
 10
8596.0
 20
6555.0
 11
8575.0
 21
6555.0
  0
LINE
  8
FS_OBJECT
  6
CONTINUOUS
 62
     7
 10
8575.0
 20
6555.0
 11
8575.0
 21
6578.0
  0
TEXT
  8
FS_OBJECT
 62
     7
 10
8584.60
 20
6565.25
 40
6.50
  1
5
 41
0.74
  0
LINE
  8
FS_OBJECT
  6
CONTINUOUS
 62
     7
 10
8578.0
 20
6406.0
 11
8566.0
 21
6403.0
  0
LINE
  8
FS_OBJECT
  6
CONTINUOUS
 62
     7
 10
8566.0
 20
6403.0
 11
8566.0
 21
6409.0
  0
LINE
  8
FS_OBJECT
  6
CONTINUOUS
 62
     7
 10
8566.0
 20
6409.0
 11
8578.0
 21
6406.0
  0
LINE
  8
FS_OBJECT
  6
CONTINUOUS
 62
     7
 10
8336.0
 20
6406.0
 11
8458.0
 21
6406.0
  0
LINE
  8
FS_OBJECT
  6
CONTINUOUS
 62
     7
 10
8458.0
 20
6406.0
 11
8458.0
 21
6406.0
  0
LINE
  8
FS_OBJECT
  6
CONTINUOUS
 62
     7
 10
8458.0
 20
6406.0
 11
8578.0
 21
6406.0
  0
LINE
  8
FS_OBJECT
  6
CONTINUOUS
 62
     7
 10
8388.0
 20
6415.0
 11
8409.0
 21
6415.0
  0
LINE
  8
FS_OBJECT
  6
CONTINUOUS
 62
     7
 10
8409.0
 20
6415.0
 11
8409.0
 21
6392.0
  0
LINE
  8
FS_OBJECT
  6
CONTINUOUS
 62
     7
 10
8409.0
 20
6392.0
 11
8388.0
 21
6392.0
  0
LINE
  8
FS_OBJECT
  6
CONTINUOUS
 62
     7
 10
8388.0
 20
6392.0
 11
8388.0
 21
6415.0
  0
TEXT
  8
FS_OBJECT
 62
     7
 10
8397.60
 20
6402.25
 40
6.50
  1
6
 41
0.74
  0
LINE
  8
FS_OBJECT
  6
CONTINUOUS
 62
     7
 10
8087.0
 20
6660.0
 11
8084.0
 21
6672.0
  0
LINE
  8
FS_OBJECT
  6
CONTINUOUS
 62
     7
 10
8084.0
 20
6672.0
 11
8090.0
 21
6672.0
  0
LINE
  8
FS_OBJECT
  6
CONTINUOUS
 62
     7
 10
8090.0
 20
6672.0
 11
8087.0
 21
6660.0
  0
LINE
  8
FS_OBJECT
  6
CONTINUOUS
 62
     7
 10
7920.0
 20
6719.0
 11
8087.0
 21
6719.0
  0
LINE
  8
FS_OBJECT
  6
CONTINUOUS
 62
     7
 10
8087.0
 20
6719.0
 11
8087.0
 21
6660.0
  0
LINE
  8
FS_OBJECT
  6
CONTINUOUS
 62
     7
 10
8073.0
 20
6646.0
 11
8061.0
 21
6643.0
  0
LINE
  8
FS_OBJECT
  6
CONTINUOUS
 62
     7
 10
8061.0
 20
6643.0
 11
8061.0
 21
6649.0
  0
LINE
  8
FS_OBJECT
  6
CONTINUOUS
 62
     7
 10
8061.0
 20
6649.0
 11
8073.0
 21
6646.0
  0
LINE
  8
FS_OBJECT
  6
CONTINUOUS
 62
     7
 10
7921.0
 20
6646.0
 11
8000.0
 21
6646.0
  0
LINE
  8
FS_OBJECT
  6
CONTINUOUS
 62
     7
 10
8000.0
 20
6646.0
 11
8000.0
 21
6646.0
  0
LINE
  8
FS_OBJECT
  6
CONTINUOUS
 62
     7
 10
8000.0
 20
6646.0
 11
8073.0
 21
6646.0
  0
LINE
  8
FS_OBJECT
  6
CONTINUOUS
 62
     7
 10
7973.0
 20
6728.0
 11
8002.0
 21
6728.0
  0
LINE
  8
FS_OBJECT
  6
CONTINUOUS
 62
     7
 10
8002.0
 20
6728.0
 11
8002.0
 21
6705.0
  0
LINE
  8
FS_OBJECT
  6
CONTINUOUS
 62
     7
 10
8002.0
 20
6705.0
 11
7973.0
 21
6705.0
  0
LINE
  8
FS_OBJECT
  6
CONTINUOUS
 62
     7
 10
7973.0
 20
6705.0
 11
7973.0
 21
6728.0
  0
TEXT
  8
FS_OBJECT
 62
     7
 10
7979.60
 20
6714.25
 40
6.50
  1
101
 41
0.96
  0
TEXT
  8
FS_OBJECT
 62
     7
 10
7857.80
 20
6749.00
 40
12.00
  1
Alcohol
 41
1.22
  0
TEXT
  8
FS_OBJECT
 62
     7
 10
7859.80
 20
6671.00
 40
12.00
  1
H2SO4
 41
1.17
  0
TEXT
  8
FS_OBJECT
 62
     7
 10
7866.80
 20
6410.00
 40
12.00
  1
Oil
 41
1.07
  0
ARC
  8
FS_OBJECT
 62
     7
 10
8814.00
 20
6344.0
 40
10.00
 50
0.0
 51
53.13
  0
ARC
  8
FS_OBJECT
 62
     7
 10
8784.0
 20
6304.0
 40
60.00
 50
53.13
 51
90.0
  0
ARC
  8
FS_OBJECT
 62
     7
 10
8784.0
 20
6304.0
 40
60.00
 50
90.0
 51
126.87
  0
ARC
  8
FS_OBJECT
 62
     7
 10
8754.00
 20
6344.0
 40
10.00
 50
126.87
 51
180.0
  0
ARC
  8
FS_OBJECT
 62
     7
 10
8754.00
 20
6344.0
 40
10.00
 50
180.0
 51
233.13
  0
ARC
  8
FS_OBJECT
 62
     7
 10
8784.0
 20
6384.0
 40
60.00
 50
233.13
 51
270.0
  0
ARC
  8
FS_OBJECT
 62
     7
 10
8784.0
 20
6384.0
 40
60.00
 50
270.0
 51
306.87
  0
ARC
  8
FS_OBJECT
 62
     7
 10
8814.00
 20
6344.0
 40
10.00
 50
306.87
 51
0.0
  0
ARC
  8
FS_OBJECT
 62
     7
 10
8814.00
 20
6222.0
 40
10.00
 50
0.0
 51
53.13
  0
ARC
  8
FS_OBJECT
 62
     7
 10
8784.0
 20
6182.0
 40
60.00
 50
53.13
 51
90.0
  0
ARC
  8
FS_OBJECT
 62
     7
 10
8784.0
 20
6182.0
 40
60.00
 50
90.0
 51
126.87
  0
ARC
  8
FS_OBJECT
 62
     7
 10
8754.00
 20
6222.0
 40
10.00
 50
126.87
 51
180.0
  0
ARC
  8
FS_OBJECT
 62
     7
 10
8754.00
 20
6222.0
 40
10.00
 50
180.0
 51
233.13
  0
ARC
  8
FS_OBJECT
 62
     7
 10
8784.0
 20
6262.0
 40
60.00
 50
233.13
 51
270.0
  0
ARC
  8
FS_OBJECT
 62
     7
 10
8784.0
 20
6262.0
 40
60.00
 50
270.0
 51
306.87
  0
ARC
  8
FS_OBJECT
 62
     7
 10
8814.00
 20
6222.0
 40
10.00
 50
306.87
 51
0.0
  0
LINE
  8
FS_OBJECT
  6
CONTINUOUS
 62
     7
 10
8744.0
 20
6343.0
 11
8825.0
 21
6343.0
  0
LINE
  8
FS_OBJECT
  6
CONTINUOUS
 62
     7
 10
8825.0
 20
6343.0
 11
8825.0
 21
6222.0
  0
LINE
  8
FS_OBJECT
  6
CONTINUOUS
 62
     7
 10
8825.0
 20
6222.0
 11
8744.0
 21
6222.0
  0
LINE
  8
FS_OBJECT
  6
CONTINUOUS
 62
     7
 10
8744.0
 20
6222.0
 11
8744.0
 21
6343.0
  0
LINE
  8
FS_OBJECT
  6
CONTINUOUS
 62
     7
 10
8744.0
 20
6343.0
 11
8825.0
 21
6222.0
  0
LINE
  8
FS_OBJECT
  6
CONTINUOUS
 62
     7
 10
8744.0
 20
6222.0
 11
8825.0
 21
6343.0
  0
LINE
  8
FS_OBJECT
  6
CONTINUOUS
 62
     7
 10
8784.0
 20
6364.0
 11
8781.0
 21
6376.0
  0
LINE
  8
FS_OBJECT
  6
CONTINUOUS
 62
     7
 10
8781.0
 20
6376.0
 11
8787.0
 21
6376.0
  0
LINE
  8
FS_OBJECT
  6
CONTINUOUS
 62
     7
 10
8787.0
 20
6376.0
 11
8784.0
 21
6364.0
  0
LINE
  8
FS_OBJECT
  6
CONTINUOUS
 62
     7
 10
8606.0
 20
6406.0
 11
8785.0
 21
6406.0
  0
LINE
  8
FS_OBJECT
  6
CONTINUOUS
 62
     7
 10
8785.0
 20
6406.0
 11
8785.0
 21
6364.0
  0
LINE
  8
FS_OBJECT
  6
CONTINUOUS
 62
     7
 10
8686.0
 20
6415.0
 11
8707.0
 21
6415.0
  0
LINE
  8
FS_OBJECT
  6
CONTINUOUS
 62
     7
 10
8707.0
 20
6415.0
 11
8707.0
 21
6392.0
  0
LINE
  8
FS_OBJECT
  6
CONTINUOUS
 62
     7
 10
8707.0
 20
6392.0
 11
8686.0
 21
6392.0
  0
LINE
  8
FS_OBJECT
  6
CONTINUOUS
 62
     7
 10
8686.0
 20
6392.0
 11
8686.0
 21
6415.0
  0
TEXT
  8
FS_OBJECT
 62
     7
 10
8692.60
 20
6401.25
 40
6.50
  1
15
 41
0.83
  0
CIRCLE
  8
FS_OBJECT
 62
     7
 10
8731.0
 20
6383.0
 40
13.0
  0
TEXT
  8
FS_OBJECT
 62
     7
 10
8726.60
 20
6381.25
 40
6.50
  1
12
 41
0.83
  0
CIRCLE
  8
FS_OBJECT
 62
     7
 10
9201.0
 20
6524.0
 40
16.0
  0
LINE
  8
FS_OBJECT
  6
CONTINUOUS
 62
     7
 10
9194.0
 20
6524.0
 11
9220.0
 21
6542.0
  0
LINE
  8
FS_OBJECT
  6
CONTINUOUS
 62
     7
 10
9220.0
 20
6542.0
 11
9212.0
 21
6533.0
  0
LINE
  8
FS_OBJECT
  6
CONTINUOUS
 62
     7
 10
9212.0
 20
6533.0
 11
9208.0
 21
6538.0
  0
LINE
  8
FS_OBJECT
  6
CONTINUOUS
 62
     7
 10
9208.0
 20
6538.0
 11
9220.0
 21
6542.0
  0
LINE
  8
FS_OBJECT
  6
CONTINUOUS
 62
     7
 10
9120.0
 20
6497.0
 11
9122.0
 21
6501.0
  0
LINE
  8
FS_OBJECT
  6
CONTINUOUS
 62
     7
 10
9122.0
 20
6501.0
 11
9124.0
 21
6503.0
  0
LINE
  8
FS_OBJECT
  6
CONTINUOUS
 62
     7
 10
9124.0
 20
6503.0
 11
9125.0
 21
6504.0
  0
LINE
  8
FS_OBJECT
  6
CONTINUOUS
 62
     7
 10
9125.0
 20
6504.0
 11
9131.0
 21
6507.0
  0
LINE
  8
FS_OBJECT
  6
CONTINUOUS
 62
     7
 10
9131.0
 20
6507.0
 11
9136.0
 21
6508.0
  0
LINE
  8
FS_OBJECT
  6
CONTINUOUS
 62
     7
 10
9136.0
 20
6508.0
 11
9142.0
 21
6509.0
  0
LINE
  8
FS_OBJECT
  6
CONTINUOUS
 62
     7
 10
9142.0
 20
6509.0
 11
9147.0
 21
6509.0
  0
LINE
  8
FS_OBJECT
  6
CONTINUOUS
 62
     7
 10
9147.0
 20
6509.0
 11
9153.0
 21
6509.0
  0
LINE
  8
FS_OBJECT
  6
CONTINUOUS
 62
     7
 10
9153.0
 20
6509.0
 11
9158.0
 21
6508.0
  0
LINE
  8
FS_OBJECT
  6
CONTINUOUS
 62
     7
 10
9158.0
 20
6508.0
 11
9164.0
 21
6507.0
  0
LINE
  8
FS_OBJECT
  6
CONTINUOUS
 62
     7
 10
9164.0
 20
6507.0
 11
9169.0
 21
6504.0
  0
LINE
  8
FS_OBJECT
  6
CONTINUOUS
 62
     7
 10
9169.0
 20
6504.0
 11
9171.0
 21
6503.0
  0
LINE
  8
FS_OBJECT
  6
CONTINUOUS
 62
     7
 10
9171.0
 20
6503.0
 11
9173.0
 21
6500.0
  0
LINE
  8
FS_OBJECT
  6
CONTINUOUS
 62
     7
 10
9173.0
 20
6500.0
 11
9175.0
 21
6497.0
  0
LINE
  8
FS_OBJECT
  6
CONTINUOUS
 62
     7
 10
9175.0
 20
6497.0
 11
9175.0
 21
6254.0
  0
LINE
  8
FS_OBJECT
  6
CONTINUOUS
 62
     7
 10
9175.0
 20
6254.0
 11
9174.0
 21
6252.0
  0
LINE
  8
FS_OBJECT
  6
CONTINUOUS
 62
     7
 10
9174.0
 20
6252.0
 11
9173.0
 21
6250.0
  0
LINE
  8
FS_OBJECT
  6
CONTINUOUS
 62
     7
 10
9173.0
 20
6250.0
 11
9169.0
 21
6247.0
  0
LINE
  8
FS_OBJECT
  6
CONTINUOUS
 62
     7
 10
9169.0
 20
6247.0
 11
9163.0
 21
6244.0
  0
LINE
  8
FS_OBJECT
  6
CONTINUOUS
 62
     7
 10
9163.0
 20
6244.0
 11
9158.0
 21
6243.0
  0
LINE
  8
FS_OBJECT
  6
CONTINUOUS
 62
     7
 10
9158.0
 20
6243.0
 11
9153.0
 21
6242.0
  0
LINE
  8
FS_OBJECT
  6
CONTINUOUS
 62
     7
 10
9153.0
 20
6242.0
 11
9147.0
 21
6242.0
  0
LINE
  8
FS_OBJECT
  6
CONTINUOUS
 62
     7
 10
9147.0
 20
6242.0
 11
9141.0
 21
6242.0
  0
LINE
  8
FS_OBJECT
  6
CONTINUOUS
 62
     7
 10
9141.0
 20
6242.0
 11
9136.0
 21
6243.0
  0
LINE
  8
FS_OBJECT
  6
CONTINUOUS
 62
     7
 10
9136.0
 20
6243.0
 11
9131.0
 21
6244.0
  0
LINE
  8
FS_OBJECT
  6
CONTINUOUS
 62
     7
 10
9131.0
 20
6244.0
 11
9129.0
 21
6245.0
  0
LINE
  8
FS_OBJECT
  6
CONTINUOUS
 62
     7
 10
9129.0
 20
6245.0
 11
9125.0
 21
6246.0
  0
LINE
  8
FS_OBJECT
  6
CONTINUOUS
 62
     7
 10
9125.0
 20
6246.0
 11
9122.0
 21
6249.0
  0
LINE
  8
FS_OBJECT
  6
CONTINUOUS
 62
     7
 10
9122.0
 20
6249.0
 11
9120.0
 21
6251.0
  0
LINE
  8
FS_OBJECT
  6
CONTINUOUS
 62
     7
 10
9120.0
 20
6251.0
 11
9120.0
 21
6254.0
  0
LINE
  8
FS_OBJECT
  6
CONTINUOUS
 62
     7
 10
9120.0
 20
6254.0
 11
9120.0
 21
6497.0
  0
LINE
  8
FS_OBJECT
  6
CONTINUOUS
 62
     7
 10
9184.0
 20
6506.0
 11
9209.0
 21
6524.0
  0
LINE
  8
FS_OBJECT
  6
CONTINUOUS
 62
     7
 10
9209.0
 20
6524.0
 11
9196.0
 21
6524.0
  0
LINE
  8
FS_OBJECT
  6
CONTINUOUS
 62
     7
 10
9185.0
 20
6227.0
 11
9147.0
 21
6227.0
  0
LINE
  8
FS_OBJECT
  6
CONTINUOUS
 62
     7
 10
9147.0
 20
6227.0
 11
9147.0
 21
6242.0
  0
CIRCLE
  8
FS_OBJECT
 62
     7
 10
9202.0
 20
6227.0
 40
16.0
  0
LINE
  8
FS_OBJECT
  6
CONTINUOUS
 62
     7
 10
9183.0
 20
6245.0
 11
9208.0
 21
6227.0
  0
LINE
  8
FS_OBJECT
  6
CONTINUOUS
 62
     7
 10
9208.0
 20
6227.0
 11
9196.0
 21
6227.0
  0
LINE
  8
FS_OBJECT
  6
CONTINUOUS
 62
     7
 10
9196.0
 20
6227.0
 11
9221.0
 21
6209.0
  0
LINE
  8
FS_OBJECT
  6
CONTINUOUS
 62
     7
 10
9221.0
 20
6209.0
 11
9210.0
 21
6214.0
  0
LINE
  8
FS_OBJECT
  6
CONTINUOUS
 62
     7
 10
9210.0
 20
6214.0
 11
9213.0
 21
6218.0
  0
LINE
  8
FS_OBJECT
  6
CONTINUOUS
 62
     7
 10
9213.0
 20
6218.0
 11
9221.0
 21
6209.0
  0
LINE
  8
FS_OBJECT
  6
CONTINUOUS
 62
     7
 10
9185.0
 20
6524.0
 11
9147.0
 21
6524.0
  0
LINE
  8
FS_OBJECT
  6
CONTINUOUS
 62
     7
 10
9147.0
 20
6524.0
 11
9147.0
 21
6510.0
  0
LINE
  8
FS_OBJECT
  6
CONTINUOUS
 62
     7
 10
9201.0
 20
6485.0
 11
9239.0
 21
6485.0
  0
LINE
  8
FS_OBJECT
  6
CONTINUOUS
 62
     7
 10
9202.0
 20
6244.0
 11
9202.0
 21
6266.0
  0
LINE
  8
FS_OBJECT
  6
CONTINUOUS
 62
     7
 10
9202.0
 20
6266.0
 11
9175.0
 21
6266.0
  0
LINE
  8
FS_OBJECT
  6
CONTINUOUS
 62
     7
 10
9218.0
 20
6227.0
 11
9240.0
 21
6227.0
  0
LINE
  8
FS_OBJECT
  6
CONTINUOUS
 62
     7
 10
9119.0
 20
6479.0
 11
9153.0
 21
6479.0
  0
LINE
  8
FS_OBJECT
  6
CONTINUOUS
 62
     7
 10
9142.0
 20
6444.0
 11
9175.0
 21
6444.0
  0
LINE
  8
FS_OBJECT
  6
CONTINUOUS
 62
     7
 10
9119.0
 20
6410.0
 11
9153.0
 21
6410.0
  0
LINE
  8
FS_OBJECT
  6
CONTINUOUS
 62
     7
 10
9142.0
 20
6375.0
 11
9175.0
 21
6375.0
  0
LINE
  8
FS_OBJECT
  6
CONTINUOUS
 62
     7
 10
9119.0
 20
6341.0
 11
9153.0
 21
6341.0
  0
LINE
  8
FS_OBJECT
  6
CONTINUOUS
 62
     7
 10
9142.0
 20
6307.0
 11
9175.0
 21
6307.0
  0
LINE
  8
FS_OBJECT
  6
CONTINUOUS
 62
     7
 10
9119.0
 20
6272.0
 11
9153.0
 21
6272.0
  0
LINE
  8
FS_OBJECT
  6
CONTINUOUS
 62
     7
 10
9201.0
 20
6507.0
 11
9201.0
 21
6485.0
  0
LINE
  8
FS_OBJECT
  6
CONTINUOUS
 62
     7
 10
9201.0
 20
6485.0
 11
9175.0
 21
6485.0
  0
LINE
  8
FS_OBJECT
  6
CONTINUOUS
 62
     7
 10
9120.0
 20
6497.0
 11
9175.0
 21
6497.0
  0
LINE
  8
FS_OBJECT
  6
CONTINUOUS
 62
     7
 10
9120.0
 20
6254.0
 11
9175.0
 21
6254.0
  0
LINE
  8
FS_OBJECT
  6
CONTINUOUS
 62
     7
 10
9119.0
 20
6384.0
 11
9107.0
 21
6381.0
  0
LINE
  8
FS_OBJECT
  6
CONTINUOUS
 62
     7
 10
9107.0
 20
6381.0
 11
9107.0
 21
6387.0
  0
LINE
  8
FS_OBJECT
  6
CONTINUOUS
 62
     7
 10
9107.0
 20
6387.0
 11
9119.0
 21
6384.0
  0
LINE
  8
FS_OBJECT
  6
CONTINUOUS
 62
     7
 10
8785.0
 20
6201.0
 11
8785.0
 21
6158.0
  0
LINE
  8
FS_OBJECT
  6
CONTINUOUS
 62
     7
 10
8785.0
 20
6158.0
 11
8933.0
 21
6158.0
  0
LINE
  8
FS_OBJECT
  6
CONTINUOUS
 62
     7
 10
8933.0
 20
6158.0
 11
8933.0
 21
6383.0
  0
LINE
  8
FS_OBJECT
  6
CONTINUOUS
 62
     7
 10
8933.0
 20
6383.0
 11
9119.0
 21
6383.0
  0
LINE
  8
FS_OBJECT
  6
CONTINUOUS
 62
     7
 10
8854.0
 20
6169.0
 11
8876.0
 21
6169.0
  0
LINE
  8
FS_OBJECT
  6
CONTINUOUS
 62
     7
 10
8876.0
 20
6169.0
 11
8876.0
 21
6146.0
  0
LINE
  8
FS_OBJECT
  6
CONTINUOUS
 62
     7
 10
8876.0
 20
6146.0
 11
8854.0
 21
6146.0
  0
LINE
  8
FS_OBJECT
  6
CONTINUOUS
 62
     7
 10
8854.0
 20
6146.0
 11
8854.0
 21
6169.0
  0
TEXT
  8
FS_OBJECT
 62
     7
 10
8863.60
 20
6156.25
 40
6.50
  1
7
 41
0.74
  0
LINE
  8
FS_OBJECT
  6
CONTINUOUS
 62
     7
 10
9407.0
 20
6449.0
 11
9440.0
 21
6449.0
  0
LINE
  8
FS_OBJECT
  6
CONTINUOUS
 62
     7
 10
9440.0
 20
6449.0
 11
9429.0
 21
6465.0
  0
LINE
  8
FS_OBJECT
  6
CONTINUOUS
 62
     7
 10
9429.0
 20
6465.0
 11
9390.0
 21
6465.0
  0
LINE
  8
FS_OBJECT
  6
CONTINUOUS
 62
     7
 10
9390.0
 20
6465.0
 11
9379.0
 21
6449.0
  0
LINE
  8
FS_OBJECT
  6
CONTINUOUS
 62
     7
 10
9379.0
 20
6449.0
 11
9407.0
 21
6449.0
  0
CIRCLE
  8
FS_OBJECT
 62
     7
 10
9410.0
 20
6485.0
 40
28.0
  0
LINE
  8
FS_OBJECT
  6
CONTINUOUS
 62
     7
 10
9411.0
 20
6511.0
 11
9443.0
 21
6511.0
  0
LINE
  8
FS_OBJECT
  6
CONTINUOUS
 62
     7
 10
9443.0
 20
6511.0
 11
9431.0
 21
6508.0
  0
LINE
  8
FS_OBJECT
  6
CONTINUOUS
 62
     7
 10
9431.0
 20
6508.0
 11
9431.0
 21
6514.0
  0
LINE
  8
FS_OBJECT
  6
CONTINUOUS
 62
     7
 10
9431.0
 20
6514.0
 11
9443.0
 21
6511.0
  0
LINE
  8
FS_OBJECT
  6
CONTINUOUS
 62
     7
 10
9381.0
 20
6485.0
 11
9369.0
 21
6482.0
  0
LINE
  8
FS_OBJECT
  6
CONTINUOUS
 62
     7
 10
9369.0
 20
6482.0
 11
9369.0
 21
6488.0
  0
LINE
  8
FS_OBJECT
  6
CONTINUOUS
 62
     7
 10
9369.0
 20
6488.0
 11
9381.0
 21
6485.0
  0
LINE
  8
FS_OBJECT
  6
CONTINUOUS
 62
     7
 10
9239.0
 20
6485.0
 11
9311.0
 21
6485.0
  0
LINE
  8
FS_OBJECT
  6
CONTINUOUS
 62
     7
 10
9311.0
 20
6485.0
 11
9311.0
 21
6485.0
  0
LINE
  8
FS_OBJECT
  6
CONTINUOUS
 62
     7
 10
9311.0
 20
6485.0
 11
9382.0
 21
6485.0
  0
LINE
  8
FS_OBJECT
  6
CONTINUOUS
 62
     7
 10
9265.0
 20
6494.0
 11
9287.0
 21
6494.0
  0
LINE
  8
FS_OBJECT
  6
CONTINUOUS
 62
     7
 10
9287.0
 20
6494.0
 11
9287.0
 21
6471.0
  0
LINE
  8
FS_OBJECT
  6
CONTINUOUS
 62
     7
 10
9287.0
 20
6471.0
 11
9265.0
 21
6471.0
  0
LINE
  8
FS_OBJECT
  6
CONTINUOUS
 62
     7
 10
9265.0
 20
6471.0
 11
9265.0
 21
6494.0
  0
TEXT
  8
FS_OBJECT
 62
     7
 10
9271.60
 20
6480.25
 40
6.50
  1
13
 41
0.83
  0
CIRCLE
  8
FS_OBJECT
 62
     7
 10
9408.0
 20
6228.0
 40
29.0
  0
LINE
  8
FS_OBJECT
  6
CONTINUOUS
 62
     7
 10
9375.0
 20
6196.0
 11
9420.0
 21
6227.0
  0
LINE
  8
FS_OBJECT
  6
CONTINUOUS
 62
     7
 10
9420.0
 20
6227.0
 11
9397.0
 21
6227.0
  0
LINE
  8
FS_OBJECT
  6
CONTINUOUS
 62
     7
 10
9397.0
 20
6227.0
 11
9442.0
 21
6259.0
  0
LINE
  8
FS_OBJECT
  6
CONTINUOUS
 62
     7
 10
9442.0
 20
6259.0
 11
9434.0
 21
6250.0
  0
LINE
  8
FS_OBJECT
  6
CONTINUOUS
 62
     7
 10
9434.0
 20
6250.0
 11
9430.0
 21
6254.0
  0
LINE
  8
FS_OBJECT
  6
CONTINUOUS
 62
     7
 10
9430.0
 20
6254.0
 11
9442.0
 21
6259.0
  0
LINE
  8
FS_OBJECT
  6
CONTINUOUS
 62
     7
 10
9379.0
 20
6228.0
 11
9367.0
 21
6225.0
  0
LINE
  8
FS_OBJECT
  6
CONTINUOUS
 62
     7
 10
9367.0
 20
6225.0
 11
9367.0
 21
6231.0
  0
LINE
  8
FS_OBJECT
  6
CONTINUOUS
 62
     7
 10
9367.0
 20
6231.0
 11
9379.0
 21
6228.0
  0
LINE
  8
FS_OBJECT
  6
CONTINUOUS
 62
     7
 10
9240.0
 20
6227.0
 11
9311.0
 21
6227.0
  0
LINE
  8
FS_OBJECT
  6
CONTINUOUS
 62
     7
 10
9311.0
 20
6227.0
 11
9311.0
 21
6227.0
  0
LINE
  8
FS_OBJECT
  6
CONTINUOUS
 62
     7
 10
9311.0
 20
6227.0
 11
9379.0
 21
6227.0
  0
LINE
  8
FS_OBJECT
  6
CONTINUOUS
 62
     7
 10
9266.0
 20
6236.0
 11
9287.0
 21
6236.0
  0
LINE
  8
FS_OBJECT
  6
CONTINUOUS
 62
     7
 10
9287.0
 20
6236.0
 11
9287.0
 21
6213.0
  0
LINE
  8
FS_OBJECT
  6
CONTINUOUS
 62
     7
 10
9287.0
 20
6213.0
 11
9266.0
 21
6213.0
  0
LINE
  8
FS_OBJECT
  6
CONTINUOUS
 62
     7
 10
9266.0
 20
6213.0
 11
9266.0
 21
6236.0
  0
TEXT
  8
FS_OBJECT
 62
     7
 10
9275.60
 20
6223.25
 40
6.50
  1
9
 41
0.74
  0
LINE
  8
FS_OBJECT
  6
CONTINUOUS
 62
     7
 10
8552.0
 20
6686.0
 11
8549.0
 21
6698.0
  0
LINE
  8
FS_OBJECT
  6
CONTINUOUS
 62
     7
 10
8549.0
 20
6698.0
 11
8555.0
 21
6698.0
  0
LINE
  8
FS_OBJECT
  6
CONTINUOUS
 62
     7
 10
8555.0
 20
6698.0
 11
8552.0
 21
6686.0
  0
LINE
  8
FS_OBJECT
  6
CONTINUOUS
 62
     1
 10
9442.0
 20
6511.0
 11
9623.0
 21
6511.0
  0
LINE
  8
FS_OBJECT
  6
CONTINUOUS
 62
     1
 10
9623.0
 20
6511.0
 11
9623.0
 21
6742.0
  0
LINE
  8
FS_OBJECT
  6
CONTINUOUS
 62
     1
 10
9623.0
 20
6742.0
 11
8552.0
 21
6742.0
  0
LINE
  8
FS_OBJECT
  6
CONTINUOUS
 62
     1
 10
8552.0
 20
6742.0
 11
8552.0
 21
6686.0
  0
LINE
  8
FS_OBJECT
  6
CONTINUOUS
 62
     7
 10
9523.0
 20
6520.0
 11
9544.0
 21
6520.0
  0
LINE
  8
FS_OBJECT
  6
CONTINUOUS
 62
     7
 10
9544.0
 20
6520.0
 11
9544.0
 21
6497.0
  0
LINE
  8
FS_OBJECT
  6
CONTINUOUS
 62
     7
 10
9544.0
 20
6497.0
 11
9523.0
 21
6497.0
  0
LINE
  8
FS_OBJECT
  6
CONTINUOUS
 62
     7
 10
9523.0
 20
6497.0
 11
9523.0
 21
6520.0
  0
TEXT
  8
FS_OBJECT
 62
     7
 10
9532.60
 20
6507.25
 40
6.50
  1
8
 41
0.74
  0
CIRCLE
  8
FS_OBJECT
 62
     7
 10
9666.0
 20
6227.0
 40
11.0
  0
LINE
  8
FS_OBJECT
  6
CONTINUOUS
 62
     7
 10
9658.0
 20
6234.0
 11
9674.0
 21
6234.0
  0
LINE
  8
FS_OBJECT
  6
CONTINUOUS
 62
     7
 10
9674.0
 20
6234.0
 11
9674.0
 21
6219.0
  0
LINE
  8
FS_OBJECT
  6
CONTINUOUS
 62
     7
 10
9674.0
 20
6219.0
 11
9658.0
 21
6219.0
  0
LINE
  8
FS_OBJECT
  6
CONTINUOUS
 62
     7
 10
9658.0
 20
6219.0
 11
9658.0
 21
6234.0
  0
LINE
  8
FS_OBJECT
  6
CONTINUOUS
 62
     7
 10
9658.0
 20
6234.0
 11
9674.0
 21
6219.0
  0
LINE
  8
FS_OBJECT
  6
CONTINUOUS
 62
     7
 10
9674.0
 20
6234.0
 11
9658.0
 21
6219.0
  0
LINE
  8
FS_OBJECT
  6
CONTINUOUS
 62
     7
 10
9654.0
 20
6227.0
 11
9642.0
 21
6224.0
  0
LINE
  8
FS_OBJECT
  6
CONTINUOUS
 62
     7
 10
9642.0
 20
6224.0
 11
9642.0
 21
6230.0
  0
LINE
  8
FS_OBJECT
  6
CONTINUOUS
 62
     7
 10
9642.0
 20
6230.0
 11
9654.0
 21
6227.0
  0
LINE
  8
FS_OBJECT
  6
CONTINUOUS
 62
     7
 10
9438.0
 20
6227.0
 11
9546.0
 21
6227.0
  0
LINE
  8
FS_OBJECT
  6
CONTINUOUS
 62
     7
 10
9546.0
 20
6227.0
 11
9546.0
 21
6226.0
  0
LINE
  8
FS_OBJECT
  6
CONTINUOUS
 62
     7
 10
9546.0
 20
6226.0
 11
9655.0
 21
6226.0
  0
LINE
  8
FS_OBJECT
  6
CONTINUOUS
 62
     7
 10
9482.0
 20
6236.0
 11
9504.0
 21
6236.0
  0
LINE
  8
FS_OBJECT
  6
CONTINUOUS
 62
     7
 10
9504.0
 20
6236.0
 11
9504.0
 21
6213.0
  0
LINE
  8
FS_OBJECT
  6
CONTINUOUS
 62
     7
 10
9504.0
 20
6213.0
 11
9482.0
 21
6213.0
  0
LINE
  8
FS_OBJECT
  6
CONTINUOUS
 62
     7
 10
9482.0
 20
6213.0
 11
9482.0
 21
6236.0
  0
TEXT
  8
FS_OBJECT
 62
     7
 10
9488.60
 20
6222.25
 40
6.50
  1
11
 41
0.83
  0
LINE
  8
FS_OBJECT
  6
CONTINUOUS
 62
     7
 10
9630.0
 20
6119.0
 11
9638.0
 21
6119.0
  0
LINE
  8
FS_OBJECT
  6
CONTINUOUS
 62
     7
 10
9563.0
 20
6126.0
 11
9611.0
 21
6126.0
  0
LINE
  8
FS_OBJECT
  6
CONTINUOUS
 62
     7
 10
9611.0
 20
6126.0
 11
9611.0
 21
6132.0
  0
LINE
  8
FS_OBJECT
  6
CONTINUOUS
 62
     7
 10
9611.0
 20
6132.0
 11
9630.0
 21
6119.0
  0
LINE
  8
FS_OBJECT
  6
CONTINUOUS
 62
     7
 10
9630.0
 20
6119.0
 11
9611.0
 21
6107.0
  0
LINE
  8
FS_OBJECT
  6
CONTINUOUS
 62
     7
 10
9611.0
 20
6107.0
 11
9611.0
 21
6113.0
  0
LINE
  8
FS_OBJECT
  6
CONTINUOUS
 62
     7
 10
9611.0
 20
6113.0
 11
9563.0
 21
6113.0
  0
LINE
  8
FS_OBJECT
  6
CONTINUOUS
 62
     7
 10
9563.0
 20
6113.0
 11
9563.0
 21
6126.0
  0
LINE
  8
FS_OBJECT
  6
CONTINUOUS
 62
     7
 10
9803.0
 20
6133.0
 11
9831.0
 21
6133.0
  0
LINE
  8
FS_OBJECT
  6
CONTINUOUS
 62
     7
 10
9831.0
 20
6133.0
 11
9831.0
 21
6105.0
  0
LINE
  8
FS_OBJECT
  6
CONTINUOUS
 62
     7
 10
9831.0
 20
6105.0
 11
9803.0
 21
6105.0
  0
LINE
  8
FS_OBJECT
  6
CONTINUOUS
 62
     7
 10
9803.0
 20
6105.0
 11
9803.0
 21
6133.0
  0
LINE
  8
FS_OBJECT
  6
CONTINUOUS
 62
     7
 10
9803.0
 20
6133.0
 11
9831.0
 21
6105.0
  0
LINE
  8
FS_OBJECT
  6
CONTINUOUS
 62
     7
 10
9831.0
 20
6133.0
 11
9803.0
 21
6105.0
  0
LINE
  8
FS_OBJECT
  6
CONTINUOUS
 62
     7
 10
9817.0
 20
6133.0
 11
9814.0
 21
6145.0
  0
LINE
  8
FS_OBJECT
  6
CONTINUOUS
 62
     7
 10
9814.0
 20
6145.0
 11
9820.0
 21
6145.0
  0
LINE
  8
FS_OBJECT
  6
CONTINUOUS
 62
     7
 10
9820.0
 20
6145.0
 11
9817.0
 21
6133.0
  0
LINE
  8
FS_OBJECT
  6
CONTINUOUS
 62
     7
 10
9677.0
 20
6226.0
 11
9817.0
 21
6226.0
  0
LINE
  8
FS_OBJECT
  6
CONTINUOUS
 62
     7
 10
9817.0
 20
6226.0
 11
9817.0
 21
6133.0
  0
LINE
  8
FS_OBJECT
  6
CONTINUOUS
 62
     7
 10
9737.0
 20
6235.0
 11
9758.0
 21
6235.0
  0
LINE
  8
FS_OBJECT
  6
CONTINUOUS
 62
     7
 10
9758.0
 20
6235.0
 11
9758.0
 21
6212.0
  0
LINE
  8
FS_OBJECT
  6
CONTINUOUS
 62
     7
 10
9758.0
 20
6212.0
 11
9737.0
 21
6212.0
  0
LINE
  8
FS_OBJECT
  6
CONTINUOUS
 62
     7
 10
9737.0
 20
6212.0
 11
9737.0
 21
6235.0
  0
TEXT
  8
FS_OBJECT
 62
     7
 10
9743.60
 20
6221.25
 40
6.50
  1
10
 41
0.83
  0
ARC
  8
FS_OBJECT
 62
     7
 10
10013.00
 20
6035.0
 40
10.00
 50
0.0
 51
53.13
  0
ARC
  8
FS_OBJECT
 62
     7
 10
9983.0
 20
5995.0
 40
60.00
 50
53.13
 51
90.0
  0
ARC
  8
FS_OBJECT
 62
     7
 10
9983.0
 20
5995.0
 40
60.00
 50
90.0
 51
126.87
  0
ARC
  8
FS_OBJECT
 62
     7
 10
9953.00
 20
6035.0
 40
10.00
 50
126.87
 51
180.0
  0
ARC
  8
FS_OBJECT
 62
     7
 10
9953.00
 20
6035.0
 40
10.00
 50
180.0
 51
233.13
  0
ARC
  8
FS_OBJECT
 62
     7
 10
9983.0
 20
6075.0
 40
60.00
 50
233.13
 51
270.0
  0
ARC
  8
FS_OBJECT
 62
     7
 10
9983.0
 20
6075.0
 40
60.00
 50
270.0
 51
306.87
  0
ARC
  8
FS_OBJECT
 62
     7
 10
10013.00
 20
6035.0
 40
10.00
 50
306.87
 51
0.0
  0
ARC
  8
FS_OBJECT
 62
     7
 10
10013.00
 20
5913.0
 40
10.00
 50
0.0
 51
53.13
  0
ARC
  8
FS_OBJECT
 62
     7
 10
9983.0
 20
5873.0
 40
60.00
 50
53.13
 51
90.0
  0
ARC
  8
FS_OBJECT
 62
     7
 10
9983.0
 20
5873.0
 40
60.00
 50
90.0
 51
126.87
  0
ARC
  8
FS_OBJECT
 62
     7
 10
9953.00
 20
5913.0
 40
10.00
 50
126.87
 51
180.0
  0
ARC
  8
FS_OBJECT
 62
     7
 10
9953.00
 20
5913.0
 40
10.00
 50
180.0
 51
233.13
  0
ARC
  8
FS_OBJECT
 62
     7
 10
9983.0
 20
5953.0
 40
60.00
 50
233.13
 51
270.0
  0
ARC
  8
FS_OBJECT
 62
     7
 10
9983.0
 20
5953.0
 40
60.00
 50
270.0
 51
306.87
  0
ARC
  8
FS_OBJECT
 62
     7
 10
10013.00
 20
5913.0
 40
10.00
 50
306.87
 51
0.0
  0
LINE
  8
FS_OBJECT
  6
CONTINUOUS
 62
     7
 10
9943.0
 20
6034.0
 11
10024.0
 21
6034.0
  0
LINE
  8
FS_OBJECT
  6
CONTINUOUS
 62
     7
 10
10024.0
 20
6034.0
 11
10024.0
 21
5913.0
  0
LINE
  8
FS_OBJECT
  6
CONTINUOUS
 62
     7
 10
10024.0
 20
5913.0
 11
9943.0
 21
5913.0
  0
LINE
  8
FS_OBJECT
  6
CONTINUOUS
 62
     7
 10
9943.0
 20
5913.0
 11
9943.0
 21
6034.0
  0
LINE
  8
FS_OBJECT
  6
CONTINUOUS
 62
     7
 10
9943.0
 20
6034.0
 11
10024.0
 21
5913.0
  0
LINE
  8
FS_OBJECT
  6
CONTINUOUS
 62
     7
 10
9943.0
 20
5913.0
 11
10024.0
 21
6034.0
  0
LINE
  8
FS_OBJECT
  6
CONTINUOUS
 62
     7
 10
9983.0
 20
6055.0
 11
9980.0
 21
6067.0
  0
LINE
  8
FS_OBJECT
  6
CONTINUOUS
 62
     7
 10
9980.0
 20
6067.0
 11
9986.0
 21
6067.0
  0
LINE
  8
FS_OBJECT
  6
CONTINUOUS
 62
     7
 10
9986.0
 20
6067.0
 11
9983.0
 21
6055.0
  0
LINE
  8
FS_OBJECT
  6
CONTINUOUS
 62
     7
 10
9831.0
 20
6119.0
 11
9984.0
 21
6119.0
  0
LINE
  8
FS_OBJECT
  6
CONTINUOUS
 62
     7
 10
9984.0
 20
6119.0
 11
9984.0
 21
6055.0
  0
LINE
  8
FS_OBJECT
  6
CONTINUOUS
 62
     7
 10
9803.0
 20
6119.0
 11
9791.0
 21
6116.0
  0
LINE
  8
FS_OBJECT
  6
CONTINUOUS
 62
     7
 10
9791.0
 20
6116.0
 11
9791.0
 21
6122.0
  0
LINE
  8
FS_OBJECT
  6
CONTINUOUS
 62
     7
 10
9791.0
 20
6122.0
 11
9803.0
 21
6119.0
  0
LINE
  8
FS_OBJECT
  6
CONTINUOUS
 62
     7
 10
9630.0
 20
6119.0
 11
9688.0
 21
6119.0
  0
LINE
  8
FS_OBJECT
  6
CONTINUOUS
 62
     7
 10
9688.0
 20
6119.0
 11
9688.0
 21
6119.0
  0
LINE
  8
FS_OBJECT
  6
CONTINUOUS
 62
     7
 10
9688.0
 20
6119.0
 11
9803.0
 21
6119.0
  0
LINE
  8
FS_OBJECT
  6
CONTINUOUS
 62
     7
 10
9649.0
 20
6128.0
 11
9671.0
 21
6128.0
  0
LINE
  8
FS_OBJECT
  6
CONTINUOUS
 62
     7
 10
9671.0
 20
6128.0
 11
9671.0
 21
6105.0
  0
LINE
  8
FS_OBJECT
  6
CONTINUOUS
 62
     7
 10
9671.0
 20
6105.0
 11
9649.0
 21
6105.0
  0
LINE
  8
FS_OBJECT
  6
CONTINUOUS
 62
     7
 10
9649.0
 20
6105.0
 11
9649.0
 21
6128.0
  0
TEXT
  8
FS_OBJECT
 62
     7
 10
9655.60
 20
6114.25
 40
6.50
  1
35
 41
0.83
  0
LINE
  8
FS_OBJECT
  6
CONTINUOUS
 62
     7
 10
9899.0
 20
6128.0
 11
9921.0
 21
6128.0
  0
LINE
  8
FS_OBJECT
  6
CONTINUOUS
 62
     7
 10
9921.0
 20
6128.0
 11
9921.0
 21
6105.0
  0
LINE
  8
FS_OBJECT
  6
CONTINUOUS
 62
     7
 10
9921.0
 20
6105.0
 11
9899.0
 21
6105.0
  0
LINE
  8
FS_OBJECT
  6
CONTINUOUS
 62
     7
 10
9899.0
 20
6105.0
 11
9899.0
 21
6128.0
  0
TEXT
  8
FS_OBJECT
 62
     7
 10
9905.60
 20
6114.25
 40
6.50
  1
34
 41
0.83
  0
TEXT
  8
FS_OBJECT
 62
     7
 10
9583.80
 20
6152.00
 40
12.00
  1
CaO
 41
1.07
  0
ARC
  8
FS_OBJECT
 62
     7
 10
10291.25
 20
5786.0
 40
5.75
 50
0.0
 51
53.13
  0
ARC
  8
FS_OBJECT
 62
     7
 10
10274.0
 20
5763.0
 40
34.50
 50
53.13
 51
90.0
  0
ARC
  8
FS_OBJECT
 62
     7
 10
10274.0
 20
5763.0
 40
34.50
 50
90.0
 51
126.87
  0
ARC
  8
FS_OBJECT
 62
     7
 10
10256.75
 20
5786.0
 40
5.75
 50
126.87
 51
180.0
  0
ARC
  8
FS_OBJECT
 62
     7
 10
10256.75
 20
5786.0
 40
5.75
 50
180.0
 51
233.13
  0
ARC
  8
FS_OBJECT
 62
     7
 10
10274.0
 20
5809.0
 40
34.50
 50
233.13
 51
270.0
  0
ARC
  8
FS_OBJECT
 62
     7
 10
10274.0
 20
5809.0
 40
34.50
 50
270.0
 51
306.87
  0
ARC
  8
FS_OBJECT
 62
     7
 10
10291.25
 20
5786.0
 40
5.75
 50
306.87
 51
0.0
  0
ARC
  8
FS_OBJECT
 62
     7
 10
10291.25
 20
5867.0
 40
5.75
 50
0.0
 51
53.13
  0
ARC
  8
FS_OBJECT
 62
     7
 10
10274.0
 20
5844.0
 40
34.50
 50
53.13
 51
90.0
  0
ARC
  8
FS_OBJECT
 62
     7
 10
10274.0
 20
5844.0
 40
34.50
 50
90.0
 51
126.87
  0
ARC
  8
FS_OBJECT
 62
     7
 10
10256.75
 20
5867.0
 40
5.75
 50
126.87
 51
180.0
  0
ARC
  8
FS_OBJECT
 62
     7
 10
10256.75
 20
5867.0
 40
5.75
 50
180.0
 51
233.13
  0
ARC
  8
FS_OBJECT
 62
     7
 10
10274.0
 20
5890.0
 40
34.50
 50
233.13
 51
270.0
  0
ARC
  8
FS_OBJECT
 62
     7
 10
10274.0
 20
5890.0
 40
34.50
 50
270.0
 51
306.87
  0
ARC
  8
FS_OBJECT
 62
     7
 10
10291.25
 20
5867.0
 40
5.75
 50
306.87
 51
0.0
  0
LINE
  8
FS_OBJECT
  6
CONTINUOUS
 62
     7
 10
10251.0
 20
5867.0
 11
10297.0
 21
5867.0
  0
LINE
  8
FS_OBJECT
  6
CONTINUOUS
 62
     7
 10
10297.0
 20
5867.0
 11
10297.0
 21
5787.0
  0
LINE
  8
FS_OBJECT
  6
CONTINUOUS
 62
     7
 10
10297.0
 20
5787.0
 11
10251.0
 21
5787.0
  0
LINE
  8
FS_OBJECT
  6
CONTINUOUS
 62
     7
 10
10251.0
 20
5787.0
 11
10251.0
 21
5867.0
  0
LINE
  8
FS_OBJECT
  6
CONTINUOUS
 62
     7
 10
10319.0
 20
5794.0
 11
10287.0
 21
5794.0
  0
LINE
  8
FS_OBJECT
  6
CONTINUOUS
 62
     7
 10
10287.0
 20
5794.0
 11
10261.0
 21
5800.0
  0
LINE
  8
FS_OBJECT
  6
CONTINUOUS
 62
     7
 10
10261.0
 20
5800.0
 11
10287.0
 21
5805.0
  0
LINE
  8
FS_OBJECT
  6
CONTINUOUS
 62
     7
 10
10287.0
 20
5805.0
 11
10261.0
 21
5810.0
  0
LINE
  8
FS_OBJECT
  6
CONTINUOUS
 62
     7
 10
10261.0
 20
5810.0
 11
10287.0
 21
5816.0
  0
LINE
  8
FS_OBJECT
  6
CONTINUOUS
 62
     7
 10
10287.0
 20
5816.0
 11
10319.0
 21
5816.0
  0
LINE
  8
FS_OBJECT
  6
CONTINUOUS
 62
     7
 10
10319.0
 20
5816.0
 11
10319.0
 21
5816.0
  0
CIRCLE
  8
FS_OBJECT
 62
     7
 10
10234.0
 20
5895.0
 40
13.0
  0
TEXT
  8
FS_OBJECT
 62
     7
 10
10229.60
 20
5893.25
 40
6.50
  1
14
 41
0.83
  0
LINE
  8
FS_OBJECT
  6
CONTINUOUS
 62
     7
 10
10491.0
 20
5716.0
 11
10479.0
 21
5713.0
  0
LINE
  8
FS_OBJECT
  6
CONTINUOUS
 62
     7
 10
10479.0
 20
5713.0
 11
10479.0
 21
5719.0
  0
LINE
  8
FS_OBJECT
  6
CONTINUOUS
 62
     7
 10
10479.0
 20
5719.0
 11
10491.0
 21
5716.0
  0
LINE
  8
FS_OBJECT
  6
CONTINUOUS
 62
     7
 10
10274.0
 20
5774.0
 11
10274.0
 21
5716.0
  0
LINE
  8
FS_OBJECT
  6
CONTINUOUS
 62
     7
 10
10274.0
 20
5716.0
 11
10491.0
 21
5716.0
  0
LINE
  8
FS_OBJECT
  6
CONTINUOUS
 62
     7
 10
10351.0
 20
6312.0
 11
10359.0
 21
6312.0
  0
LINE
  8
FS_OBJECT
  6
CONTINUOUS
 62
     7
 10
10284.0
 20
6319.0
 11
10332.0
 21
6319.0
  0
LINE
  8
FS_OBJECT
  6
CONTINUOUS
 62
     7
 10
10332.0
 20
6319.0
 11
10332.0
 21
6325.0
  0
LINE
  8
FS_OBJECT
  6
CONTINUOUS
 62
     7
 10
10332.0
 20
6325.0
 11
10351.0
 21
6312.0
  0
LINE
  8
FS_OBJECT
  6
CONTINUOUS
 62
     7
 10
10351.0
 20
6312.0
 11
10332.0
 21
6300.0
  0
LINE
  8
FS_OBJECT
  6
CONTINUOUS
 62
     7
 10
10332.0
 20
6300.0
 11
10332.0
 21
6306.0
  0
LINE
  8
FS_OBJECT
  6
CONTINUOUS
 62
     7
 10
10332.0
 20
6306.0
 11
10284.0
 21
6306.0
  0
LINE
  8
FS_OBJECT
  6
CONTINUOUS
 62
     7
 10
10284.0
 20
6306.0
 11
10284.0
 21
6319.0
  0
LINE
  8
FS_OBJECT
  6
CONTINUOUS
 62
     7
 10
10565.0
 20
6329.0
 11
10567.0
 21
6334.0
  0
LINE
  8
FS_OBJECT
  6
CONTINUOUS
 62
     7
 10
10567.0
 20
6334.0
 11
10570.0
 21
6336.0
  0
LINE
  8
FS_OBJECT
  6
CONTINUOUS
 62
     7
 10
10570.0
 20
6336.0
 11
10571.0
 21
6337.0
  0
LINE
  8
FS_OBJECT
  6
CONTINUOUS
 62
     7
 10
10571.0
 20
6337.0
 11
10578.0
 21
6340.0
  0
LINE
  8
FS_OBJECT
  6
CONTINUOUS
 62
     7
 10
10578.0
 20
6340.0
 11
10584.0
 21
6341.0
  0
LINE
  8
FS_OBJECT
  6
CONTINUOUS
 62
     7
 10
10584.0
 20
6341.0
 11
10590.0
 21
6342.0
  0
LINE
  8
FS_OBJECT
  6
CONTINUOUS
 62
     7
 10
10590.0
 20
6342.0
 11
10596.0
 21
6343.0
  0
LINE
  8
FS_OBJECT
  6
CONTINUOUS
 62
     7
 10
10596.0
 20
6343.0
 11
10602.0
 21
6342.0
  0
LINE
  8
FS_OBJECT
  6
CONTINUOUS
 62
     7
 10
10602.0
 20
6342.0
 11
10608.0
 21
6341.0
  0
LINE
  8
FS_OBJECT
  6
CONTINUOUS
 62
     7
 10
10608.0
 20
6341.0
 11
10615.0
 21
6340.0
  0
LINE
  8
FS_OBJECT
  6
CONTINUOUS
 62
     7
 10
10615.0
 20
6340.0
 11
10621.0
 21
6337.0
  0
LINE
  8
FS_OBJECT
  6
CONTINUOUS
 62
     7
 10
10621.0
 20
6337.0
 11
10622.0
 21
6336.0
  0
LINE
  8
FS_OBJECT
  6
CONTINUOUS
 62
     7
 10
10622.0
 20
6336.0
 11
10625.0
 21
6333.0
  0
LINE
  8
FS_OBJECT
  6
CONTINUOUS
 62
     7
 10
10625.0
 20
6333.0
 11
10627.0
 21
6329.0
  0
LINE
  8
FS_OBJECT
  6
CONTINUOUS
 62
     7
 10
10627.0
 20
6329.0
 11
10627.0
 21
6055.0
  0
LINE
  8
FS_OBJECT
  6
CONTINUOUS
 62
     7
 10
10627.0
 20
6055.0
 11
10626.0
 21
6053.0
  0
LINE
  8
FS_OBJECT
  6
CONTINUOUS
 62
     7
 10
10626.0
 20
6053.0
 11
10625.0
 21
6051.0
  0
LINE
  8
FS_OBJECT
  6
CONTINUOUS
 62
     7
 10
10625.0
 20
6051.0
 11
10621.0
 21
6048.0
  0
LINE
  8
FS_OBJECT
  6
CONTINUOUS
 62
     7
 10
10621.0
 20
6048.0
 11
10614.0
 21
6045.0
  0
LINE
  8
FS_OBJECT
  6
CONTINUOUS
 62
     7
 10
10614.0
 20
6045.0
 11
10608.0
 21
6043.0
  0
LINE
  8
FS_OBJECT
  6
CONTINUOUS
 62
     7
 10
10608.0
 20
6043.0
 11
10602.0
 21
6042.0
  0
LINE
  8
FS_OBJECT
  6
CONTINUOUS
 62
     7
 10
10602.0
 20
6042.0
 11
10596.0
 21
6042.0
  0
LINE
  8
FS_OBJECT
  6
CONTINUOUS
 62
     7
 10
10596.0
 20
6042.0
 11
10590.0
 21
6042.0
  0
LINE
  8
FS_OBJECT
  6
CONTINUOUS
 62
     7
 10
10590.0
 20
6042.0
 11
10583.0
 21
6043.0
  0
LINE
  8
FS_OBJECT
  6
CONTINUOUS
 62
     7
 10
10583.0
 20
6043.0
 11
10578.0
 21
6045.0
  0
LINE
  8
FS_OBJECT
  6
CONTINUOUS
 62
     7
 10
10578.0
 20
6045.0
 11
10575.0
 21
6046.0
  0
LINE
  8
FS_OBJECT
  6
CONTINUOUS
 62
     7
 10
10575.0
 20
6046.0
 11
10571.0
 21
6047.0
  0
LINE
  8
FS_OBJECT
  6
CONTINUOUS
 62
     7
 10
10571.0
 20
6047.0
 11
10568.0
 21
6051.0
  0
LINE
  8
FS_OBJECT
  6
CONTINUOUS
 62
     7
 10
10568.0
 20
6051.0
 11
10566.0
 21
6053.0
  0
LINE
  8
FS_OBJECT
  6
CONTINUOUS
 62
     7
 10
10566.0
 20
6053.0
 11
10565.0
 21
6055.0
  0
LINE
  8
FS_OBJECT
  6
CONTINUOUS
 62
     7
 10
10565.0
 20
6055.0
 11
10565.0
 21
6329.0
  0
LINE
  8
FS_OBJECT
  6
CONTINUOUS
 62
     7
 10
10565.0
 20
6312.0
 11
10580.0
 21
6312.0
  0
LINE
  8
FS_OBJECT
  6
CONTINUOUS
 62
     7
 10
10580.0
 20
6312.0
 11
10595.0
 21
6312.0
  0
LINE
  8
FS_OBJECT
  6
CONTINUOUS
 62
     7
 10
10595.0
 20
6312.0
 11
10600.0
 21
6302.0
  0
LINE
  8
FS_OBJECT
  6
CONTINUOUS
 62
     7
 10
10595.0
 20
6312.0
 11
10590.0
 21
6302.0
  0
LINE
  8
FS_OBJECT
  6
CONTINUOUS
 62
     7
 10
10565.0
 20
6062.0
 11
10580.0
 21
6062.0
  0
LINE
  8
FS_OBJECT
  6
CONTINUOUS
 62
     7
 10
10580.0
 20
6062.0
 11
10595.0
 21
6062.0
  0
LINE
  8
FS_OBJECT
  6
CONTINUOUS
 62
     7
 10
10595.0
 20
6062.0
 11
10600.0
 21
6072.0
  0
LINE
  8
FS_OBJECT
  6
CONTINUOUS
 62
     7
 10
10595.0
 20
6062.0
 11
10590.0
 21
6072.0
  0
LINE
  8
FS_OBJECT
  6
CONTINUOUS
 62
     7
 10
10564.0
 20
6313.0
 11
10552.0
 21
6310.0
  0
LINE
  8
FS_OBJECT
  6
CONTINUOUS
 62
     7
 10
10552.0
 20
6310.0
 11
10552.0
 21
6316.0
  0
LINE
  8
FS_OBJECT
  6
CONTINUOUS
 62
     7
 10
10552.0
 20
6316.0
 11
10564.0
 21
6313.0
  0
LINE
  8
FS_OBJECT
  6
CONTINUOUS
 62
     7
 10
10351.0
 20
6312.0
 11
10438.0
 21
6312.0
  0
LINE
  8
FS_OBJECT
  6
CONTINUOUS
 62
     7
 10
10438.0
 20
6312.0
 11
10438.0
 21
6312.0
  0
LINE
  8
FS_OBJECT
  6
CONTINUOUS
 62
     7
 10
10438.0
 20
6312.0
 11
10565.0
 21
6312.0
  0
LINE
  8
FS_OBJECT
  6
CONTINUOUS
 62
     7
 10
10250.0
 20
5827.0
 11
10238.0
 21
5824.0
  0
LINE
  8
FS_OBJECT
  6
CONTINUOUS
 62
     7
 10
10238.0
 20
5824.0
 11
10238.0
 21
5830.0
  0
LINE
  8
FS_OBJECT
  6
CONTINUOUS
 62
     7
 10
10238.0
 20
5830.0
 11
10250.0
 21
5827.0
  0
LINE
  8
FS_OBJECT
  6
CONTINUOUS
 62
     7
 10
9984.0
 20
5892.0
 11
9984.0
 21
5826.0
  0
LINE
  8
FS_OBJECT
  6
CONTINUOUS
 62
     7
 10
9984.0
 20
5826.0
 11
10251.0
 21
5826.0
  0
LINE
  8
FS_OBJECT
  6
CONTINUOUS
 62
     7
 10
10065.0
 20
5839.0
 11
10087.0
 21
5839.0
  0
LINE
  8
FS_OBJECT
  6
CONTINUOUS
 62
     7
 10
10087.0
 20
5839.0
 11
10087.0
 21
5816.0
  0
LINE
  8
FS_OBJECT
  6
CONTINUOUS
 62
     7
 10
10087.0
 20
5816.0
 11
10065.0
 21
5816.0
  0
LINE
  8
FS_OBJECT
  6
CONTINUOUS
 62
     7
 10
10065.0
 20
5816.0
 11
10065.0
 21
5839.0
  0
TEXT
  8
FS_OBJECT
 62
     7
 10
10071.60
 20
5825.25
 40
6.50
  1
33
 41
0.83
  0
LINE
  8
FS_OBJECT
  6
CONTINUOUS
 62
     7
 10
10564.0
 20
6063.0
 11
10552.0
 21
6060.0
  0
LINE
  8
FS_OBJECT
  6
CONTINUOUS
 62
     7
 10
10552.0
 20
6060.0
 11
10552.0
 21
6066.0
  0
LINE
  8
FS_OBJECT
  6
CONTINUOUS
 62
     7
 10
10552.0
 20
6066.0
 11
10564.0
 21
6063.0
  0
LINE
  8
FS_OBJECT
  6
CONTINUOUS
 62
     7
 10
10274.0
 20
5879.0
 11
10274.0
 21
6062.0
  0
LINE
  8
FS_OBJECT
  6
CONTINUOUS
 62
     7
 10
10274.0
 20
6062.0
 11
10565.0
 21
6062.0
  0
LINE
  8
FS_OBJECT
  6
CONTINUOUS
 62
     7
 10
10264.0
 20
5979.0
 11
10286.0
 21
5979.0
  0
LINE
  8
FS_OBJECT
  6
CONTINUOUS
 62
     7
 10
10286.0
 20
5979.0
 11
10286.0
 21
5956.0
  0
LINE
  8
FS_OBJECT
  6
CONTINUOUS
 62
     7
 10
10286.0
 20
5956.0
 11
10264.0
 21
5956.0
  0
LINE
  8
FS_OBJECT
  6
CONTINUOUS
 62
     7
 10
10264.0
 20
5956.0
 11
10264.0
 21
5979.0
  0
TEXT
  8
FS_OBJECT
 62
     7
 10
10270.60
 20
5965.25
 40
6.50
  1
14
 41
0.83
  0
TEXT
  8
FS_OBJECT
 62
     7
 10
10488.80
 20
5743.00
 40
12.00
  1
CaSo4
 41
1.17
  0
CIRCLE
  8
FS_OBJECT
 62
     7
 10
10548.0
 20
6359.0
 40
13.0
  0
TEXT
  8
FS_OBJECT
 62
     7
 10
10546.60
 20
6357.25
 40
6.50
  1
8
 41
0.74
  0
CIRCLE
  8
FS_OBJECT
 62
     7
 10
9790.0
 20
6146.0
 40
13.0
  0
TEXT
  8
FS_OBJECT
 62
     7
 10
9785.60
 20
6144.25
 40
6.50
  1
24
 41
0.83
  0
CIRCLE
  8
FS_OBJECT
 62
     7
 10
9362.0
 20
6272.0
 40
13.0
  0
TEXT
  8
FS_OBJECT
 62
     7
 10
9360.60
 20
6270.25
 40
6.50
  1
7
 41
0.74
  0
CIRCLE
  8
FS_OBJECT
 62
     7
 10
9638.0
 20
6250.0
 40
13.0
  0
TEXT
  8
FS_OBJECT
 62
     7
 10
9636.60
 20
6248.25
 40
6.50
  1
6
 41
0.74
  0
CIRCLE
  8
FS_OBJECT
 62
     7
 10
9930.0
 20
6074.0
 40
13.0
  0
TEXT
  8
FS_OBJECT
 62
     7
 10
9925.60
 20
6072.25
 40
6.50
  1
23
 41
0.83
  0
CIRCLE
  8
FS_OBJECT
 62
     7
 10
9367.0
 20
6526.0
 40
13.0
  0
TEXT
  8
FS_OBJECT
 62
     7
 10
9365.60
 20
6524.25
 40
6.50
  1
9
 41
0.74
  0
CIRCLE
  8
FS_OBJECT
 62
     7
 10
9103.0
 20
6554.0
 40
13.0
  0
TEXT
  8
FS_OBJECT
 62
     7
 10
9101.60
 20
6552.25
 40
6.50
  1
5
 41
0.74
  0
LINE
  8
FS_OBJECT
  6
CONTINUOUS
 62
     7
 10
11024.0
 20
6717.0
 11
11016.0
 21
6708.0
  0
LINE
  8
FS_OBJECT
  6
CONTINUOUS
 62
     7
 10
11016.0
 20
6708.0
 11
11012.0
 21
6713.0
  0
LINE
  8
FS_OBJECT
  6
CONTINUOUS
 62
     7
 10
11012.0
 20
6713.0
 11
11024.0
 21
6717.0
  0
LINE
  8
FS_OBJECT
  6
CONTINUOUS
 62
     7
 10
10924.0
 20
6672.0
 11
10926.0
 21
6676.0
  0
LINE
  8
FS_OBJECT
  6
CONTINUOUS
 62
     7
 10
10926.0
 20
6676.0
 11
10928.0
 21
6678.0
  0
LINE
  8
FS_OBJECT
  6
CONTINUOUS
 62
     7
 10
10928.0
 20
6678.0
 11
10929.0
 21
6679.0
  0
LINE
  8
FS_OBJECT
  6
CONTINUOUS
 62
     7
 10
10929.0
 20
6679.0
 11
10935.0
 21
6682.0
  0
LINE
  8
FS_OBJECT
  6
CONTINUOUS
 62
     7
 10
10935.0
 20
6682.0
 11
10940.0
 21
6683.0
  0
LINE
  8
FS_OBJECT
  6
CONTINUOUS
 62
     7
 10
10940.0
 20
6683.0
 11
10946.0
 21
6684.0
  0
LINE
  8
FS_OBJECT
  6
CONTINUOUS
 62
     7
 10
10946.0
 20
6684.0
 11
10951.0
 21
6684.0
  0
LINE
  8
FS_OBJECT
  6
CONTINUOUS
 62
     7
 10
10951.0
 20
6684.0
 11
10957.0
 21
6684.0
  0
LINE
  8
FS_OBJECT
  6
CONTINUOUS
 62
     7
 10
10957.0
 20
6684.0
 11
10962.0
 21
6683.0
  0
LINE
  8
FS_OBJECT
  6
CONTINUOUS
 62
     7
 10
10962.0
 20
6683.0
 11
10968.0
 21
6682.0
  0
LINE
  8
FS_OBJECT
  6
CONTINUOUS
 62
     7
 10
10968.0
 20
6682.0
 11
10973.0
 21
6679.0
  0
LINE
  8
FS_OBJECT
  6
CONTINUOUS
 62
     7
 10
10973.0
 20
6679.0
 11
10975.0
 21
6678.0
  0
LINE
  8
FS_OBJECT
  6
CONTINUOUS
 62
     7
 10
10975.0
 20
6678.0
 11
10977.0
 21
6675.0
  0
LINE
  8
FS_OBJECT
  6
CONTINUOUS
 62
     7
 10
10977.0
 20
6675.0
 11
10979.0
 21
6672.0
  0
LINE
  8
FS_OBJECT
  6
CONTINUOUS
 62
     7
 10
10979.0
 20
6672.0
 11
10979.0
 21
6429.0
  0
LINE
  8
FS_OBJECT
  6
CONTINUOUS
 62
     7
 10
10979.0
 20
6429.0
 11
10978.0
 21
6427.0
  0
LINE
  8
FS_OBJECT
  6
CONTINUOUS
 62
     7
 10
10978.0
 20
6427.0
 11
10977.0
 21
6425.0
  0
LINE
  8
FS_OBJECT
  6
CONTINUOUS
 62
     7
 10
10977.0
 20
6425.0
 11
10973.0
 21
6422.0
  0
LINE
  8
FS_OBJECT
  6
CONTINUOUS
 62
     7
 10
10973.0
 20
6422.0
 11
10967.0
 21
6419.0
  0
LINE
  8
FS_OBJECT
  6
CONTINUOUS
 62
     7
 10
10967.0
 20
6419.0
 11
10962.0
 21
6418.0
  0
LINE
  8
FS_OBJECT
  6
CONTINUOUS
 62
     7
 10
10962.0
 20
6418.0
 11
10957.0
 21
6417.0
  0
LINE
  8
FS_OBJECT
  6
CONTINUOUS
 62
     7
 10
10957.0
 20
6417.0
 11
10951.0
 21
6417.0
  0
LINE
  8
FS_OBJECT
  6
CONTINUOUS
 62
     7
 10
10951.0
 20
6417.0
 11
10945.0
 21
6417.0
  0
LINE
  8
FS_OBJECT
  6
CONTINUOUS
 62
     7
 10
10945.0
 20
6417.0
 11
10940.0
 21
6418.0
  0
LINE
  8
FS_OBJECT
  6
CONTINUOUS
 62
     7
 10
10940.0
 20
6418.0
 11
10935.0
 21
6419.0
  0
LINE
  8
FS_OBJECT
  6
CONTINUOUS
 62
     7
 10
10935.0
 20
6419.0
 11
10933.0
 21
6420.0
  0
LINE
  8
FS_OBJECT
  6
CONTINUOUS
 62
     7
 10
10933.0
 20
6420.0
 11
10929.0
 21
6421.0
  0
LINE
  8
FS_OBJECT
  6
CONTINUOUS
 62
     7
 10
10929.0
 20
6421.0
 11
10926.0
 21
6424.0
  0
LINE
  8
FS_OBJECT
  6
CONTINUOUS
 62
     7
 10
10926.0
 20
6424.0
 11
10924.0
 21
6426.0
  0
LINE
  8
FS_OBJECT
  6
CONTINUOUS
 62
     7
 10
10924.0
 20
6426.0
 11
10924.0
 21
6429.0
  0
LINE
  8
FS_OBJECT
  6
CONTINUOUS
 62
     7
 10
10924.0
 20
6429.0
 11
10924.0
 21
6672.0
  0
LINE
  8
FS_OBJECT
  6
CONTINUOUS
 62
     7
 10
10989.0
 20
6402.0
 11
10951.0
 21
6402.0
  0
LINE
  8
FS_OBJECT
  6
CONTINUOUS
 62
     7
 10
10951.0
 20
6402.0
 11
10951.0
 21
6417.0
  0
LINE
  8
FS_OBJECT
  6
CONTINUOUS
 62
     7
 10
11025.0
 20
6384.0
 11
11014.0
 21
6389.0
  0
LINE
  8
FS_OBJECT
  6
CONTINUOUS
 62
     7
 10
11014.0
 20
6389.0
 11
11017.0
 21
6393.0
  0
LINE
  8
FS_OBJECT
  6
CONTINUOUS
 62
     7
 10
11017.0
 20
6393.0
 11
11025.0
 21
6384.0
  0
LINE
  8
FS_OBJECT
  6
CONTINUOUS
 62
     7
 10
10989.0
 20
6699.0
 11
10951.0
 21
6699.0
  0
LINE
  8
FS_OBJECT
  6
CONTINUOUS
 62
     7
 10
10951.0
 20
6699.0
 11
10951.0
 21
6685.0
  0
LINE
  8
FS_OBJECT
  6
CONTINUOUS
 62
     7
 10
10923.0
 20
6654.0
 11
10957.0
 21
6654.0
  0
LINE
  8
FS_OBJECT
  6
CONTINUOUS
 62
     7
 10
10946.0
 20
6619.0
 11
10979.0
 21
6619.0
  0
LINE
  8
FS_OBJECT
  6
CONTINUOUS
 62
     7
 10
10923.0
 20
6585.0
 11
10957.0
 21
6585.0
  0
LINE
  8
FS_OBJECT
  6
CONTINUOUS
 62
     7
 10
10946.0
 20
6550.0
 11
10979.0
 21
6550.0
  0
LINE
  8
FS_OBJECT
  6
CONTINUOUS
 62
     7
 10
10923.0
 20
6516.0
 11
10957.0
 21
6516.0
  0
LINE
  8
FS_OBJECT
  6
CONTINUOUS
 62
     7
 10
10946.0
 20
6482.0
 11
10979.0
 21
6482.0
  0
LINE
  8
FS_OBJECT
  6
CONTINUOUS
 62
     7
 10
10923.0
 20
6447.0
 11
10957.0
 21
6447.0
  0
LINE
  8
FS_OBJECT
  6
CONTINUOUS
 62
     7
 10
10924.0
 20
6672.0
 11
10979.0
 21
6672.0
  0
LINE
  8
FS_OBJECT
  6
CONTINUOUS
 62
     7
 10
10924.0
 20
6429.0
 11
10979.0
 21
6429.0
  0
LINE
  8
FS_OBJECT
  6
CONTINUOUS
 62
     7
 10
10923.0
 20
6583.0
 11
10911.0
 21
6580.0
  0
LINE
  8
FS_OBJECT
  6
CONTINUOUS
 62
     7
 10
10911.0
 20
6580.0
 11
10911.0
 21
6586.0
  0
LINE
  8
FS_OBJECT
  6
CONTINUOUS
 62
     7
 10
10911.0
 20
6586.0
 11
10923.0
 21
6583.0
  0
LINE
  8
FS_OBJECT
  6
CONTINUOUS
 62
     7
 10
10596.0
 20
6343.0
 11
10596.0
 21
6582.0
  0
LINE
  8
FS_OBJECT
  6
CONTINUOUS
 62
     7
 10
10596.0
 20
6582.0
 11
10923.0
 21
6582.0
  0
LINE
  8
FS_OBJECT
  6
CONTINUOUS
 62
     7
 10
11139.0
 20
6660.0
 11
11127.0
 21
6657.0
  0
LINE
  8
FS_OBJECT
  6
CONTINUOUS
 62
     7
 10
11127.0
 20
6657.0
 11
11127.0
 21
6663.0
  0
LINE
  8
FS_OBJECT
  6
CONTINUOUS
 62
     7
 10
11127.0
 20
6663.0
 11
11139.0
 21
6660.0
  0
LINE
  8
FS_OBJECT
  6
CONTINUOUS
 62
     7
 10
11138.0
 20
6402.0
 11
11126.0
 21
6399.0
  0
LINE
  8
FS_OBJECT
  6
CONTINUOUS
 62
     7
 10
11126.0
 20
6399.0
 11
11126.0
 21
6405.0
  0
LINE
  8
FS_OBJECT
  6
CONTINUOUS
 62
     7
 10
11126.0
 20
6405.0
 11
11138.0
 21
6402.0
  0
LINE
  8
FS_OBJECT
  6
CONTINUOUS
 62
     7
 10
11138.0
 20
6606.0
 11
11126.0
 21
6603.0
  0
LINE
  8
FS_OBJECT
  6
CONTINUOUS
 62
     7
 10
11126.0
 20
6603.0
 11
11126.0
 21
6609.0
  0
LINE
  8
FS_OBJECT
  6
CONTINUOUS
 62
     7
 10
11126.0
 20
6609.0
 11
11138.0
 21
6606.0
  0
LINE
  8
FS_OBJECT
  6
CONTINUOUS
 62
     7
 10
10412.0
 20
6323.0
 11
10433.0
 21
6323.0
  0
LINE
  8
FS_OBJECT
  6
CONTINUOUS
 62
     7
 10
10433.0
 20
6323.0
 11
10433.0
 21
6300.0
  0
LINE
  8
FS_OBJECT
  6
CONTINUOUS
 62
     7
 10
10433.0
 20
6300.0
 11
10412.0
 21
6300.0
  0
LINE
  8
FS_OBJECT
  6
CONTINUOUS
 62
     7
 10
10412.0
 20
6300.0
 11
10412.0
 21
6323.0
  0
TEXT
  8
FS_OBJECT
 62
     7
 10
10418.60
 20
6309.25
 40
6.50
  1
12
 41
0.83
  0
TEXT
  8
FS_OBJECT
 62
     7
 10
10292.80
 20
6346.00
 40
12.00
  1
Water
 41
1.17
  0
TEXT
  8
FS_OBJECT
 62
     7
 10
10656.60
 20
6599.25
 40
6.50
  1
FAME
 41
1.03
  0
LINE
  8
FS_OBJECT
  6
CONTINUOUS
 62
     7
 10
10588.0
 20
6496.0
 11
10610.0
 21
6496.0
  0
LINE
  8
FS_OBJECT
  6
CONTINUOUS
 62
     7
 10
10610.0
 20
6496.0
 11
10610.0
 21
6473.0
  0
LINE
  8
FS_OBJECT
  6
CONTINUOUS
 62
     7
 10
10610.0
 20
6473.0
 11
10588.0
 21
6473.0
  0
LINE
  8
FS_OBJECT
  6
CONTINUOUS
 62
     7
 10
10588.0
 20
6473.0
 11
10588.0
 21
6496.0
  0
TEXT
  8
FS_OBJECT
 62
     7
 10
10594.60
 20
6482.25
 40
6.50
  1
18
 41
0.83
  0
CIRCLE
  8
FS_OBJECT
 62
     7
 10
10907.0
 20
6729.0
 40
13.0
  0
TEXT
  8
FS_OBJECT
 62
     7
 10
10902.60
 20
6727.25
 40
6.50
  1
16
 41
0.83
  0
LINE
  8
FS_OBJECT
  6
CONTINUOUS
 62
     7
 10
11021.0
 20
5968.0
 11
11013.0
 21
5959.0
  0
LINE
  8
FS_OBJECT
  6
CONTINUOUS
 62
     7
 10
11013.0
 20
5959.0
 11
11009.0
 21
5964.0
  0
LINE
  8
FS_OBJECT
  6
CONTINUOUS
 62
     7
 10
11009.0
 20
5964.0
 11
11021.0
 21
5968.0
  0
LINE
  8
FS_OBJECT
  6
CONTINUOUS
 62
     7
 10
10921.0
 20
5923.0
 11
10923.0
 21
5927.0
  0
LINE
  8
FS_OBJECT
  6
CONTINUOUS
 62
     7
 10
10923.0
 20
5927.0
 11
10925.0
 21
5929.0
  0
LINE
  8
FS_OBJECT
  6
CONTINUOUS
 62
     7
 10
10925.0
 20
5929.0
 11
10926.0
 21
5930.0
  0
LINE
  8
FS_OBJECT
  6
CONTINUOUS
 62
     7
 10
10926.0
 20
5930.0
 11
10932.0
 21
5933.0
  0
LINE
  8
FS_OBJECT
  6
CONTINUOUS
 62
     7
 10
10932.0
 20
5933.0
 11
10937.0
 21
5934.0
  0
LINE
  8
FS_OBJECT
  6
CONTINUOUS
 62
     7
 10
10937.0
 20
5934.0
 11
10943.0
 21
5935.0
  0
LINE
  8
FS_OBJECT
  6
CONTINUOUS
 62
     7
 10
10943.0
 20
5935.0
 11
10948.0
 21
5935.0
  0
LINE
  8
FS_OBJECT
  6
CONTINUOUS
 62
     7
 10
10948.0
 20
5935.0
 11
10954.0
 21
5935.0
  0
LINE
  8
FS_OBJECT
  6
CONTINUOUS
 62
     7
 10
10954.0
 20
5935.0
 11
10959.0
 21
5934.0
  0
LINE
  8
FS_OBJECT
  6
CONTINUOUS
 62
     7
 10
10959.0
 20
5934.0
 11
10965.0
 21
5933.0
  0
LINE
  8
FS_OBJECT
  6
CONTINUOUS
 62
     7
 10
10965.0
 20
5933.0
 11
10970.0
 21
5930.0
  0
LINE
  8
FS_OBJECT
  6
CONTINUOUS
 62
     7
 10
10970.0
 20
5930.0
 11
10972.0
 21
5929.0
  0
LINE
  8
FS_OBJECT
  6
CONTINUOUS
 62
     7
 10
10972.0
 20
5929.0
 11
10974.0
 21
5926.0
  0
LINE
  8
FS_OBJECT
  6
CONTINUOUS
 62
     7
 10
10974.0
 20
5926.0
 11
10976.0
 21
5923.0
  0
LINE
  8
FS_OBJECT
  6
CONTINUOUS
 62
     7
 10
10976.0
 20
5923.0
 11
10976.0
 21
5680.0
  0
LINE
  8
FS_OBJECT
  6
CONTINUOUS
 62
     7
 10
10976.0
 20
5680.0
 11
10975.0
 21
5678.0
  0
LINE
  8
FS_OBJECT
  6
CONTINUOUS
 62
     7
 10
10975.0
 20
5678.0
 11
10974.0
 21
5676.0
  0
LINE
  8
FS_OBJECT
  6
CONTINUOUS
 62
     7
 10
10974.0
 20
5676.0
 11
10970.0
 21
5673.0
  0
LINE
  8
FS_OBJECT
  6
CONTINUOUS
 62
     7
 10
10970.0
 20
5673.0
 11
10964.0
 21
5670.0
  0
LINE
  8
FS_OBJECT
  6
CONTINUOUS
 62
     7
 10
10964.0
 20
5670.0
 11
10959.0
 21
5669.0
  0
LINE
  8
FS_OBJECT
  6
CONTINUOUS
 62
     7
 10
10959.0
 20
5669.0
 11
10954.0
 21
5668.0
  0
LINE
  8
FS_OBJECT
  6
CONTINUOUS
 62
     7
 10
10954.0
 20
5668.0
 11
10948.0
 21
5668.0
  0
LINE
  8
FS_OBJECT
  6
CONTINUOUS
 62
     7
 10
10948.0
 20
5668.0
 11
10942.0
 21
5668.0
  0
LINE
  8
FS_OBJECT
  6
CONTINUOUS
 62
     7
 10
10942.0
 20
5668.0
 11
10937.0
 21
5669.0
  0
LINE
  8
FS_OBJECT
  6
CONTINUOUS
 62
     7
 10
10937.0
 20
5669.0
 11
10932.0
 21
5670.0
  0
LINE
  8
FS_OBJECT
  6
CONTINUOUS
 62
     7
 10
10932.0
 20
5670.0
 11
10930.0
 21
5671.0
  0
LINE
  8
FS_OBJECT
  6
CONTINUOUS
 62
     7
 10
10930.0
 20
5671.0
 11
10926.0
 21
5672.0
  0
LINE
  8
FS_OBJECT
  6
CONTINUOUS
 62
     7
 10
10926.0
 20
5672.0
 11
10923.0
 21
5675.0
  0
LINE
  8
FS_OBJECT
  6
CONTINUOUS
 62
     7
 10
10923.0
 20
5675.0
 11
10921.0
 21
5677.0
  0
LINE
  8
FS_OBJECT
  6
CONTINUOUS
 62
     7
 10
10921.0
 20
5677.0
 11
10921.0
 21
5680.0
  0
LINE
  8
FS_OBJECT
  6
CONTINUOUS
 62
     7
 10
10921.0
 20
5680.0
 11
10921.0
 21
5923.0
  0
LINE
  8
FS_OBJECT
  6
CONTINUOUS
 62
     7
 10
11022.0
 20
5635.0
 11
11011.0
 21
5640.0
  0
LINE
  8
FS_OBJECT
  6
CONTINUOUS
 62
     7
 10
11011.0
 20
5640.0
 11
11014.0
 21
5644.0
  0
LINE
  8
FS_OBJECT
  6
CONTINUOUS
 62
     7
 10
11014.0
 20
5644.0
 11
11022.0
 21
5635.0
  0
LINE
  8
FS_OBJECT
  6
CONTINUOUS
 62
     7
 10
10986.0
 20
5950.0
 11
10948.0
 21
5950.0
  0
LINE
  8
FS_OBJECT
  6
CONTINUOUS
 62
     7
 10
10948.0
 20
5950.0
 11
10948.0
 21
5936.0
  0
LINE
  8
FS_OBJECT
  6
CONTINUOUS
 62
     7
 10
10920.0
 20
5905.0
 11
10954.0
 21
5905.0
  0
LINE
  8
FS_OBJECT
  6
CONTINUOUS
 62
     7
 10
10943.0
 20
5870.0
 11
10976.0
 21
5870.0
  0
LINE
  8
FS_OBJECT
  6
CONTINUOUS
 62
     7
 10
10920.0
 20
5836.0
 11
10954.0
 21
5836.0
  0
LINE
  8
FS_OBJECT
  6
CONTINUOUS
 62
     7
 10
10943.0
 20
5801.0
 11
10976.0
 21
5801.0
  0
LINE
  8
FS_OBJECT
  6
CONTINUOUS
 62
     7
 10
10920.0
 20
5767.0
 11
10954.0
 21
5767.0
  0
LINE
  8
FS_OBJECT
  6
CONTINUOUS
 62
     7
 10
10921.0
 20
5923.0
 11
10976.0
 21
5923.0
  0
LINE
  8
FS_OBJECT
  6
CONTINUOUS
 62
     7
 10
11164.0
 20
5911.0
 11
11152.0
 21
5908.0
  0
LINE
  8
FS_OBJECT
  6
CONTINUOUS
 62
     7
 10
11152.0
 20
5908.0
 11
11152.0
 21
5914.0
  0
LINE
  8
FS_OBJECT
  6
CONTINUOUS
 62
     7
 10
11152.0
 20
5914.0
 11
11164.0
 21
5911.0
  0
LINE
  8
FS_OBJECT
  6
CONTINUOUS
 62
     7
 10
10920.0
 20
5810.0
 11
10908.0
 21
5807.0
  0
LINE
  8
FS_OBJECT
  6
CONTINUOUS
 62
     7
 10
10908.0
 20
5807.0
 11
10908.0
 21
5813.0
  0
LINE
  8
FS_OBJECT
  6
CONTINUOUS
 62
     7
 10
10908.0
 20
5813.0
 11
10920.0
 21
5810.0
  0
LINE
  8
FS_OBJECT
  6
CONTINUOUS
 62
     7
 10
10596.0
 20
6042.0
 11
10596.0
 21
5809.0
  0
LINE
  8
FS_OBJECT
  6
CONTINUOUS
 62
     7
 10
10596.0
 20
5809.0
 11
10920.0
 21
5809.0
  0
LINE
  8
FS_OBJECT
  6
CONTINUOUS
 62
     7
 10
10586.0
 20
5931.0
 11
10608.0
 21
5931.0
  0
LINE
  8
FS_OBJECT
  6
CONTINUOUS
 62
     7
 10
10608.0
 20
5931.0
 11
10608.0
 21
5908.0
  0
LINE
  8
FS_OBJECT
  6
CONTINUOUS
 62
     7
 10
10608.0
 20
5908.0
 11
10586.0
 21
5908.0
  0
LINE
  8
FS_OBJECT
  6
CONTINUOUS
 62
     7
 10
10586.0
 20
5908.0
 11
10586.0
 21
5931.0
  0
TEXT
  8
FS_OBJECT
 62
     7
 10
10592.60
 20
5917.25
 40
6.50
  1
16
 41
0.83
  0
LINE
  8
FS_OBJECT
  6
CONTINUOUS
 62
     7
 10
11163.0
 20
5653.0
 11
11151.0
 21
5650.0
  0
LINE
  8
FS_OBJECT
  6
CONTINUOUS
 62
     7
 10
11151.0
 20
5650.0
 11
11151.0
 21
5656.0
  0
LINE
  8
FS_OBJECT
  6
CONTINUOUS
 62
     7
 10
11151.0
 20
5656.0
 11
11163.0
 21
5653.0
  0
CIRCLE
  8
FS_OBJECT
 62
     7
 10
10904.0
 20
5980.0
 40
13.0
  0
TEXT
  8
FS_OBJECT
 62
     7
 10
10899.60
 20
5978.25
 40
6.50
  1
21
 41
0.83
  0
TEXT
  8
FS_OBJECT
 62
     7
 10
9476.40
 20
6910.25
 40
18.50
  1
Acid-catalyzed production of biodiesel (FAME)
 41
1.28
  0
TEXT
  8
FS_OBJECT
 62
     7
 10
8988.80
 20
6768.00
 40
12.00
  1
Methanol rec
 41
1.27
  0
TEXT
  8
FS_OBJECT
 62
     7
 10
8460.80
 20
6268.00
 40
12.00
  1
Transesterification
 41
1.29
  0
TEXT
  8
FS_OBJECT
 62
     7
 10
9210.80
 20
6364.00
 40
12.00
  1
Methanol Removal
 41
1.28
  0
TEXT
  8
FS_OBJECT
 62
     7
 10
9682.80
 20
5950.00
 40
12.00
  1
Catalyst Removal
 41
1.28
  0
LINE
  8
FS_OBJECT
  6
CONTINUOUS
 62
     7
 10
7951.0
 20
6655.0
 11
7980.0
 21
6655.0
  0
LINE
  8
FS_OBJECT
  6
CONTINUOUS
 62
     7
 10
7980.0
 20
6655.0
 11
7980.0
 21
6632.0
  0
LINE
  8
FS_OBJECT
  6
CONTINUOUS
 62
     7
 10
7980.0
 20
6632.0
 11
7951.0
 21
6632.0
  0
LINE
  8
FS_OBJECT
  6
CONTINUOUS
 62
     7
 10
7951.0
 20
6632.0
 11
7951.0
 21
6655.0
  0
TEXT
  8
FS_OBJECT
 62
     7
 10
7957.60
 20
6641.25
 40
6.50
  1
103
 41
0.96
  0
ENDSEC
  0
EOF
