  0
SECTION
  2
HEADER
  9
$EXTMIN
 10
7967.0
 20
5859.0
  9
$EXTMAX
 10
8535.0
 20
6217.0
  9
$LIMMIN
 10
7807.0
 20
5741.0
  9
$LIMMAX
 10
8601.0
 20
6158.0
  9
$LTSCALE
 40
200.0
  0
ENDSEC
  0
SECTION
  2
TABLES
  0
TABLE
  2
LTYPE
 70
     7
  0
LTYPE
  2
CONTINUOUS
 70
    64
  3
Solid line
 72
    65
 73
     0
 40
0.0
  0
LTYPE
  2
DASHED
 70
    64
  3
__ __ __ __ __ __ __ __ __ __ __ __ __ __ __
 72
    65
 73
     2
 40
0.75
 49
0.5
 49
-0.25
  0
LTYPE
  2
HIDDEN
 70
    64
  3
_ _ _ _ _ _ _ _ _ _ _ _ _ _ _ _ _ _ _ _ _ _ _
 72
    65
 73
     2
 40
0.375
 49
0.25
 49
-0.125
  0
LTYPE
  2
DOT
 70
    64
  3
...............................................
 72
    65
 73
     2
 40
0.25
 49
0.0
 49
-0.25
  0
LTYPE
  2
BORDER
 70
    64
  3
__ __ . __ __ . __ __ . __ __ . __ __ . __ __
 72
    65
 73
     6
 40
1.75
 49
0.5
 49
-0.25
 49
0.5
 49
-0.25
 49
0.0
 49
-0.25
  0
LTYPE
  2
CENTER
 70
    64
  3
____ _ ____ _ ____ _ ____ _ ____ _ ____ _ ____
 72
    65
 73
     4
 40
2.0
 49
1.25
 49
-0.25
 49
0.25
 49
-0.25
  0
LTYPE
  2
DIVIDE
 70
    64
  3
__ . . __ . . __ . . __ . . __ . . __ . . __
 72
    65
 73
     6
 40
1.25
 49
0.5
 49
-0.25
 49
0.0
 49
-0.25
 49
0.0
 49
-0.25
  0
ENDTAB
  0
TABLE
  2
LAYER
 70
    6
  0
LAYER
  2
0
 70
     0
 62
     7
  6
CONTINUOUS
  0
LAYER
  2
BORDER
 70
     0
 62
     7
  6
CONTINUOUS
  0
LAYER
  2
FS_OBJECT
 70
     0
 62
     7
  6
CONTINUOUS
  0
LAYER
  2
ICON
 70
     0
 62
     7
  6
CONTINUOUS
  0
LAYER
  2
PFD_OBJECT
 70
     0
 62
     7
  6
CONTINUOUS
  0
LAYER
  2
XY_PLOT
 70
     0
 62
     7
  6
CONTINUOUS
  0
ENDTAB
  0
TABLE
  2
STYLE
 70
     1
  0
STYLE
  2
STANDARD
 70
     0
 40
0.0
 41
1.0
 50
0.0
 71
     0
 42
0.2
  3
MONOTXT
  4

  0
ENDTAB
  0
TABLE
  2
VIEW
 70
     0
  0
ENDTAB
  0
ENDSEC
  0
SECTION
  2
BLOCKS
  0
ENDSEC
  0
SECTION
  2
ENTITIES
  0
LINE
  8
FS_OBJECT
  6
CONTINUOUS
 62
     7
 10
8042.0
 20
6086.0
 11
8050.0
 21
6086.0
  0
LINE
  8
FS_OBJECT
  6
CONTINUOUS
 62
     7
 10
7975.0
 20
6093.0
 11
8023.0
 21
6093.0
  0
LINE
  8
FS_OBJECT
  6
CONTINUOUS
 62
     7
 10
8023.0
 20
6093.0
 11
8023.0
 21
6099.0
  0
LINE
  8
FS_OBJECT
  6
CONTINUOUS
 62
     7
 10
8023.0
 20
6099.0
 11
8042.0
 21
6086.0
  0
LINE
  8
FS_OBJECT
  6
CONTINUOUS
 62
     7
 10
8042.0
 20
6086.0
 11
8023.0
 21
6074.0
  0
LINE
  8
FS_OBJECT
  6
CONTINUOUS
 62
     7
 10
8023.0
 20
6074.0
 11
8023.0
 21
6080.0
  0
LINE
  8
FS_OBJECT
  6
CONTINUOUS
 62
     7
 10
8023.0
 20
6080.0
 11
7975.0
 21
6080.0
  0
LINE
  8
FS_OBJECT
  6
CONTINUOUS
 62
     7
 10
7975.0
 20
6080.0
 11
7975.0
 21
6093.0
  0
LINE
  8
FS_OBJECT
  6
CONTINUOUS
 62
     7
 10
8035.0
 20
5929.0
 11
8043.0
 21
5929.0
  0
LINE
  8
FS_OBJECT
  6
CONTINUOUS
 62
     7
 10
7968.0
 20
5936.0
 11
8016.0
 21
5936.0
  0
LINE
  8
FS_OBJECT
  6
CONTINUOUS
 62
     7
 10
8016.0
 20
5936.0
 11
8016.0
 21
5942.0
  0
LINE
  8
FS_OBJECT
  6
CONTINUOUS
 62
     7
 10
8016.0
 20
5942.0
 11
8035.0
 21
5929.0
  0
LINE
  8
FS_OBJECT
  6
CONTINUOUS
 62
     7
 10
8035.0
 20
5929.0
 11
8016.0
 21
5917.0
  0
LINE
  8
FS_OBJECT
  6
CONTINUOUS
 62
     7
 10
8016.0
 20
5917.0
 11
8016.0
 21
5923.0
  0
LINE
  8
FS_OBJECT
  6
CONTINUOUS
 62
     7
 10
8016.0
 20
5923.0
 11
7968.0
 21
5923.0
  0
LINE
  8
FS_OBJECT
  6
CONTINUOUS
 62
     7
 10
7968.0
 20
5923.0
 11
7968.0
 21
5936.0
  0
LINE
  8
FS_OBJECT
  6
CONTINUOUS
 62
     7
 10
8441.0
 20
6134.0
 11
8449.0
 21
6134.0
  0
LINE
  8
FS_OBJECT
  6
CONTINUOUS
 62
     7
 10
8449.0
 20
6141.0
 11
8496.0
 21
6141.0
  0
LINE
  8
FS_OBJECT
  6
CONTINUOUS
 62
     7
 10
8496.0
 20
6141.0
 11
8496.0
 21
6147.0
  0
LINE
  8
FS_OBJECT
  6
CONTINUOUS
 62
     7
 10
8496.0
 20
6147.0
 11
8515.0
 21
6134.0
  0
LINE
  8
FS_OBJECT
  6
CONTINUOUS
 62
     7
 10
8515.0
 20
6134.0
 11
8496.0
 21
6122.0
  0
LINE
  8
FS_OBJECT
  6
CONTINUOUS
 62
     7
 10
8496.0
 20
6122.0
 11
8496.0
 21
6128.0
  0
LINE
  8
FS_OBJECT
  6
CONTINUOUS
 62
     7
 10
8496.0
 20
6128.0
 11
8449.0
 21
6128.0
  0
LINE
  8
FS_OBJECT
  6
CONTINUOUS
 62
     7
 10
8449.0
 20
6128.0
 11
8449.0
 21
6141.0
  0
CIRCLE
  8
FS_OBJECT
 62
     7
 10
8292.0
 20
6174.0
 40
16.0
  0
LINE
  8
FS_OBJECT
  6
CONTINUOUS
 62
     7
 10
8285.0
 20
6174.0
 11
8311.0
 21
6192.0
  0
LINE
  8
FS_OBJECT
  6
CONTINUOUS
 62
     7
 10
8311.0
 20
6192.0
 11
8303.0
 21
6183.0
  0
LINE
  8
FS_OBJECT
  6
CONTINUOUS
 62
     7
 10
8303.0
 20
6183.0
 11
8299.0
 21
6188.0
  0
LINE
  8
FS_OBJECT
  6
CONTINUOUS
 62
     7
 10
8299.0
 20
6188.0
 11
8311.0
 21
6192.0
  0
LINE
  8
FS_OBJECT
  6
CONTINUOUS
 62
     7
 10
8211.0
 20
6147.0
 11
8213.0
 21
6151.0
  0
LINE
  8
FS_OBJECT
  6
CONTINUOUS
 62
     7
 10
8213.0
 20
6151.0
 11
8215.0
 21
6153.0
  0
LINE
  8
FS_OBJECT
  6
CONTINUOUS
 62
     7
 10
8215.0
 20
6153.0
 11
8216.0
 21
6154.0
  0
LINE
  8
FS_OBJECT
  6
CONTINUOUS
 62
     7
 10
8216.0
 20
6154.0
 11
8222.0
 21
6157.0
  0
LINE
  8
FS_OBJECT
  6
CONTINUOUS
 62
     7
 10
8222.0
 20
6157.0
 11
8227.0
 21
6158.0
  0
LINE
  8
FS_OBJECT
  6
CONTINUOUS
 62
     7
 10
8227.0
 20
6158.0
 11
8233.0
 21
6159.0
  0
LINE
  8
FS_OBJECT
  6
CONTINUOUS
 62
     7
 10
8233.0
 20
6159.0
 11
8238.0
 21
6159.0
  0
LINE
  8
FS_OBJECT
  6
CONTINUOUS
 62
     7
 10
8238.0
 20
6159.0
 11
8244.0
 21
6159.0
  0
LINE
  8
FS_OBJECT
  6
CONTINUOUS
 62
     7
 10
8244.0
 20
6159.0
 11
8249.0
 21
6158.0
  0
LINE
  8
FS_OBJECT
  6
CONTINUOUS
 62
     7
 10
8249.0
 20
6158.0
 11
8255.0
 21
6157.0
  0
LINE
  8
FS_OBJECT
  6
CONTINUOUS
 62
     7
 10
8255.0
 20
6157.0
 11
8260.0
 21
6154.0
  0
LINE
  8
FS_OBJECT
  6
CONTINUOUS
 62
     7
 10
8260.0
 20
6154.0
 11
8262.0
 21
6153.0
  0
LINE
  8
FS_OBJECT
  6
CONTINUOUS
 62
     7
 10
8262.0
 20
6153.0
 11
8264.0
 21
6150.0
  0
LINE
  8
FS_OBJECT
  6
CONTINUOUS
 62
     7
 10
8264.0
 20
6150.0
 11
8266.0
 21
6147.0
  0
LINE
  8
FS_OBJECT
  6
CONTINUOUS
 62
     7
 10
8266.0
 20
6147.0
 11
8266.0
 21
5904.0
  0
LINE
  8
FS_OBJECT
  6
CONTINUOUS
 62
     7
 10
8266.0
 20
5904.0
 11
8265.0
 21
5902.0
  0
LINE
  8
FS_OBJECT
  6
CONTINUOUS
 62
     7
 10
8265.0
 20
5902.0
 11
8264.0
 21
5900.0
  0
LINE
  8
FS_OBJECT
  6
CONTINUOUS
 62
     7
 10
8264.0
 20
5900.0
 11
8260.0
 21
5897.0
  0
LINE
  8
FS_OBJECT
  6
CONTINUOUS
 62
     7
 10
8260.0
 20
5897.0
 11
8254.0
 21
5894.0
  0
LINE
  8
FS_OBJECT
  6
CONTINUOUS
 62
     7
 10
8254.0
 20
5894.0
 11
8249.0
 21
5893.0
  0
LINE
  8
FS_OBJECT
  6
CONTINUOUS
 62
     7
 10
8249.0
 20
5893.0
 11
8244.0
 21
5892.0
  0
LINE
  8
FS_OBJECT
  6
CONTINUOUS
 62
     7
 10
8244.0
 20
5892.0
 11
8238.0
 21
5892.0
  0
LINE
  8
FS_OBJECT
  6
CONTINUOUS
 62
     7
 10
8238.0
 20
5892.0
 11
8232.0
 21
5892.0
  0
LINE
  8
FS_OBJECT
  6
CONTINUOUS
 62
     7
 10
8232.0
 20
5892.0
 11
8227.0
 21
5893.0
  0
LINE
  8
FS_OBJECT
  6
CONTINUOUS
 62
     7
 10
8227.0
 20
5893.0
 11
8222.0
 21
5894.0
  0
LINE
  8
FS_OBJECT
  6
CONTINUOUS
 62
     7
 10
8222.0
 20
5894.0
 11
8220.0
 21
5895.0
  0
LINE
  8
FS_OBJECT
  6
CONTINUOUS
 62
     7
 10
8220.0
 20
5895.0
 11
8216.0
 21
5896.0
  0
LINE
  8
FS_OBJECT
  6
CONTINUOUS
 62
     7
 10
8216.0
 20
5896.0
 11
8213.0
 21
5899.0
  0
LINE
  8
FS_OBJECT
  6
CONTINUOUS
 62
     7
 10
8213.0
 20
5899.0
 11
8211.0
 21
5901.0
  0
LINE
  8
FS_OBJECT
  6
CONTINUOUS
 62
     7
 10
8211.0
 20
5901.0
 11
8211.0
 21
5904.0
  0
LINE
  8
FS_OBJECT
  6
CONTINUOUS
 62
     7
 10
8211.0
 20
5904.0
 11
8211.0
 21
6147.0
  0
LINE
  8
FS_OBJECT
  6
CONTINUOUS
 62
     7
 10
8275.0
 20
6156.0
 11
8300.0
 21
6174.0
  0
LINE
  8
FS_OBJECT
  6
CONTINUOUS
 62
     7
 10
8300.0
 20
6174.0
 11
8287.0
 21
6174.0
  0
LINE
  8
FS_OBJECT
  6
CONTINUOUS
 62
     7
 10
8312.0
 20
5859.0
 11
8301.0
 21
5864.0
  0
LINE
  8
FS_OBJECT
  6
CONTINUOUS
 62
     7
 10
8301.0
 20
5864.0
 11
8304.0
 21
5868.0
  0
LINE
  8
FS_OBJECT
  6
CONTINUOUS
 62
     7
 10
8304.0
 20
5868.0
 11
8312.0
 21
5859.0
  0
LINE
  8
FS_OBJECT
  6
CONTINUOUS
 62
     7
 10
8276.0
 20
6174.0
 11
8238.0
 21
6174.0
  0
LINE
  8
FS_OBJECT
  6
CONTINUOUS
 62
     7
 10
8238.0
 20
6174.0
 11
8238.0
 21
6160.0
  0
LINE
  8
FS_OBJECT
  6
CONTINUOUS
 62
     7
 10
8292.0
 20
6135.0
 11
8330.0
 21
6135.0
  0
LINE
  8
FS_OBJECT
  6
CONTINUOUS
 62
     7
 10
8210.0
 20
6129.0
 11
8244.0
 21
6129.0
  0
LINE
  8
FS_OBJECT
  6
CONTINUOUS
 62
     7
 10
8233.0
 20
6094.0
 11
8266.0
 21
6094.0
  0
LINE
  8
FS_OBJECT
  6
CONTINUOUS
 62
     7
 10
8210.0
 20
6060.0
 11
8244.0
 21
6060.0
  0
LINE
  8
FS_OBJECT
  6
CONTINUOUS
 62
     7
 10
8233.0
 20
6025.0
 11
8266.0
 21
6025.0
  0
LINE
  8
FS_OBJECT
  6
CONTINUOUS
 62
     7
 10
8210.0
 20
5991.0
 11
8244.0
 21
5991.0
  0
LINE
  8
FS_OBJECT
  6
CONTINUOUS
 62
     7
 10
8233.0
 20
5957.0
 11
8266.0
 21
5957.0
  0
LINE
  8
FS_OBJECT
  6
CONTINUOUS
 62
     7
 10
8210.0
 20
5922.0
 11
8244.0
 21
5922.0
  0
LINE
  8
FS_OBJECT
  6
CONTINUOUS
 62
     7
 10
8292.0
 20
6157.0
 11
8292.0
 21
6135.0
  0
LINE
  8
FS_OBJECT
  6
CONTINUOUS
 62
     7
 10
8292.0
 20
6135.0
 11
8266.0
 21
6135.0
  0
LINE
  8
FS_OBJECT
  6
CONTINUOUS
 62
     7
 10
8211.0
 20
6147.0
 11
8266.0
 21
6147.0
  0
CIRCLE
  8
FS_OBJECT
 62
     7
 10
8194.0
 20
6204.0
 40
13.0
  0
TEXT
  8
FS_OBJECT
 62
     7
 10
8192.60
 20
6202.25
 40
6.50
  1
1
 41
0.74
  0
LINE
  8
FS_OBJECT
  6
CONTINUOUS
 62
     7
 10
8210.0
 20
6086.0
 11
8198.0
 21
6083.0
  0
LINE
  8
FS_OBJECT
  6
CONTINUOUS
 62
     7
 10
8198.0
 20
6083.0
 11
8198.0
 21
6089.0
  0
LINE
  8
FS_OBJECT
  6
CONTINUOUS
 62
     7
 10
8198.0
 20
6089.0
 11
8210.0
 21
6086.0
  0
LINE
  8
FS_OBJECT
  6
CONTINUOUS
 62
     7
 10
8042.0
 20
6086.0
 11
8133.0
 21
6086.0
  0
LINE
  8
FS_OBJECT
  6
CONTINUOUS
 62
     7
 10
8133.0
 20
6086.0
 11
8133.0
 21
6086.0
  0
LINE
  8
FS_OBJECT
  6
CONTINUOUS
 62
     7
 10
8133.0
 20
6086.0
 11
8210.0
 21
6086.0
  0
LINE
  8
FS_OBJECT
  6
CONTINUOUS
 62
     7
 10
8070.0
 20
6095.0
 11
8091.0
 21
6095.0
  0
LINE
  8
FS_OBJECT
  6
CONTINUOUS
 62
     7
 10
8091.0
 20
6095.0
 11
8091.0
 21
6072.0
  0
LINE
  8
FS_OBJECT
  6
CONTINUOUS
 62
     7
 10
8091.0
 20
6072.0
 11
8070.0
 21
6072.0
  0
LINE
  8
FS_OBJECT
  6
CONTINUOUS
 62
     7
 10
8070.0
 20
6072.0
 11
8070.0
 21
6095.0
  0
TEXT
  8
FS_OBJECT
 62
     7
 10
8079.60
 20
6082.25
 40
6.50
  1
1
 41
0.74
  0
LINE
  8
FS_OBJECT
  6
CONTINUOUS
 62
     7
 10
8210.0
 20
5929.0
 11
8198.0
 21
5926.0
  0
LINE
  8
FS_OBJECT
  6
CONTINUOUS
 62
     7
 10
8198.0
 20
5926.0
 11
8198.0
 21
5932.0
  0
LINE
  8
FS_OBJECT
  6
CONTINUOUS
 62
     7
 10
8198.0
 20
5932.0
 11
8210.0
 21
5929.0
  0
LINE
  8
FS_OBJECT
  6
CONTINUOUS
 62
     7
 10
8035.0
 20
5929.0
 11
8146.0
 21
5929.0
  0
LINE
  8
FS_OBJECT
  6
CONTINUOUS
 62
     7
 10
8146.0
 20
5929.0
 11
8146.0
 21
5929.0
  0
LINE
  8
FS_OBJECT
  6
CONTINUOUS
 62
     7
 10
8146.0
 20
5929.0
 11
8210.0
 21
5929.0
  0
LINE
  8
FS_OBJECT
  6
CONTINUOUS
 62
     7
 10
8056.0
 20
5938.0
 11
8078.0
 21
5938.0
  0
LINE
  8
FS_OBJECT
  6
CONTINUOUS
 62
     7
 10
8078.0
 20
5938.0
 11
8078.0
 21
5915.0
  0
LINE
  8
FS_OBJECT
  6
CONTINUOUS
 62
     7
 10
8078.0
 20
5915.0
 11
8056.0
 21
5915.0
  0
LINE
  8
FS_OBJECT
  6
CONTINUOUS
 62
     7
 10
8056.0
 20
5915.0
 11
8056.0
 21
5938.0
  0
TEXT
  8
FS_OBJECT
 62
     7
 10
8065.60
 20
5925.25
 40
6.50
  1
2
 41
0.74
  0
LINE
  8
FS_OBJECT
  6
CONTINUOUS
 62
     7
 10
8447.0
 20
6135.0
 11
8435.0
 21
6132.0
  0
LINE
  8
FS_OBJECT
  6
CONTINUOUS
 62
     7
 10
8435.0
 20
6132.0
 11
8435.0
 21
6138.0
  0
LINE
  8
FS_OBJECT
  6
CONTINUOUS
 62
     7
 10
8435.0
 20
6138.0
 11
8447.0
 21
6135.0
  0
LINE
  8
FS_OBJECT
  6
CONTINUOUS
 62
     7
 10
8330.0
 20
6135.0
 11
8387.0
 21
6135.0
  0
LINE
  8
FS_OBJECT
  6
CONTINUOUS
 62
     7
 10
8387.0
 20
6135.0
 11
8387.0
 21
6135.0
  0
LINE
  8
FS_OBJECT
  6
CONTINUOUS
 62
     7
 10
8387.0
 20
6135.0
 11
8447.0
 21
6135.0
  0
LINE
  8
FS_OBJECT
  6
CONTINUOUS
 62
     7
 10
8350.0
 20
6144.0
 11
8371.0
 21
6144.0
  0
LINE
  8
FS_OBJECT
  6
CONTINUOUS
 62
     7
 10
8371.0
 20
6144.0
 11
8371.0
 21
6121.0
  0
LINE
  8
FS_OBJECT
  6
CONTINUOUS
 62
     7
 10
8371.0
 20
6121.0
 11
8350.0
 21
6121.0
  0
LINE
  8
FS_OBJECT
  6
CONTINUOUS
 62
     7
 10
8350.0
 20
6121.0
 11
8350.0
 21
6144.0
  0
TEXT
  8
FS_OBJECT
 62
     7
 10
8359.60
 20
6131.25
 40
6.50
  1
3
 41
0.74
  0
LINE
  8
FS_OBJECT
  6
CONTINUOUS
 62
     7
 10
8466.0
 20
5877.0
 11
8454.0
 21
5874.0
  0
LINE
  8
FS_OBJECT
  6
CONTINUOUS
 62
     7
 10
8454.0
 20
5874.0
 11
8454.0
 21
5880.0
  0
LINE
  8
FS_OBJECT
  6
CONTINUOUS
 62
     7
 10
8454.0
 20
5880.0
 11
8466.0
 21
5877.0
  0
TEXT
  8
FS_OBJECT
 62
     7
 10
8082.60
 20
6106.25
 40
6.50
  1
Acetic Acid
 41
1.16
  0
TEXT
  8
FS_OBJECT
 62
     7
 10
8085.60
 20
5949.25
 40
6.50
  1
Ethanol
 41
1.12
  0
TEXT
  8
FS_OBJECT
 62
     7
 10
8353.60
 20
6155.25
 40
6.50
  1
Product Mix
 41
1.16
  0
ENDSEC
  0
EOF
