  0
SECTION
  2
HEADER
  9
$EXTMIN
 10
7783.0
 20
5466.0
  9
$EXTMAX
 10
9765.0
 20
6417.0
  9
$LIMMIN
 10
7778.0
 20
5300.0
  9
$LIMMAX
 10
9583.0
 20
6248.0
  9
$LTSCALE
 40
200.0
  0
ENDSEC
  0
SECTION
  2
TABLES
  0
TABLE
  2
LTYPE
 70
     7
  0
LTYPE
  2
CONTINUOUS
 70
    64
  3
Solid line
 72
    65
 73
     0
 40
0.0
  0
LTYPE
  2
DASHED
 70
    64
  3
__ __ __ __ __ __ __ __ __ __ __ __ __ __ __
 72
    65
 73
     2
 40
0.75
 49
0.5
 49
-0.25
  0
LTYPE
  2
HIDDEN
 70
    64
  3
_ _ _ _ _ _ _ _ _ _ _ _ _ _ _ _ _ _ _ _ _ _ _
 72
    65
 73
     2
 40
0.375
 49
0.25
 49
-0.125
  0
LTYPE
  2
DOT
 70
    64
  3
...............................................
 72
    65
 73
     2
 40
0.25
 49
0.0
 49
-0.25
  0
LTYPE
  2
BORDER
 70
    64
  3
__ __ . __ __ . __ __ . __ __ . __ __ . __ __
 72
    65
 73
     6
 40
1.75
 49
0.5
 49
-0.25
 49
0.5
 49
-0.25
 49
0.0
 49
-0.25
  0
LTYPE
  2
CENTER
 70
    64
  3
____ _ ____ _ ____ _ ____ _ ____ _ ____ _ ____
 72
    65
 73
     4
 40
2.0
 49
1.25
 49
-0.25
 49
0.25
 49
-0.25
  0
LTYPE
  2
DIVIDE
 70
    64
  3
__ . . __ . . __ . . __ . . __ . . __ . . __
 72
    65
 73
     6
 40
1.25
 49
0.5
 49
-0.25
 49
0.0
 49
-0.25
 49
0.0
 49
-0.25
  0
ENDTAB
  0
TABLE
  2
LAYER
 70
    6
  0
LAYER
  2
0
 70
     0
 62
     7
  6
CONTINUOUS
  0
LAYER
  2
BORDER
 70
     0
 62
     7
  6
CONTINUOUS
  0
LAYER
  2
FS_OBJECT
 70
     0
 62
     7
  6
CONTINUOUS
  0
LAYER
  2
ICON
 70
     0
 62
     7
  6
CONTINUOUS
  0
LAYER
  2
PFD_OBJECT
 70
     0
 62
     7
  6
CONTINUOUS
  0
LAYER
  2
XY_PLOT
 70
     0
 62
     7
  6
CONTINUOUS
  0
ENDTAB
  0
TABLE
  2
STYLE
 70
     1
  0
STYLE
  2
STANDARD
 70
     0
 40
0.0
 41
1.0
 50
0.0
 71
     0
 42
0.2
  3
MONOTXT
  4

  0
ENDTAB
  0
TABLE
  2
VIEW
 70
     0
  0
ENDTAB
  0
ENDSEC
  0
SECTION
  2
BLOCKS
  0
ENDSEC
  0
SECTION
  2
ENTITIES
  0
LINE
  8
FS_OBJECT
  6
CONTINUOUS
 62
     7
 10
7796.0
 20
5667.0
 11
7854.0
 21
5667.0
  0
LINE
  8
FS_OBJECT
  6
CONTINUOUS
 62
     7
 10
7854.0
 20
5667.0
 11
7868.0
 21
5657.0
  0
LINE
  8
FS_OBJECT
  6
CONTINUOUS
 62
     7
 10
7868.0
 20
5657.0
 11
7854.0
 21
5648.0
  0
LINE
  8
FS_OBJECT
  6
CONTINUOUS
 62
     7
 10
7854.0
 20
5648.0
 11
7796.0
 21
5648.0
  0
LINE
  8
FS_OBJECT
  6
CONTINUOUS
 62
     7
 10
7796.0
 20
5648.0
 11
7810.0
 21
5657.0
  0
LINE
  8
FS_OBJECT
  6
CONTINUOUS
 62
     7
 10
7810.0
 20
5657.0
 11
7796.0
 21
5667.0
  0
LINE
  8
FS_OBJECT
  6
CONTINUOUS
 62
     7
 10
7868.0
 20
5657.0
 11
7876.0
 21
5657.0
  0
LINE
  8
FS_OBJECT
  6
CONTINUOUS
 62
     7
 10
8062.0
 20
5623.0
 11
8094.0
 21
5623.0
  0
LINE
  8
FS_OBJECT
  6
CONTINUOUS
 62
     7
 10
8094.0
 20
5623.0
 11
8084.0
 21
5639.0
  0
LINE
  8
FS_OBJECT
  6
CONTINUOUS
 62
     7
 10
8084.0
 20
5639.0
 11
8046.0
 21
5639.0
  0
LINE
  8
FS_OBJECT
  6
CONTINUOUS
 62
     7
 10
8046.0
 20
5639.0
 11
8036.0
 21
5623.0
  0
LINE
  8
FS_OBJECT
  6
CONTINUOUS
 62
     7
 10
8036.0
 20
5623.0
 11
8062.0
 21
5623.0
  0
CIRCLE
  8
FS_OBJECT
 62
     7
 10
8065.0
 20
5658.0
 40
27.0
  0
LINE
  8
FS_OBJECT
  6
CONTINUOUS
 62
     7
 10
8066.0
 20
5683.0
 11
8096.0
 21
5683.0
  0
LINE
  8
FS_OBJECT
  6
CONTINUOUS
 62
     7
 10
8096.0
 20
5683.0
 11
8084.0
 21
5680.0
  0
LINE
  8
FS_OBJECT
  6
CONTINUOUS
 62
     7
 10
8084.0
 20
5680.0
 11
8084.0
 21
5686.0
  0
LINE
  8
FS_OBJECT
  6
CONTINUOUS
 62
     7
 10
8084.0
 20
5686.0
 11
8096.0
 21
5683.0
  0
CIRCLE
  8
FS_OBJECT
 62
     7
 10
8026.0
 20
5703.0
 40
23.0
  0
TEXT
  8
FS_OBJECT
 62
     7
 10
8024.20
 20
5700.00
 40
12.00
  1
1
 41
0.80
  0
LINE
  8
FS_OBJECT
  6
CONTINUOUS
 62
     7
 10
8163.0
 20
5810.0
 11
8191.0
 21
5810.0
  0
LINE
  8
FS_OBJECT
  6
CONTINUOUS
 62
     7
 10
8191.0
 20
5810.0
 11
8191.0
 21
5782.0
  0
LINE
  8
FS_OBJECT
  6
CONTINUOUS
 62
     7
 10
8191.0
 20
5782.0
 11
8163.0
 21
5782.0
  0
LINE
  8
FS_OBJECT
  6
CONTINUOUS
 62
     7
 10
8163.0
 20
5782.0
 11
8163.0
 21
5810.0
  0
LINE
  8
FS_OBJECT
  6
CONTINUOUS
 62
     7
 10
8163.0
 20
5810.0
 11
8191.0
 21
5782.0
  0
LINE
  8
FS_OBJECT
  6
CONTINUOUS
 62
     7
 10
8191.0
 20
5810.0
 11
8163.0
 21
5782.0
  0
CIRCLE
  8
FS_OBJECT
 62
     7
 10
8143.0
 20
5826.0
 40
22.0
  0
TEXT
  8
FS_OBJECT
 62
     7
 10
8141.20
 20
5822.00
 40
12.00
  1
2
 41
0.80
  0
CIRCLE
  8
FS_OBJECT
 62
     7
 10
8332.0
 20
5796.0
 40
18.0
  0
LINE
  8
FS_OBJECT
  6
CONTINUOUS
 62
     7
 10
8320.0
 20
5808.0
 11
8346.0
 21
5808.0
  0
LINE
  8
FS_OBJECT
  6
CONTINUOUS
 62
     7
 10
8346.0
 20
5808.0
 11
8346.0
 21
5783.0
  0
LINE
  8
FS_OBJECT
  6
CONTINUOUS
 62
     7
 10
8346.0
 20
5783.0
 11
8320.0
 21
5783.0
  0
LINE
  8
FS_OBJECT
  6
CONTINUOUS
 62
     7
 10
8320.0
 20
5783.0
 11
8320.0
 21
5808.0
  0
LINE
  8
FS_OBJECT
  6
CONTINUOUS
 62
     7
 10
8320.0
 20
5808.0
 11
8346.0
 21
5783.0
  0
LINE
  8
FS_OBJECT
  6
CONTINUOUS
 62
     7
 10
8346.0
 20
5808.0
 11
8320.0
 21
5783.0
  0
CIRCLE
  8
FS_OBJECT
 62
     7
 10
8300.0
 20
5859.0
 40
26.0
  0
TEXT
  8
FS_OBJECT
 62
     7
 10
8297.20
 20
5858.00
 40
12.00
  1
3
 41
0.80
  0
CIRCLE
  8
FS_OBJECT
 62
     7
 10
8507.0
 20
5797.0
 40
29.0
  0
LINE
  8
FS_OBJECT
  6
CONTINUOUS
 62
     7
 10
8474.0
 20
5765.0
 11
8519.0
 21
5796.0
  0
LINE
  8
FS_OBJECT
  6
CONTINUOUS
 62
     7
 10
8519.0
 20
5796.0
 11
8496.0
 21
5796.0
  0
LINE
  8
FS_OBJECT
  6
CONTINUOUS
 62
     7
 10
8496.0
 20
5796.0
 11
8541.0
 21
5828.0
  0
LINE
  8
FS_OBJECT
  6
CONTINUOUS
 62
     7
 10
8541.0
 20
5828.0
 11
8533.0
 21
5819.0
  0
LINE
  8
FS_OBJECT
  6
CONTINUOUS
 62
     7
 10
8533.0
 20
5819.0
 11
8529.0
 21
5823.0
  0
LINE
  8
FS_OBJECT
  6
CONTINUOUS
 62
     7
 10
8529.0
 20
5823.0
 11
8541.0
 21
5828.0
  0
ARC
  8
FS_OBJECT
 62
     7
 10
8486.50
 20
5853.0
 40
5.50
 50
0.0
 51
53.13
  0
ARC
  8
FS_OBJECT
 62
     7
 10
8470.0
 20
5831.0
 40
33.00
 50
53.13
 51
90.0
  0
ARC
  8
FS_OBJECT
 62
     7
 10
8470.0
 20
5831.0
 40
33.00
 50
90.0
 51
126.87
  0
ARC
  8
FS_OBJECT
 62
     7
 10
8453.50
 20
5853.0
 40
5.50
 50
126.87
 51
180.0
  0
ARC
  8
FS_OBJECT
 62
     7
 10
8453.50
 20
5853.0
 40
5.50
 50
180.0
 51
233.13
  0
ARC
  8
FS_OBJECT
 62
     7
 10
8470.0
 20
5875.0
 40
33.00
 50
233.13
 51
270.0
  0
ARC
  8
FS_OBJECT
 62
     7
 10
8470.0
 20
5875.0
 40
33.00
 50
270.0
 51
306.87
  0
ARC
  8
FS_OBJECT
 62
     7
 10
8486.50
 20
5853.0
 40
5.50
 50
306.87
 51
0.0
  0
TEXT
  8
FS_OBJECT
 62
     7
 10
8468.20
 20
5849.00
 40
12.00
  1
4
 41
0.80
  0
ARC
  8
FS_OBJECT
 62
     7
 10
8640.00
 20
5684.0
 40
10.00
 50
0.0
 51
53.13
  0
ARC
  8
FS_OBJECT
 62
     7
 10
8610.0
 20
5644.0
 40
60.00
 50
53.13
 51
90.0
  0
ARC
  8
FS_OBJECT
 62
     7
 10
8610.0
 20
5644.0
 40
60.00
 50
90.0
 51
126.87
  0
ARC
  8
FS_OBJECT
 62
     7
 10
8580.00
 20
5684.0
 40
10.00
 50
126.87
 51
180.0
  0
ARC
  8
FS_OBJECT
 62
     7
 10
8580.00
 20
5684.0
 40
10.00
 50
180.0
 51
233.13
  0
ARC
  8
FS_OBJECT
 62
     7
 10
8610.0
 20
5724.0
 40
60.00
 50
233.13
 51
270.0
  0
ARC
  8
FS_OBJECT
 62
     7
 10
8610.0
 20
5724.0
 40
60.00
 50
270.0
 51
306.87
  0
ARC
  8
FS_OBJECT
 62
     7
 10
8640.00
 20
5684.0
 40
10.00
 50
306.87
 51
0.0
  0
LINE
  8
FS_OBJECT
  6
CONTINUOUS
 62
     7
 10
8570.0
 20
5683.0
 11
8651.0
 21
5683.0
  0
LINE
  8
FS_OBJECT
  6
CONTINUOUS
 62
     7
 10
8651.0
 20
5683.0
 11
8651.0
 21
5562.0
  0
LINE
  8
FS_OBJECT
  6
CONTINUOUS
 62
     7
 10
8651.0
 20
5562.0
 11
8570.0
 21
5562.0
  0
LINE
  8
FS_OBJECT
  6
CONTINUOUS
 62
     7
 10
8570.0
 20
5562.0
 11
8570.0
 21
5683.0
  0
LINE
  8
FS_OBJECT
  6
CONTINUOUS
 62
     7
 10
8570.0
 20
5683.0
 11
8651.0
 21
5562.0
  0
LINE
  8
FS_OBJECT
  6
CONTINUOUS
 62
     7
 10
8570.0
 20
5562.0
 11
8651.0
 21
5683.0
  0
CIRCLE
  8
FS_OBJECT
 62
     7
 10
8543.0
 20
5664.0
 40
20.0
  0
TEXT
  8
FS_OBJECT
 62
     7
 10
8542.20
 20
5659.00
 40
12.00
  1
5
 41
0.80
  0
LINE
  8
FS_OBJECT
  6
CONTINUOUS
 62
     7
 10
8789.0
 20
5467.0
 11
8777.0
 21
5472.0
  0
LINE
  8
FS_OBJECT
  6
CONTINUOUS
 62
     7
 10
8777.0
 20
5472.0
 11
8781.0
 21
5476.0
  0
LINE
  8
FS_OBJECT
  6
CONTINUOUS
 62
     7
 10
8781.0
 20
5476.0
 11
8789.0
 21
5467.0
  0
ARC
  8
FS_OBJECT
 62
     7
 10
8939.00
 20
5687.0
 40
10.00
 50
0.0
 51
53.13
  0
ARC
  8
FS_OBJECT
 62
     7
 10
8909.0
 20
5647.0
 40
60.00
 50
53.13
 51
90.0
  0
ARC
  8
FS_OBJECT
 62
     7
 10
8909.0
 20
5647.0
 40
60.00
 50
90.0
 51
126.87
  0
ARC
  8
FS_OBJECT
 62
     7
 10
8879.00
 20
5687.0
 40
10.00
 50
126.87
 51
180.0
  0
ARC
  8
FS_OBJECT
 62
     7
 10
8879.00
 20
5687.0
 40
10.00
 50
180.0
 51
233.13
  0
ARC
  8
FS_OBJECT
 62
     7
 10
8909.0
 20
5727.0
 40
60.00
 50
233.13
 51
270.0
  0
ARC
  8
FS_OBJECT
 62
     7
 10
8909.0
 20
5727.0
 40
60.00
 50
270.0
 51
306.87
  0
ARC
  8
FS_OBJECT
 62
     7
 10
8939.00
 20
5687.0
 40
10.00
 50
306.87
 51
0.0
  0
LINE
  8
FS_OBJECT
  6
CONTINUOUS
 62
     7
 10
8869.0
 20
5686.0
 11
8950.0
 21
5686.0
  0
LINE
  8
FS_OBJECT
  6
CONTINUOUS
 62
     7
 10
8950.0
 20
5686.0
 11
8950.0
 21
5565.0
  0
LINE
  8
FS_OBJECT
  6
CONTINUOUS
 62
     7
 10
8950.0
 20
5565.0
 11
8869.0
 21
5565.0
  0
LINE
  8
FS_OBJECT
  6
CONTINUOUS
 62
     7
 10
8869.0
 20
5565.0
 11
8869.0
 21
5686.0
  0
LINE
  8
FS_OBJECT
  6
CONTINUOUS
 62
     7
 10
8869.0
 20
5686.0
 11
8950.0
 21
5565.0
  0
LINE
  8
FS_OBJECT
  6
CONTINUOUS
 62
     7
 10
8869.0
 20
5565.0
 11
8950.0
 21
5686.0
  0
CIRCLE
  8
FS_OBJECT
 62
     7
 10
8981.0
 20
5675.0
 40
25.0
  0
TEXT
  8
FS_OBJECT
 62
     7
 10
8978.20
 20
5673.00
 40
12.00
  1
7
 41
0.80
  0
LINE
  8
FS_OBJECT
  6
CONTINUOUS
 62
     7
 10
9080.0
 20
5476.0
 11
9068.0
 21
5481.0
  0
LINE
  8
FS_OBJECT
  6
CONTINUOUS
 62
     7
 10
9068.0
 20
5481.0
 11
9072.0
 21
5485.0
  0
LINE
  8
FS_OBJECT
  6
CONTINUOUS
 62
     7
 10
9072.0
 20
5485.0
 11
9080.0
 21
5476.0
  0
CIRCLE
  8
FS_OBJECT
 62
     7
 10
9191.0
 20
5655.0
 40
29.0
  0
LINE
  8
FS_OBJECT
  6
CONTINUOUS
 62
     7
 10
9160.0
 20
5621.0
 11
9192.0
 21
5666.0
  0
LINE
  8
FS_OBJECT
  6
CONTINUOUS
 62
     7
 10
9192.0
 20
5666.0
 11
9192.0
 21
5643.0
  0
LINE
  8
FS_OBJECT
  6
CONTINUOUS
 62
     7
 10
9192.0
 20
5643.0
 11
9223.0
 21
5688.0
  0
LINE
  8
FS_OBJECT
  6
CONTINUOUS
 62
     7
 10
9223.0
 20
5688.0
 11
9219.0
 21
5676.0
  0
LINE
  8
FS_OBJECT
  6
CONTINUOUS
 62
     7
 10
9219.0
 20
5676.0
 11
9214.0
 21
5680.0
  0
LINE
  8
FS_OBJECT
  6
CONTINUOUS
 62
     7
 10
9214.0
 20
5680.0
 11
9223.0
 21
5688.0
  0
CIRCLE
  8
FS_OBJECT
 62
     7
 10
9133.0
 20
5665.0
 40
21.0
  0
TEXT
  8
FS_OBJECT
 62
     7
 10
9131.20
 20
5661.00
 40
12.00
  1
9
 41
0.80
  0
ARC
  8
FS_OBJECT
 62
     7
 10
9337.25
 20
5717.0
 40
4.75
 50
0.0
 51
53.13
  0
ARC
  8
FS_OBJECT
 62
     7
 10
9323.0
 20
5698.0
 40
28.50
 50
53.13
 51
90.0
  0
ARC
  8
FS_OBJECT
 62
     7
 10
9323.0
 20
5698.0
 40
28.50
 50
90.0
 51
126.87
  0
ARC
  8
FS_OBJECT
 62
     7
 10
9308.75
 20
5717.0
 40
4.75
 50
126.87
 51
180.0
  0
ARC
  8
FS_OBJECT
 62
     7
 10
9308.75
 20
5717.0
 40
4.75
 50
180.0
 51
233.13
  0
ARC
  8
FS_OBJECT
 62
     7
 10
9323.0
 20
5736.0
 40
28.50
 50
233.13
 51
270.0
  0
ARC
  8
FS_OBJECT
 62
     7
 10
9323.0
 20
5736.0
 40
28.50
 50
270.0
 51
306.87
  0
ARC
  8
FS_OBJECT
 62
     7
 10
9337.25
 20
5717.0
 40
4.75
 50
306.87
 51
0.0
  0
ARC
  8
FS_OBJECT
 62
     7
 10
9337.25
 20
5784.0
 40
4.75
 50
0.0
 51
53.13
  0
ARC
  8
FS_OBJECT
 62
     7
 10
9323.0
 20
5765.0
 40
28.50
 50
53.13
 51
90.0
  0
ARC
  8
FS_OBJECT
 62
     7
 10
9323.0
 20
5765.0
 40
28.50
 50
90.0
 51
126.87
  0
ARC
  8
FS_OBJECT
 62
     7
 10
9308.75
 20
5784.0
 40
4.75
 50
126.87
 51
180.0
  0
ARC
  8
FS_OBJECT
 62
     7
 10
9308.75
 20
5784.0
 40
4.75
 50
180.0
 51
233.13
  0
ARC
  8
FS_OBJECT
 62
     7
 10
9323.0
 20
5803.0
 40
28.50
 50
233.13
 51
270.0
  0
ARC
  8
FS_OBJECT
 62
     7
 10
9323.0
 20
5803.0
 40
28.50
 50
270.0
 51
306.87
  0
ARC
  8
FS_OBJECT
 62
     7
 10
9337.25
 20
5784.0
 40
4.75
 50
306.87
 51
0.0
  0
LINE
  8
FS_OBJECT
  6
CONTINUOUS
 62
     7
 10
9304.0
 20
5784.0
 11
9342.0
 21
5784.0
  0
LINE
  8
FS_OBJECT
  6
CONTINUOUS
 62
     7
 10
9342.0
 20
5784.0
 11
9342.0
 21
5717.0
  0
LINE
  8
FS_OBJECT
  6
CONTINUOUS
 62
     7
 10
9342.0
 20
5717.0
 11
9304.0
 21
5717.0
  0
LINE
  8
FS_OBJECT
  6
CONTINUOUS
 62
     7
 10
9304.0
 20
5717.0
 11
9304.0
 21
5784.0
  0
LINE
  8
FS_OBJECT
  6
CONTINUOUS
 62
     7
 10
9304.0
 20
5776.0
 11
9342.0
 21
5776.0
  0
LINE
  8
FS_OBJECT
  6
CONTINUOUS
 62
     7
 10
9342.0
 20
5776.0
 11
9342.0
 21
5769.0
  0
LINE
  8
FS_OBJECT
  6
CONTINUOUS
 62
     7
 10
9342.0
 20
5769.0
 11
9304.0
 21
5769.0
  0
LINE
  8
FS_OBJECT
  6
CONTINUOUS
 62
     7
 10
9304.0
 20
5769.0
 11
9304.0
 21
5776.0
  0
CIRCLE
  8
FS_OBJECT
 62
     7
 10
9282.0
 20
5818.0
 40
23.0
  0
TEXT
  8
FS_OBJECT
 62
     7
 10
9274.80
 20
5815.00
 40
12.00
  1
10
 41
0.93
  0
LINE
  8
FS_OBJECT
  6
CONTINUOUS
 62
     7
 10
9308.0
 20
5973.0
 11
9336.0
 21
5973.0
  0
LINE
  8
FS_OBJECT
  6
CONTINUOUS
 62
     7
 10
9336.0
 20
5973.0
 11
9336.0
 21
5945.0
  0
LINE
  8
FS_OBJECT
  6
CONTINUOUS
 62
     7
 10
9336.0
 20
5945.0
 11
9308.0
 21
5945.0
  0
LINE
  8
FS_OBJECT
  6
CONTINUOUS
 62
     7
 10
9308.0
 20
5945.0
 11
9308.0
 21
5973.0
  0
LINE
  8
FS_OBJECT
  6
CONTINUOUS
 62
     7
 10
9308.0
 20
5945.0
 11
9336.0
 21
5973.0
  0
LINE
  8
FS_OBJECT
  6
CONTINUOUS
 62
     7
 10
9308.0
 20
5973.0
 11
9336.0
 21
5945.0
  0
CIRCLE
  8
FS_OBJECT
 62
     7
 10
9269.0
 20
5962.0
 40
23.0
  0
TEXT
  8
FS_OBJECT
 62
     7
 10
9260.80
 20
5959.00
 40
12.00
  1
11
 41
0.93
  0
LINE
  8
FS_OBJECT
  6
CONTINUOUS
 62
     7
 10
9308.0
 20
6134.0
 11
9336.0
 21
6134.0
  0
LINE
  8
FS_OBJECT
  6
CONTINUOUS
 62
     7
 10
9336.0
 20
6134.0
 11
9336.0
 21
6106.0
  0
LINE
  8
FS_OBJECT
  6
CONTINUOUS
 62
     7
 10
9336.0
 20
6106.0
 11
9308.0
 21
6106.0
  0
LINE
  8
FS_OBJECT
  6
CONTINUOUS
 62
     7
 10
9308.0
 20
6106.0
 11
9308.0
 21
6134.0
  0
LINE
  8
FS_OBJECT
  6
CONTINUOUS
 62
     7
 10
9308.0
 20
6106.0
 11
9336.0
 21
6134.0
  0
LINE
  8
FS_OBJECT
  6
CONTINUOUS
 62
     7
 10
9308.0
 20
6134.0
 11
9336.0
 21
6106.0
  0
CIRCLE
  8
FS_OBJECT
 62
     7
 10
9304.0
 20
6171.0
 40
28.0
  0
TEXT
  8
FS_OBJECT
 62
     7
 10
9293.80
 20
6171.00
 40
12.00
  1
12
 41
0.93
  0
LINE
  8
FS_OBJECT
  6
CONTINUOUS
 62
     7
 10
9022.0
 20
6169.0
 11
9022.0
 21
6101.0
  0
LINE
  8
FS_OBJECT
  6
CONTINUOUS
 62
     7
 10
9022.0
 20
6101.0
 11
8988.0
 21
6118.0
  0
LINE
  8
FS_OBJECT
  6
CONTINUOUS
 62
     7
 10
8988.0
 20
6118.0
 11
8988.0
 21
6152.0
  0
LINE
  8
FS_OBJECT
  6
CONTINUOUS
 62
     7
 10
8988.0
 20
6152.0
 11
9022.0
 21
6169.0
  0
CIRCLE
  8
FS_OBJECT
 62
     7
 10
9003.0
 20
6069.0
 40
26.0
  0
TEXT
  8
FS_OBJECT
 62
     7
 10
8993.80
 20
6068.00
 40
12.00
  1
13
 41
0.93
  0
ARC
  8
FS_OBJECT
 62
     7
 10
9540.25
 20
5718.0
 40
4.75
 50
0.0
 51
53.13
  0
ARC
  8
FS_OBJECT
 62
     7
 10
9526.0
 20
5699.0
 40
28.50
 50
53.13
 51
90.0
  0
ARC
  8
FS_OBJECT
 62
     7
 10
9526.0
 20
5699.0
 40
28.50
 50
90.0
 51
126.87
  0
ARC
  8
FS_OBJECT
 62
     7
 10
9511.75
 20
5718.0
 40
4.75
 50
126.87
 51
180.0
  0
ARC
  8
FS_OBJECT
 62
     7
 10
9511.75
 20
5718.0
 40
4.75
 50
180.0
 51
233.13
  0
ARC
  8
FS_OBJECT
 62
     7
 10
9526.0
 20
5737.0
 40
28.50
 50
233.13
 51
270.0
  0
ARC
  8
FS_OBJECT
 62
     7
 10
9526.0
 20
5737.0
 40
28.50
 50
270.0
 51
306.87
  0
ARC
  8
FS_OBJECT
 62
     7
 10
9540.25
 20
5718.0
 40
4.75
 50
306.87
 51
0.0
  0
ARC
  8
FS_OBJECT
 62
     7
 10
9540.25
 20
5785.0
 40
4.75
 50
0.0
 51
53.13
  0
ARC
  8
FS_OBJECT
 62
     7
 10
9526.0
 20
5766.0
 40
28.50
 50
53.13
 51
90.0
  0
ARC
  8
FS_OBJECT
 62
     7
 10
9526.0
 20
5766.0
 40
28.50
 50
90.0
 51
126.87
  0
ARC
  8
FS_OBJECT
 62
     7
 10
9511.75
 20
5785.0
 40
4.75
 50
126.87
 51
180.0
  0
ARC
  8
FS_OBJECT
 62
     7
 10
9511.75
 20
5785.0
 40
4.75
 50
180.0
 51
233.13
  0
ARC
  8
FS_OBJECT
 62
     7
 10
9526.0
 20
5804.0
 40
28.50
 50
233.13
 51
270.0
  0
ARC
  8
FS_OBJECT
 62
     7
 10
9526.0
 20
5804.0
 40
28.50
 50
270.0
 51
306.87
  0
ARC
  8
FS_OBJECT
 62
     7
 10
9540.25
 20
5785.0
 40
4.75
 50
306.87
 51
0.0
  0
LINE
  8
FS_OBJECT
  6
CONTINUOUS
 62
     7
 10
9507.0
 20
5785.0
 11
9545.0
 21
5785.0
  0
LINE
  8
FS_OBJECT
  6
CONTINUOUS
 62
     7
 10
9545.0
 20
5785.0
 11
9545.0
 21
5718.0
  0
LINE
  8
FS_OBJECT
  6
CONTINUOUS
 62
     7
 10
9545.0
 20
5718.0
 11
9507.0
 21
5718.0
  0
LINE
  8
FS_OBJECT
  6
CONTINUOUS
 62
     7
 10
9507.0
 20
5718.0
 11
9507.0
 21
5785.0
  0
LINE
  8
FS_OBJECT
  6
CONTINUOUS
 62
     7
 10
9507.0
 20
5777.0
 11
9545.0
 21
5777.0
  0
LINE
  8
FS_OBJECT
  6
CONTINUOUS
 62
     7
 10
9545.0
 20
5777.0
 11
9545.0
 21
5770.0
  0
LINE
  8
FS_OBJECT
  6
CONTINUOUS
 62
     7
 10
9545.0
 20
5770.0
 11
9507.0
 21
5770.0
  0
LINE
  8
FS_OBJECT
  6
CONTINUOUS
 62
     7
 10
9507.0
 20
5770.0
 11
9507.0
 21
5777.0
  0
CIRCLE
  8
FS_OBJECT
 62
     7
 10
9583.0
 20
5755.0
 40
25.0
  0
TEXT
  8
FS_OBJECT
 62
     7
 10
9574.80
 20
5753.00
 40
12.00
  1
15
 41
0.93
  0
LINE
  8
FS_OBJECT
  6
CONTINUOUS
 62
     7
 10
9481.0
 20
5980.0
 11
9481.0
 21
5912.0
  0
LINE
  8
FS_OBJECT
  6
CONTINUOUS
 62
     7
 10
9481.0
 20
5912.0
 11
9447.0
 21
5929.0
  0
LINE
  8
FS_OBJECT
  6
CONTINUOUS
 62
     7
 10
9447.0
 20
5929.0
 11
9447.0
 21
5963.0
  0
LINE
  8
FS_OBJECT
  6
CONTINUOUS
 62
     7
 10
9447.0
 20
5963.0
 11
9481.0
 21
5980.0
  0
CIRCLE
  8
FS_OBJECT
 62
     7
 10
9439.0
 20
6005.0
 40
25.0
  0
TEXT
  8
FS_OBJECT
 62
     7
 10
9430.80
 20
6004.00
 40
12.00
  1
16
 41
0.93
  0
LINE
  8
FS_OBJECT
  6
CONTINUOUS
 62
     7
 10
9382.0
 20
6382.0
 11
9382.0
 21
6314.0
  0
LINE
  8
FS_OBJECT
  6
CONTINUOUS
 62
     7
 10
9382.0
 20
6314.0
 11
9348.0
 21
6331.0
  0
LINE
  8
FS_OBJECT
  6
CONTINUOUS
 62
     7
 10
9348.0
 20
6331.0
 11
9348.0
 21
6365.0
  0
LINE
  8
FS_OBJECT
  6
CONTINUOUS
 62
     7
 10
9348.0
 20
6365.0
 11
9382.0
 21
6382.0
  0
CIRCLE
  8
FS_OBJECT
 62
     7
 10
9363.0
 20
6282.0
 40
27.0
  0
TEXT
  8
FS_OBJECT
 62
     7
 10
9353.80
 20
6282.00
 40
12.00
  1
17
 41
0.93
  0
LINE
  8
FS_OBJECT
  6
CONTINUOUS
 62
     7
 10
8967.0
 20
6383.0
 11
8967.0
 21
6315.0
  0
LINE
  8
FS_OBJECT
  6
CONTINUOUS
 62
     7
 10
8967.0
 20
6315.0
 11
8933.0
 21
6332.0
  0
LINE
  8
FS_OBJECT
  6
CONTINUOUS
 62
     7
 10
8933.0
 20
6332.0
 11
8933.0
 21
6366.0
  0
LINE
  8
FS_OBJECT
  6
CONTINUOUS
 62
     7
 10
8933.0
 20
6366.0
 11
8967.0
 21
6383.0
  0
CIRCLE
  8
FS_OBJECT
 62
     7
 10
9109.0
 20
6328.0
 40
29.0
  0
LINE
  8
FS_OBJECT
  6
CONTINUOUS
 62
     7
 10
9143.0
 20
6359.0
 11
9098.0
 21
6328.0
  0
LINE
  8
FS_OBJECT
  6
CONTINUOUS
 62
     7
 10
9098.0
 20
6328.0
 11
9121.0
 21
6328.0
  0
LINE
  8
FS_OBJECT
  6
CONTINUOUS
 62
     7
 10
9121.0
 20
6328.0
 11
9076.0
 21
6296.0
  0
LINE
  8
FS_OBJECT
  6
CONTINUOUS
 62
     7
 10
9076.0
 20
6296.0
 11
9084.0
 21
6305.0
  0
LINE
  8
FS_OBJECT
  6
CONTINUOUS
 62
     7
 10
9084.0
 20
6305.0
 11
9088.0
 21
6301.0
  0
LINE
  8
FS_OBJECT
  6
CONTINUOUS
 62
     7
 10
9088.0
 20
6301.0
 11
9076.0
 21
6296.0
  0
CIRCLE
  8
FS_OBJECT
 62
     7
 10
7996.0
 20
6133.0
 40
29.0
  0
LINE
  8
FS_OBJECT
  6
CONTINUOUS
 62
     7
 10
7965.0
 20
6166.0
 11
7996.0
 21
6121.0
  0
LINE
  8
FS_OBJECT
  6
CONTINUOUS
 62
     7
 10
7996.0
 20
6121.0
 11
7996.0
 21
6144.0
  0
LINE
  8
FS_OBJECT
  6
CONTINUOUS
 62
     7
 10
7996.0
 20
6144.0
 11
8028.0
 21
6099.0
  0
LINE
  8
FS_OBJECT
  6
CONTINUOUS
 62
     7
 10
8028.0
 20
6099.0
 11
8019.0
 21
6107.0
  0
LINE
  8
FS_OBJECT
  6
CONTINUOUS
 62
     7
 10
8019.0
 20
6107.0
 11
8023.0
 21
6111.0
  0
LINE
  8
FS_OBJECT
  6
CONTINUOUS
 62
     7
 10
8023.0
 20
6111.0
 11
8028.0
 21
6099.0
  0
CIRCLE
  8
FS_OBJECT
 62
     7
 10
8044.0
 20
6198.0
 40
23.0
  0
TEXT
  8
FS_OBJECT
 62
     7
 10
8036.80
 20
6195.00
 40
12.00
  1
24
 41
0.93
  0
LINE
  8
FS_OBJECT
  6
CONTINUOUS
 62
     7
 10
8038.0
 20
5658.0
 11
8026.0
 21
5655.0
  0
LINE
  8
FS_OBJECT
  6
CONTINUOUS
 62
     7
 10
8026.0
 20
5655.0
 11
8026.0
 21
5661.0
  0
LINE
  8
FS_OBJECT
  6
CONTINUOUS
 62
     7
 10
8026.0
 20
5661.0
 11
8038.0
 21
5658.0
  0
LINE
  8
FS_OBJECT
  6
CONTINUOUS
 62
     7
 10
7868.0
 20
5657.0
 11
7970.0
 21
5657.0
  0
LINE
  8
FS_OBJECT
  6
CONTINUOUS
 62
     7
 10
7970.0
 20
5657.0
 11
7970.0
 21
5658.0
  0
LINE
  8
FS_OBJECT
  6
CONTINUOUS
 62
     7
 10
7970.0
 20
5658.0
 11
8038.0
 21
5658.0
  0
LINE
  8
FS_OBJECT
  6
CONTINUOUS
 62
     7
 10
7909.0
 20
5669.0
 11
7948.0
 21
5669.0
  0
LINE
  8
FS_OBJECT
  6
CONTINUOUS
 62
     7
 10
7948.0
 20
5669.0
 11
7948.0
 21
5627.0
  0
LINE
  8
FS_OBJECT
  6
CONTINUOUS
 62
     7
 10
7948.0
 20
5627.0
 11
7909.0
 21
5627.0
  0
LINE
  8
FS_OBJECT
  6
CONTINUOUS
 62
     7
 10
7909.0
 20
5627.0
 11
7909.0
 21
5669.0
  0
TEXT
  8
FS_OBJECT
 62
     7
 10
7926.20
 20
5646.00
 40
12.00
  1
1
 41
0.80
  0
LINE
  8
FS_OBJECT
  6
CONTINUOUS
 62
     7
 10
8177.0
 20
5783.0
 11
8180.0
 21
5771.0
  0
LINE
  8
FS_OBJECT
  6
CONTINUOUS
 62
     7
 10
8180.0
 20
5771.0
 11
8174.0
 21
5771.0
  0
LINE
  8
FS_OBJECT
  6
CONTINUOUS
 62
     7
 10
8174.0
 20
5771.0
 11
8177.0
 21
5783.0
  0
LINE
  8
FS_OBJECT
  6
CONTINUOUS
 62
     7
 10
8096.0
 20
5683.0
 11
8096.0
 21
5684.0
  0
LINE
  8
FS_OBJECT
  6
CONTINUOUS
 62
     7
 10
8096.0
 20
5684.0
 11
8177.0
 21
5684.0
  0
LINE
  8
FS_OBJECT
  6
CONTINUOUS
 62
     7
 10
8177.0
 20
5684.0
 11
8177.0
 21
5782.0
  0
LINE
  8
FS_OBJECT
  6
CONTINUOUS
 62
     7
 10
8114.0
 20
5704.0
 11
8157.0
 21
5704.0
  0
LINE
  8
FS_OBJECT
  6
CONTINUOUS
 62
     7
 10
8157.0
 20
5704.0
 11
8157.0
 21
5657.0
  0
LINE
  8
FS_OBJECT
  6
CONTINUOUS
 62
     7
 10
8157.0
 20
5657.0
 11
8114.0
 21
5657.0
  0
LINE
  8
FS_OBJECT
  6
CONTINUOUS
 62
     7
 10
8114.0
 20
5657.0
 11
8114.0
 21
5704.0
  0
TEXT
  8
FS_OBJECT
 62
     7
 10
8133.20
 20
5679.00
 40
12.00
  1
2
 41
0.80
  0
LINE
  8
FS_OBJECT
  6
CONTINUOUS
 62
     7
 10
8313.0
 20
5796.0
 11
8301.0
 21
5793.0
  0
LINE
  8
FS_OBJECT
  6
CONTINUOUS
 62
     7
 10
8301.0
 20
5793.0
 11
8301.0
 21
5799.0
  0
LINE
  8
FS_OBJECT
  6
CONTINUOUS
 62
     7
 10
8301.0
 20
5799.0
 11
8313.0
 21
5796.0
  0
LINE
  8
FS_OBJECT
  6
CONTINUOUS
 62
     7
 10
8191.0
 20
5796.0
 11
8261.0
 21
5796.0
  0
LINE
  8
FS_OBJECT
  6
CONTINUOUS
 62
     7
 10
8261.0
 20
5796.0
 11
8261.0
 21
5796.0
  0
LINE
  8
FS_OBJECT
  6
CONTINUOUS
 62
     7
 10
8261.0
 20
5796.0
 11
8314.0
 21
5796.0
  0
LINE
  8
FS_OBJECT
  6
CONTINUOUS
 62
     7
 10
8212.0
 20
5815.0
 11
8253.0
 21
5815.0
  0
LINE
  8
FS_OBJECT
  6
CONTINUOUS
 62
     7
 10
8253.0
 20
5815.0
 11
8253.0
 21
5771.0
  0
LINE
  8
FS_OBJECT
  6
CONTINUOUS
 62
     7
 10
8253.0
 20
5771.0
 11
8212.0
 21
5771.0
  0
LINE
  8
FS_OBJECT
  6
CONTINUOUS
 62
     7
 10
8212.0
 20
5771.0
 11
8212.0
 21
5815.0
  0
TEXT
  8
FS_OBJECT
 62
     7
 10
8230.20
 20
5791.00
 40
12.00
  1
3
 41
0.80
  0
LINE
  8
FS_OBJECT
  6
CONTINUOUS
 62
     7
 10
8478.0
 20
5797.0
 11
8466.0
 21
5794.0
  0
LINE
  8
FS_OBJECT
  6
CONTINUOUS
 62
     7
 10
8466.0
 20
5794.0
 11
8466.0
 21
5800.0
  0
LINE
  8
FS_OBJECT
  6
CONTINUOUS
 62
     7
 10
8466.0
 20
5800.0
 11
8478.0
 21
5797.0
  0
LINE
  8
FS_OBJECT
  6
CONTINUOUS
 62
     7
 10
8351.0
 20
5796.0
 11
8416.0
 21
5796.0
  0
LINE
  8
FS_OBJECT
  6
CONTINUOUS
 62
     7
 10
8416.0
 20
5796.0
 11
8416.0
 21
5796.0
  0
LINE
  8
FS_OBJECT
  6
CONTINUOUS
 62
     7
 10
8416.0
 20
5796.0
 11
8478.0
 21
5796.0
  0
LINE
  8
FS_OBJECT
  6
CONTINUOUS
 62
     7
 10
8375.0
 20
5815.0
 11
8410.0
 21
5815.0
  0
LINE
  8
FS_OBJECT
  6
CONTINUOUS
 62
     7
 10
8410.0
 20
5815.0
 11
8410.0
 21
5777.0
  0
LINE
  8
FS_OBJECT
  6
CONTINUOUS
 62
     7
 10
8410.0
 20
5777.0
 11
8375.0
 21
5777.0
  0
LINE
  8
FS_OBJECT
  6
CONTINUOUS
 62
     7
 10
8375.0
 20
5777.0
 11
8375.0
 21
5815.0
  0
TEXT
  8
FS_OBJECT
 62
     7
 10
8391.20
 20
5792.00
 40
12.00
  1
4
 41
0.80
  0
LINE
  8
FS_OBJECT
  6
CONTINUOUS
 62
     7
 10
8610.0
 20
5704.0
 11
8607.0
 21
5716.0
  0
LINE
  8
FS_OBJECT
  6
CONTINUOUS
 62
     7
 10
8607.0
 20
5716.0
 11
8613.0
 21
5716.0
  0
LINE
  8
FS_OBJECT
  6
CONTINUOUS
 62
     7
 10
8613.0
 20
5716.0
 11
8610.0
 21
5704.0
  0
LINE
  8
FS_OBJECT
  6
CONTINUOUS
 62
     7
 10
8537.0
 20
5796.0
 11
8611.0
 21
5796.0
  0
LINE
  8
FS_OBJECT
  6
CONTINUOUS
 62
     7
 10
8611.0
 20
5796.0
 11
8611.0
 21
5704.0
  0
LINE
  8
FS_OBJECT
  6
CONTINUOUS
 62
     7
 10
8564.0
 20
5817.0
 11
8601.0
 21
5817.0
  0
LINE
  8
FS_OBJECT
  6
CONTINUOUS
 62
     7
 10
8601.0
 20
5817.0
 11
8601.0
 21
5777.0
  0
LINE
  8
FS_OBJECT
  6
CONTINUOUS
 62
     7
 10
8601.0
 20
5777.0
 11
8564.0
 21
5777.0
  0
LINE
  8
FS_OBJECT
  6
CONTINUOUS
 62
     7
 10
8564.0
 20
5777.0
 11
8564.0
 21
5817.0
  0
TEXT
  8
FS_OBJECT
 62
     7
 10
8581.20
 20
5794.00
 40
12.00
  1
5
 41
0.80
  0
LINE
  8
FS_OBJECT
  6
CONTINUOUS
 62
     7
 10
8726.0
 20
5499.0
 11
8714.0
 21
5496.0
  0
LINE
  8
FS_OBJECT
  6
CONTINUOUS
 62
     7
 10
8714.0
 20
5496.0
 11
8714.0
 21
5502.0
  0
LINE
  8
FS_OBJECT
  6
CONTINUOUS
 62
     7
 10
8714.0
 20
5502.0
 11
8726.0
 21
5499.0
  0
LINE
  8
FS_OBJECT
  6
CONTINUOUS
 62
     7
 10
8909.0
 20
5707.0
 11
8906.0
 21
5719.0
  0
LINE
  8
FS_OBJECT
  6
CONTINUOUS
 62
     7
 10
8906.0
 20
5719.0
 11
8912.0
 21
5719.0
  0
LINE
  8
FS_OBJECT
  6
CONTINUOUS
 62
     7
 10
8912.0
 20
5719.0
 11
8909.0
 21
5707.0
  0
LINE
  8
FS_OBJECT
  6
CONTINUOUS
 62
     7
 10
8785.0
 20
5498.0
 11
8812.0
 21
5498.0
  0
LINE
  8
FS_OBJECT
  6
CONTINUOUS
 62
     7
 10
8812.0
 20
5498.0
 11
8812.0
 21
5797.0
  0
LINE
  8
FS_OBJECT
  6
CONTINUOUS
 62
     7
 10
8812.0
 20
5797.0
 11
8910.0
 21
5797.0
  0
LINE
  8
FS_OBJECT
  6
CONTINUOUS
 62
     7
 10
8910.0
 20
5797.0
 11
8910.0
 21
5707.0
  0
LINE
  8
FS_OBJECT
  6
CONTINUOUS
 62
     7
 10
9017.0
 20
5508.0
 11
9005.0
 21
5505.0
  0
LINE
  8
FS_OBJECT
  6
CONTINUOUS
 62
     7
 10
9005.0
 20
5505.0
 11
9005.0
 21
5511.0
  0
LINE
  8
FS_OBJECT
  6
CONTINUOUS
 62
     7
 10
9005.0
 20
5511.0
 11
9017.0
 21
5508.0
  0
LINE
  8
FS_OBJECT
  6
CONTINUOUS
 62
     7
 10
9191.0
 20
5626.0
 11
9194.0
 21
5614.0
  0
LINE
  8
FS_OBJECT
  6
CONTINUOUS
 62
     7
 10
9194.0
 20
5614.0
 11
9188.0
 21
5614.0
  0
LINE
  8
FS_OBJECT
  6
CONTINUOUS
 62
     7
 10
9188.0
 20
5614.0
 11
9191.0
 21
5626.0
  0
LINE
  8
FS_OBJECT
  6
CONTINUOUS
 62
     7
 10
9303.0
 20
5766.0
 11
9291.0
 21
5763.0
  0
LINE
  8
FS_OBJECT
  6
CONTINUOUS
 62
     7
 10
9291.0
 20
5763.0
 11
9291.0
 21
5769.0
  0
LINE
  8
FS_OBJECT
  6
CONTINUOUS
 62
     7
 10
9291.0
 20
5769.0
 11
9303.0
 21
5766.0
  0
LINE
  8
FS_OBJECT
  6
CONTINUOUS
 62
     7
 10
9192.0
 20
5684.0
 11
9192.0
 21
5765.0
  0
LINE
  8
FS_OBJECT
  6
CONTINUOUS
 62
     7
 10
9192.0
 20
5765.0
 11
9304.0
 21
5765.0
  0
LINE
  8
FS_OBJECT
  6
CONTINUOUS
 62
     7
 10
9176.0
 20
5752.0
 11
9217.0
 21
5752.0
  0
LINE
  8
FS_OBJECT
  6
CONTINUOUS
 62
     7
 10
9217.0
 20
5752.0
 11
9217.0
 21
5708.0
  0
LINE
  8
FS_OBJECT
  6
CONTINUOUS
 62
     7
 10
9217.0
 20
5708.0
 11
9176.0
 21
5708.0
  0
LINE
  8
FS_OBJECT
  6
CONTINUOUS
 62
     7
 10
9176.0
 20
5708.0
 11
9176.0
 21
5752.0
  0
TEXT
  8
FS_OBJECT
 62
     7
 10
9188.80
 20
5726.00
 40
12.00
  1
10
 41
0.93
  0
LINE
  8
FS_OBJECT
  6
CONTINUOUS
 62
     7
 10
9322.0
 20
5946.0
 11
9325.0
 21
5934.0
  0
LINE
  8
FS_OBJECT
  6
CONTINUOUS
 62
     7
 10
9325.0
 20
5934.0
 11
9319.0
 21
5934.0
  0
LINE
  8
FS_OBJECT
  6
CONTINUOUS
 62
     7
 10
9319.0
 20
5934.0
 11
9322.0
 21
5946.0
  0
LINE
  8
FS_OBJECT
  6
CONTINUOUS
 62
     7
 10
9323.0
 20
5794.0
 11
9323.0
 21
5870.0
  0
LINE
  8
FS_OBJECT
  6
CONTINUOUS
 62
     7
 10
9323.0
 20
5870.0
 11
9322.0
 21
5870.0
  0
LINE
  8
FS_OBJECT
  6
CONTINUOUS
 62
     7
 10
9322.0
 20
5870.0
 11
9322.0
 21
5945.0
  0
LINE
  8
FS_OBJECT
  6
CONTINUOUS
 62
     7
 10
9304.0
 20
5902.0
 11
9346.0
 21
5902.0
  0
LINE
  8
FS_OBJECT
  6
CONTINUOUS
 62
     7
 10
9346.0
 20
5902.0
 11
9346.0
 21
5857.0
  0
LINE
  8
FS_OBJECT
  6
CONTINUOUS
 62
     7
 10
9346.0
 20
5857.0
 11
9304.0
 21
5857.0
  0
LINE
  8
FS_OBJECT
  6
CONTINUOUS
 62
     7
 10
9304.0
 20
5857.0
 11
9304.0
 21
5902.0
  0
TEXT
  8
FS_OBJECT
 62
     7
 10
9316.80
 20
5876.00
 40
12.00
  1
11
 41
0.93
  0
LINE
  8
FS_OBJECT
  6
CONTINUOUS
 62
     7
 10
9321.0
 20
6107.0
 11
9324.0
 21
6095.0
  0
LINE
  8
FS_OBJECT
  6
CONTINUOUS
 62
     7
 10
9324.0
 20
6095.0
 11
9318.0
 21
6095.0
  0
LINE
  8
FS_OBJECT
  6
CONTINUOUS
 62
     7
 10
9318.0
 20
6095.0
 11
9321.0
 21
6107.0
  0
LINE
  8
FS_OBJECT
  6
CONTINUOUS
 62
     7
 10
9322.0
 20
5973.0
 11
9322.0
 21
6052.0
  0
LINE
  8
FS_OBJECT
  6
CONTINUOUS
 62
     7
 10
9322.0
 20
6052.0
 11
9322.0
 21
6052.0
  0
LINE
  8
FS_OBJECT
  6
CONTINUOUS
 62
     7
 10
9322.0
 20
6052.0
 11
9322.0
 21
6106.0
  0
LINE
  8
FS_OBJECT
  6
CONTINUOUS
 62
     7
 10
9295.0
 20
6065.0
 11
9344.0
 21
6065.0
  0
LINE
  8
FS_OBJECT
  6
CONTINUOUS
 62
     7
 10
9344.0
 20
6065.0
 11
9344.0
 21
6012.0
  0
LINE
  8
FS_OBJECT
  6
CONTINUOUS
 62
     7
 10
9344.0
 20
6012.0
 11
9295.0
 21
6012.0
  0
LINE
  8
FS_OBJECT
  6
CONTINUOUS
 62
     7
 10
9295.0
 20
6012.0
 11
9295.0
 21
6065.0
  0
TEXT
  8
FS_OBJECT
 62
     7
 10
9308.80
 20
6038.00
 40
12.00
  1
12
 41
0.93
  0
LINE
  8
FS_OBJECT
  6
CONTINUOUS
 62
     7
 10
9618.0
 20
6120.0
 11
9606.0
 21
6117.0
  0
LINE
  8
FS_OBJECT
  6
CONTINUOUS
 62
     7
 10
9606.0
 20
6117.0
 11
9606.0
 21
6123.0
  0
LINE
  8
FS_OBJECT
  6
CONTINUOUS
 62
     7
 10
9606.0
 20
6123.0
 11
9618.0
 21
6120.0
  0
LINE
  8
FS_OBJECT
  6
CONTINUOUS
 62
     7
 10
9336.0
 20
6120.0
 11
9476.0
 21
6120.0
  0
LINE
  8
FS_OBJECT
  6
CONTINUOUS
 62
     7
 10
9476.0
 20
6120.0
 11
9476.0
 21
6120.0
  0
LINE
  8
FS_OBJECT
  6
CONTINUOUS
 62
     7
 10
9476.0
 20
6120.0
 11
9619.0
 21
6120.0
  0
LINE
  8
FS_OBJECT
  6
CONTINUOUS
 62
     7
 10
9425.0
 20
6147.0
 11
9473.0
 21
6147.0
  0
LINE
  8
FS_OBJECT
  6
CONTINUOUS
 62
     7
 10
9473.0
 20
6147.0
 11
9473.0
 21
6096.0
  0
LINE
  8
FS_OBJECT
  6
CONTINUOUS
 62
     7
 10
9473.0
 20
6096.0
 11
9425.0
 21
6096.0
  0
LINE
  8
FS_OBJECT
  6
CONTINUOUS
 62
     7
 10
9425.0
 20
6096.0
 11
9425.0
 21
6147.0
  0
TEXT
  8
FS_OBJECT
 62
     7
 10
9438.80
 20
6120.00
 40
12.00
  1
13
 41
0.93
  0
LINE
  8
FS_OBJECT
  6
CONTINUOUS
 62
     7
 10
9015.0
 20
6166.0
 11
9012.0
 21
6178.0
  0
LINE
  8
FS_OBJECT
  6
CONTINUOUS
 62
     7
 10
9012.0
 20
6178.0
 11
9018.0
 21
6178.0
  0
LINE
  8
FS_OBJECT
  6
CONTINUOUS
 62
     7
 10
9018.0
 20
6178.0
 11
9015.0
 21
6166.0
  0
LINE
  8
FS_OBJECT
  6
CONTINUOUS
 62
     7
 10
9307.0
 20
6120.0
 11
9097.0
 21
6120.0
  0
LINE
  8
FS_OBJECT
  6
CONTINUOUS
 62
     7
 10
9097.0
 20
6120.0
 11
9097.0
 21
6195.0
  0
LINE
  8
FS_OBJECT
  6
CONTINUOUS
 62
     7
 10
9097.0
 20
6195.0
 11
9015.0
 21
6195.0
  0
LINE
  8
FS_OBJECT
  6
CONTINUOUS
 62
     7
 10
9015.0
 20
6195.0
 11
9015.0
 21
6166.0
  0
LINE
  8
FS_OBJECT
  6
CONTINUOUS
 62
     7
 10
9181.0
 20
6141.0
 11
9222.0
 21
6141.0
  0
LINE
  8
FS_OBJECT
  6
CONTINUOUS
 62
     7
 10
9222.0
 20
6141.0
 11
9222.0
 21
6097.0
  0
LINE
  8
FS_OBJECT
  6
CONTINUOUS
 62
     7
 10
9222.0
 20
6097.0
 11
9181.0
 21
6097.0
  0
LINE
  8
FS_OBJECT
  6
CONTINUOUS
 62
     7
 10
9181.0
 20
6097.0
 11
9181.0
 21
6141.0
  0
TEXT
  8
FS_OBJECT
 62
     7
 10
9193.80
 20
6115.00
 40
12.00
  1
14
 41
0.93
  0
LINE
  8
FS_OBJECT
  6
CONTINUOUS
 62
     7
 10
8177.0
 20
5810.0
 11
8174.0
 21
5822.0
  0
LINE
  8
FS_OBJECT
  6
CONTINUOUS
 62
     7
 10
8174.0
 20
5822.0
 11
8180.0
 21
5822.0
  0
LINE
  8
FS_OBJECT
  6
CONTINUOUS
 62
     7
 10
8180.0
 20
5822.0
 11
8177.0
 21
5810.0
  0
LINE
  8
FS_OBJECT
  6
CONTINUOUS
 62
     1
 10
8994.0
 20
6115.0
 11
8177.0
 21
6115.0
  0
LINE
  8
FS_OBJECT
  6
CONTINUOUS
 62
     1
 10
8177.0
 20
6115.0
 11
8177.0
 21
5810.0
  0
LINE
  8
FS_OBJECT
  6
CONTINUOUS
 62
     7
 10
8572.0
 20
6136.0
 11
8613.0
 21
6136.0
  0
LINE
  8
FS_OBJECT
  6
CONTINUOUS
 62
     7
 10
8613.0
 20
6136.0
 11
8613.0
 21
6091.0
  0
LINE
  8
FS_OBJECT
  6
CONTINUOUS
 62
     7
 10
8613.0
 20
6091.0
 11
8572.0
 21
6091.0
  0
LINE
  8
FS_OBJECT
  6
CONTINUOUS
 62
     7
 10
8572.0
 20
6091.0
 11
8572.0
 21
6136.0
  0
TEXT
  8
FS_OBJECT
 62
     7
 10
8583.80
 20
6110.00
 40
12.00
  1
15
 41
0.93
  0
LINE
  8
FS_OBJECT
  6
CONTINUOUS
 62
     7
 10
9375.0
 20
6379.0
 11
9372.0
 21
6391.0
  0
LINE
  8
FS_OBJECT
  6
CONTINUOUS
 62
     7
 10
9372.0
 20
6391.0
 11
9378.0
 21
6391.0
  0
LINE
  8
FS_OBJECT
  6
CONTINUOUS
 62
     7
 10
9378.0
 20
6391.0
 11
9375.0
 21
6379.0
  0
LINE
  8
FS_OBJECT
  6
CONTINUOUS
 62
     7
 10
9613.0
 20
6324.0
 11
9445.0
 21
6324.0
  0
LINE
  8
FS_OBJECT
  6
CONTINUOUS
 62
     7
 10
9445.0
 20
6324.0
 11
9445.0
 21
6416.0
  0
LINE
  8
FS_OBJECT
  6
CONTINUOUS
 62
     7
 10
9445.0
 20
6416.0
 11
9375.0
 21
6416.0
  0
LINE
  8
FS_OBJECT
  6
CONTINUOUS
 62
     7
 10
9375.0
 20
6416.0
 11
9375.0
 21
6379.0
  0
LINE
  8
FS_OBJECT
  6
CONTINUOUS
 62
     7
 10
9138.0
 20
6328.0
 11
9150.0
 21
6331.0
  0
LINE
  8
FS_OBJECT
  6
CONTINUOUS
 62
     7
 10
9150.0
 20
6331.0
 11
9150.0
 21
6325.0
  0
LINE
  8
FS_OBJECT
  6
CONTINUOUS
 62
     7
 10
9150.0
 20
6325.0
 11
9138.0
 21
6328.0
  0
LINE
  8
FS_OBJECT
  6
CONTINUOUS
 62
     7
 10
9354.0
 20
6328.0
 11
9290.0
 21
6328.0
  0
LINE
  8
FS_OBJECT
  6
CONTINUOUS
 62
     7
 10
9290.0
 20
6328.0
 11
9290.0
 21
6328.0
  0
LINE
  8
FS_OBJECT
  6
CONTINUOUS
 62
     7
 10
9290.0
 20
6328.0
 11
9139.0
 21
6328.0
  0
LINE
  8
FS_OBJECT
  6
CONTINUOUS
 62
     7
 10
8960.0
 20
6380.0
 11
8957.0
 21
6392.0
  0
LINE
  8
FS_OBJECT
  6
CONTINUOUS
 62
     7
 10
8957.0
 20
6392.0
 11
8963.0
 21
6392.0
  0
LINE
  8
FS_OBJECT
  6
CONTINUOUS
 62
     7
 10
8963.0
 20
6392.0
 11
8960.0
 21
6380.0
  0
LINE
  8
FS_OBJECT
  6
CONTINUOUS
 62
     7
 10
9080.0
 20
6327.0
 11
9027.0
 21
6327.0
  0
LINE
  8
FS_OBJECT
  6
CONTINUOUS
 62
     7
 10
9027.0
 20
6327.0
 11
9027.0
 21
6416.0
  0
LINE
  8
FS_OBJECT
  6
CONTINUOUS
 62
     7
 10
9027.0
 20
6416.0
 11
8960.0
 21
6416.0
  0
LINE
  8
FS_OBJECT
  6
CONTINUOUS
 62
     7
 10
8960.0
 20
6416.0
 11
8960.0
 21
6380.0
  0
LINE
  8
FS_OBJECT
  6
CONTINUOUS
 62
     7
 10
8540.0
 20
6383.0
 11
8540.0
 21
6315.0
  0
LINE
  8
FS_OBJECT
  6
CONTINUOUS
 62
     7
 10
8540.0
 20
6315.0
 11
8506.0
 21
6332.0
  0
LINE
  8
FS_OBJECT
  6
CONTINUOUS
 62
     7
 10
8506.0
 20
6332.0
 11
8506.0
 21
6366.0
  0
LINE
  8
FS_OBJECT
  6
CONTINUOUS
 62
     7
 10
8506.0
 20
6366.0
 11
8540.0
 21
6383.0
  0
CIRCLE
  8
FS_OBJECT
 62
     7
 10
8682.0
 20
6330.0
 40
29.0
  0
LINE
  8
FS_OBJECT
  6
CONTINUOUS
 62
     7
 10
8716.0
 20
6361.0
 11
8671.0
 21
6330.0
  0
LINE
  8
FS_OBJECT
  6
CONTINUOUS
 62
     7
 10
8671.0
 20
6330.0
 11
8694.0
 21
6330.0
  0
LINE
  8
FS_OBJECT
  6
CONTINUOUS
 62
     7
 10
8694.0
 20
6330.0
 11
8649.0
 21
6298.0
  0
LINE
  8
FS_OBJECT
  6
CONTINUOUS
 62
     7
 10
8649.0
 20
6298.0
 11
8657.0
 21
6307.0
  0
LINE
  8
FS_OBJECT
  6
CONTINUOUS
 62
     7
 10
8657.0
 20
6307.0
 11
8661.0
 21
6303.0
  0
LINE
  8
FS_OBJECT
  6
CONTINUOUS
 62
     7
 10
8661.0
 20
6303.0
 11
8649.0
 21
6298.0
  0
LINE
  8
FS_OBJECT
  6
CONTINUOUS
 62
     7
 10
8533.0
 20
6380.0
 11
8530.0
 21
6392.0
  0
LINE
  8
FS_OBJECT
  6
CONTINUOUS
 62
     7
 10
8530.0
 20
6392.0
 11
8536.0
 21
6392.0
  0
LINE
  8
FS_OBJECT
  6
CONTINUOUS
 62
     7
 10
8536.0
 20
6392.0
 11
8533.0
 21
6380.0
  0
LINE
  8
FS_OBJECT
  6
CONTINUOUS
 62
     7
 10
8653.0
 20
6329.0
 11
8600.0
 21
6329.0
  0
LINE
  8
FS_OBJECT
  6
CONTINUOUS
 62
     7
 10
8600.0
 20
6329.0
 11
8600.0
 21
6416.0
  0
LINE
  8
FS_OBJECT
  6
CONTINUOUS
 62
     7
 10
8600.0
 20
6416.0
 11
8533.0
 21
6416.0
  0
LINE
  8
FS_OBJECT
  6
CONTINUOUS
 62
     7
 10
8533.0
 20
6416.0
 11
8533.0
 21
6380.0
  0
LINE
  8
FS_OBJECT
  6
CONTINUOUS
 62
     7
 10
8711.0
 20
6330.0
 11
8723.0
 21
6333.0
  0
LINE
  8
FS_OBJECT
  6
CONTINUOUS
 62
     7
 10
8723.0
 20
6333.0
 11
8723.0
 21
6327.0
  0
LINE
  8
FS_OBJECT
  6
CONTINUOUS
 62
     7
 10
8723.0
 20
6327.0
 11
8711.0
 21
6330.0
  0
LINE
  8
FS_OBJECT
  6
CONTINUOUS
 62
     7
 10
8939.0
 20
6329.0
 11
8875.0
 21
6329.0
  0
LINE
  8
FS_OBJECT
  6
CONTINUOUS
 62
     7
 10
8875.0
 20
6329.0
 11
8875.0
 21
6330.0
  0
LINE
  8
FS_OBJECT
  6
CONTINUOUS
 62
     7
 10
8875.0
 20
6330.0
 11
8712.0
 21
6330.0
  0
LINE
  8
FS_OBJECT
  6
CONTINUOUS
 62
     7
 10
8164.0
 20
6382.0
 11
8164.0
 21
6314.0
  0
LINE
  8
FS_OBJECT
  6
CONTINUOUS
 62
     7
 10
8164.0
 20
6314.0
 11
8130.0
 21
6331.0
  0
LINE
  8
FS_OBJECT
  6
CONTINUOUS
 62
     7
 10
8130.0
 20
6331.0
 11
8130.0
 21
6365.0
  0
LINE
  8
FS_OBJECT
  6
CONTINUOUS
 62
     7
 10
8130.0
 20
6365.0
 11
8164.0
 21
6382.0
  0
CIRCLE
  8
FS_OBJECT
 62
     7
 10
8306.0
 20
6329.0
 40
29.0
  0
LINE
  8
FS_OBJECT
  6
CONTINUOUS
 62
     7
 10
8340.0
 20
6360.0
 11
8295.0
 21
6329.0
  0
LINE
  8
FS_OBJECT
  6
CONTINUOUS
 62
     7
 10
8295.0
 20
6329.0
 11
8318.0
 21
6329.0
  0
LINE
  8
FS_OBJECT
  6
CONTINUOUS
 62
     7
 10
8318.0
 20
6329.0
 11
8273.0
 21
6297.0
  0
LINE
  8
FS_OBJECT
  6
CONTINUOUS
 62
     7
 10
8273.0
 20
6297.0
 11
8281.0
 21
6306.0
  0
LINE
  8
FS_OBJECT
  6
CONTINUOUS
 62
     7
 10
8281.0
 20
6306.0
 11
8285.0
 21
6302.0
  0
LINE
  8
FS_OBJECT
  6
CONTINUOUS
 62
     7
 10
8285.0
 20
6302.0
 11
8273.0
 21
6297.0
  0
LINE
  8
FS_OBJECT
  6
CONTINUOUS
 62
     7
 10
8157.0
 20
6379.0
 11
8154.0
 21
6391.0
  0
LINE
  8
FS_OBJECT
  6
CONTINUOUS
 62
     7
 10
8154.0
 20
6391.0
 11
8160.0
 21
6391.0
  0
LINE
  8
FS_OBJECT
  6
CONTINUOUS
 62
     7
 10
8160.0
 20
6391.0
 11
8157.0
 21
6379.0
  0
LINE
  8
FS_OBJECT
  6
CONTINUOUS
 62
     7
 10
8277.0
 20
6328.0
 11
8224.0
 21
6328.0
  0
LINE
  8
FS_OBJECT
  6
CONTINUOUS
 62
     7
 10
8224.0
 20
6328.0
 11
8224.0
 21
6415.0
  0
LINE
  8
FS_OBJECT
  6
CONTINUOUS
 62
     7
 10
8224.0
 20
6415.0
 11
8157.0
 21
6415.0
  0
LINE
  8
FS_OBJECT
  6
CONTINUOUS
 62
     7
 10
8157.0
 20
6415.0
 11
8157.0
 21
6379.0
  0
CIRCLE
  8
FS_OBJECT
 62
     7
 10
8150.0
 20
6261.0
 40
26.0
  0
TEXT
  8
FS_OBJECT
 62
     7
 10
8140.80
 20
6260.00
 40
12.00
  1
23
 41
0.93
  0
CIRCLE
  8
FS_OBJECT
 62
     7
 10
8310.0
 20
6259.0
 40
26.0
  0
TEXT
  8
FS_OBJECT
 62
     7
 10
8300.80
 20
6258.00
 40
12.00
  1
22
 41
0.93
  0
LINE
  8
FS_OBJECT
  6
CONTINUOUS
 62
     7
 10
8335.0
 20
6329.0
 11
8347.0
 21
6332.0
  0
LINE
  8
FS_OBJECT
  6
CONTINUOUS
 62
     7
 10
8347.0
 20
6332.0
 11
8347.0
 21
6326.0
  0
LINE
  8
FS_OBJECT
  6
CONTINUOUS
 62
     7
 10
8347.0
 20
6326.0
 11
8335.0
 21
6329.0
  0
LINE
  8
FS_OBJECT
  6
CONTINUOUS
 62
     7
 10
8512.0
 20
6329.0
 11
8474.0
 21
6329.0
  0
LINE
  8
FS_OBJECT
  6
CONTINUOUS
 62
     7
 10
8474.0
 20
6329.0
 11
8474.0
 21
6329.0
  0
LINE
  8
FS_OBJECT
  6
CONTINUOUS
 62
     7
 10
8474.0
 20
6329.0
 11
8336.0
 21
6329.0
  0
LINE
  8
FS_OBJECT
  6
CONTINUOUS
 62
     7
 10
7996.0
 20
6162.0
 11
7993.0
 21
6174.0
  0
LINE
  8
FS_OBJECT
  6
CONTINUOUS
 62
     7
 10
7993.0
 20
6174.0
 11
7999.0
 21
6174.0
  0
LINE
  8
FS_OBJECT
  6
CONTINUOUS
 62
     7
 10
7999.0
 20
6174.0
 11
7996.0
 21
6162.0
  0
LINE
  8
FS_OBJECT
  6
CONTINUOUS
 62
     7
 10
8136.0
 20
6328.0
 11
7996.0
 21
6328.0
  0
LINE
  8
FS_OBJECT
  6
CONTINUOUS
 62
     7
 10
7996.0
 20
6328.0
 11
7996.0
 21
6162.0
  0
LINE
  8
FS_OBJECT
  6
CONTINUOUS
 62
     7
 10
8163.0
 20
5796.0
 11
8151.0
 21
5793.0
  0
LINE
  8
FS_OBJECT
  6
CONTINUOUS
 62
     7
 10
8151.0
 20
5793.0
 11
8151.0
 21
5799.0
  0
LINE
  8
FS_OBJECT
  6
CONTINUOUS
 62
     7
 10
8151.0
 20
5799.0
 11
8163.0
 21
5796.0
  0
LINE
  8
FS_OBJECT
  6
CONTINUOUS
 62
     7
 10
7997.0
 20
6103.0
 11
7997.0
 21
5796.0
  0
LINE
  8
FS_OBJECT
  6
CONTINUOUS
 62
     7
 10
7997.0
 20
5796.0
 11
8163.0
 21
5796.0
  0
LINE
  8
FS_OBJECT
  6
CONTINUOUS
 62
     7
 10
9367.0
 20
5613.0
 11
9355.0
 21
5610.0
  0
LINE
  8
FS_OBJECT
  6
CONTINUOUS
 62
     7
 10
9355.0
 20
5610.0
 11
9355.0
 21
5616.0
  0
LINE
  8
FS_OBJECT
  6
CONTINUOUS
 62
     7
 10
9355.0
 20
5616.0
 11
9367.0
 21
5613.0
  0
LINE
  8
FS_OBJECT
  6
CONTINUOUS
 62
     7
 10
9323.0
 20
5707.0
 11
9323.0
 21
5613.0
  0
LINE
  8
FS_OBJECT
  6
CONTINUOUS
 62
     7
 10
9323.0
 20
5613.0
 11
9367.0
 21
5613.0
  0
LINE
  8
FS_OBJECT
  6
CONTINUOUS
 62
     7
 10
9506.0
 20
5767.0
 11
9494.0
 21
5764.0
  0
LINE
  8
FS_OBJECT
  6
CONTINUOUS
 62
     7
 10
9494.0
 20
5764.0
 11
9494.0
 21
5770.0
  0
LINE
  8
FS_OBJECT
  6
CONTINUOUS
 62
     7
 10
9494.0
 20
5770.0
 11
9506.0
 21
5767.0
  0
LINE
  8
FS_OBJECT
  6
CONTINUOUS
 62
     7
 10
9423.0
 20
5613.0
 11
9458.0
 21
5613.0
  0
LINE
  8
FS_OBJECT
  6
CONTINUOUS
 62
     7
 10
9458.0
 20
5613.0
 11
9458.0
 21
5766.0
  0
LINE
  8
FS_OBJECT
  6
CONTINUOUS
 62
     7
 10
9458.0
 20
5766.0
 11
9507.0
 21
5766.0
  0
LINE
  8
FS_OBJECT
  6
CONTINUOUS
 62
     7
 10
9474.0
 20
5977.0
 11
9471.0
 21
5989.0
  0
LINE
  8
FS_OBJECT
  6
CONTINUOUS
 62
     7
 10
9471.0
 20
5989.0
 11
9477.0
 21
5989.0
  0
LINE
  8
FS_OBJECT
  6
CONTINUOUS
 62
     7
 10
9477.0
 20
5989.0
 11
9474.0
 21
5977.0
  0
LINE
  8
FS_OBJECT
  6
CONTINUOUS
 62
     7
 10
9526.0
 20
5795.0
 11
9526.0
 21
5999.0
  0
LINE
  8
FS_OBJECT
  6
CONTINUOUS
 62
     7
 10
9526.0
 20
5999.0
 11
9474.0
 21
5999.0
  0
LINE
  8
FS_OBJECT
  6
CONTINUOUS
 62
     7
 10
9474.0
 20
5999.0
 11
9474.0
 21
5977.0
  0
LINE
  8
FS_OBJECT
  6
CONTINUOUS
 62
     7
 10
9335.0
 20
5959.0
 11
9347.0
 21
5962.0
  0
LINE
  8
FS_OBJECT
  6
CONTINUOUS
 62
     7
 10
9347.0
 20
5962.0
 11
9347.0
 21
5956.0
  0
LINE
  8
FS_OBJECT
  6
CONTINUOUS
 62
     7
 10
9347.0
 20
5956.0
 11
9335.0
 21
5959.0
  0
LINE
  8
FS_OBJECT
  6
CONTINUOUS
 62
     7
 10
9453.0
 20
5926.0
 11
9385.0
 21
5926.0
  0
LINE
  8
FS_OBJECT
  6
CONTINUOUS
 62
     7
 10
9385.0
 20
5926.0
 11
9385.0
 21
5959.0
  0
LINE
  8
FS_OBJECT
  6
CONTINUOUS
 62
     7
 10
9385.0
 20
5959.0
 11
9336.0
 21
5959.0
  0
LINE
  8
FS_OBJECT
  6
CONTINUOUS
 62
     7
 10
9624.0
 20
5615.0
 11
9612.0
 21
5612.0
  0
LINE
  8
FS_OBJECT
  6
CONTINUOUS
 62
     7
 10
9612.0
 20
5612.0
 11
9612.0
 21
5618.0
  0
LINE
  8
FS_OBJECT
  6
CONTINUOUS
 62
     7
 10
9612.0
 20
5618.0
 11
9624.0
 21
5615.0
  0
LINE
  8
FS_OBJECT
  6
CONTINUOUS
 62
     7
 10
9526.0
 20
5708.0
 11
9526.0
 21
5614.0
  0
LINE
  8
FS_OBJECT
  6
CONTINUOUS
 62
     7
 10
9526.0
 20
5614.0
 11
9624.0
 21
5614.0
  0
LINE
  8
FS_OBJECT
  6
CONTINUOUS
 62
     7
 10
9298.0
 20
5694.0
 11
9347.0
 21
5694.0
  0
LINE
  8
FS_OBJECT
  6
CONTINUOUS
 62
     7
 10
9347.0
 20
5694.0
 11
9347.0
 21
5641.0
  0
LINE
  8
FS_OBJECT
  6
CONTINUOUS
 62
     7
 10
9347.0
 20
5641.0
 11
9298.0
 21
5641.0
  0
LINE
  8
FS_OBJECT
  6
CONTINUOUS
 62
     7
 10
9298.0
 20
5641.0
 11
9298.0
 21
5694.0
  0
TEXT
  8
FS_OBJECT
 62
     7
 10
9311.80
 20
5666.00
 40
12.00
  1
16
 41
0.93
  0
LINE
  8
FS_OBJECT
  6
CONTINUOUS
 62
     7
 10
9438.0
 20
5700.0
 11
9478.0
 21
5700.0
  0
LINE
  8
FS_OBJECT
  6
CONTINUOUS
 62
     7
 10
9478.0
 20
5700.0
 11
9478.0
 21
5656.0
  0
LINE
  8
FS_OBJECT
  6
CONTINUOUS
 62
     7
 10
9478.0
 20
5656.0
 11
9438.0
 21
5656.0
  0
LINE
  8
FS_OBJECT
  6
CONTINUOUS
 62
     7
 10
9438.0
 20
5656.0
 11
9438.0
 21
5700.0
  0
TEXT
  8
FS_OBJECT
 62
     7
 10
9449.80
 20
5674.00
 40
12.00
  1
17
 41
0.93
  0
LINE
  8
FS_OBJECT
  6
CONTINUOUS
 62
     7
 10
9508.0
 20
5926.0
 11
9553.0
 21
5926.0
  0
LINE
  8
FS_OBJECT
  6
CONTINUOUS
 62
     7
 10
9553.0
 20
5926.0
 11
9553.0
 21
5878.0
  0
LINE
  8
FS_OBJECT
  6
CONTINUOUS
 62
     7
 10
9553.0
 20
5878.0
 11
9508.0
 21
5878.0
  0
LINE
  8
FS_OBJECT
  6
CONTINUOUS
 62
     7
 10
9508.0
 20
5878.0
 11
9508.0
 21
5926.0
  0
TEXT
  8
FS_OBJECT
 62
     7
 10
9520.80
 20
5899.00
 40
12.00
  1
18
 41
0.93
  0
LINE
  8
FS_OBJECT
  6
CONTINUOUS
 62
     7
 10
9397.0
 20
5940.0
 11
9439.0
 21
5940.0
  0
LINE
  8
FS_OBJECT
  6
CONTINUOUS
 62
     7
 10
9439.0
 20
5940.0
 11
9439.0
 21
5895.0
  0
LINE
  8
FS_OBJECT
  6
CONTINUOUS
 62
     7
 10
9439.0
 20
5895.0
 11
9397.0
 21
5895.0
  0
LINE
  8
FS_OBJECT
  6
CONTINUOUS
 62
     7
 10
9397.0
 20
5895.0
 11
9397.0
 21
5940.0
  0
TEXT
  8
FS_OBJECT
 62
     7
 10
9409.80
 20
5915.00
 40
12.00
  1
19
 41
0.93
  0
LINE
  8
FS_OBJECT
  6
CONTINUOUS
 62
     7
 10
9502.0
 20
5670.0
 11
9546.0
 21
5670.0
  0
LINE
  8
FS_OBJECT
  6
CONTINUOUS
 62
     7
 10
9546.0
 20
5670.0
 11
9546.0
 21
5623.0
  0
LINE
  8
FS_OBJECT
  6
CONTINUOUS
 62
     7
 10
9546.0
 20
5623.0
 11
9502.0
 21
5623.0
  0
LINE
  8
FS_OBJECT
  6
CONTINUOUS
 62
     7
 10
9502.0
 20
5623.0
 11
9502.0
 21
5670.0
  0
TEXT
  8
FS_OBJECT
 62
     7
 10
9514.80
 20
5644.00
 40
12.00
  1
20
 41
0.93
  0
LINE
  8
FS_OBJECT
  6
CONTINUOUS
 62
     7
 10
9489.0
 20
6339.0
 11
9530.0
 21
6339.0
  0
LINE
  8
FS_OBJECT
  6
CONTINUOUS
 62
     7
 10
9530.0
 20
6339.0
 11
9530.0
 21
6295.0
  0
LINE
  8
FS_OBJECT
  6
CONTINUOUS
 62
     7
 10
9530.0
 20
6295.0
 11
9489.0
 21
6295.0
  0
LINE
  8
FS_OBJECT
  6
CONTINUOUS
 62
     7
 10
9489.0
 20
6295.0
 11
9489.0
 21
6339.0
  0
TEXT
  8
FS_OBJECT
 62
     7
 10
9501.80
 20
6313.00
 40
12.00
  1
21
 41
0.93
  0
LINE
  8
FS_OBJECT
  6
CONTINUOUS
 62
     7
 10
9229.0
 20
6347.0
 11
9275.0
 21
6347.0
  0
LINE
  8
FS_OBJECT
  6
CONTINUOUS
 62
     7
 10
9275.0
 20
6347.0
 11
9275.0
 21
6298.0
  0
LINE
  8
FS_OBJECT
  6
CONTINUOUS
 62
     7
 10
9275.0
 20
6298.0
 11
9229.0
 21
6298.0
  0
LINE
  8
FS_OBJECT
  6
CONTINUOUS
 62
     7
 10
9229.0
 20
6298.0
 11
9229.0
 21
6347.0
  0
TEXT
  8
FS_OBJECT
 62
     7
 10
9242.80
 20
6320.00
 40
12.00
  1
22
 41
0.93
  0
LINE
  8
FS_OBJECT
  6
CONTINUOUS
 62
     7
 10
9007.0
 20
6392.0
 11
9049.0
 21
6392.0
  0
LINE
  8
FS_OBJECT
  6
CONTINUOUS
 62
     7
 10
9049.0
 20
6392.0
 11
9049.0
 21
6346.0
  0
LINE
  8
FS_OBJECT
  6
CONTINUOUS
 62
     7
 10
9049.0
 20
6346.0
 11
9007.0
 21
6346.0
  0
LINE
  8
FS_OBJECT
  6
CONTINUOUS
 62
     7
 10
9007.0
 20
6346.0
 11
9007.0
 21
6392.0
  0
TEXT
  8
FS_OBJECT
 62
     7
 10
9018.80
 20
6366.00
 40
12.00
  1
23
 41
0.93
  0
LINE
  8
FS_OBJECT
  6
CONTINUOUS
 62
     7
 10
8789.0
 20
6350.0
 11
8840.0
 21
6350.0
  0
LINE
  8
FS_OBJECT
  6
CONTINUOUS
 62
     7
 10
8840.0
 20
6350.0
 11
8840.0
 21
6296.0
  0
LINE
  8
FS_OBJECT
  6
CONTINUOUS
 62
     7
 10
8840.0
 20
6296.0
 11
8789.0
 21
6296.0
  0
LINE
  8
FS_OBJECT
  6
CONTINUOUS
 62
     7
 10
8789.0
 20
6296.0
 11
8789.0
 21
6350.0
  0
TEXT
  8
FS_OBJECT
 62
     7
 10
8802.80
 20
6323.00
 40
12.00
  1
24
 41
0.93
  0
LINE
  8
FS_OBJECT
  6
CONTINUOUS
 62
     7
 10
8578.0
 20
6399.0
 11
8622.0
 21
6399.0
  0
LINE
  8
FS_OBJECT
  6
CONTINUOUS
 62
     7
 10
8622.0
 20
6399.0
 11
8622.0
 21
6351.0
  0
LINE
  8
FS_OBJECT
  6
CONTINUOUS
 62
     7
 10
8622.0
 20
6351.0
 11
8578.0
 21
6351.0
  0
LINE
  8
FS_OBJECT
  6
CONTINUOUS
 62
     7
 10
8578.0
 20
6351.0
 11
8578.0
 21
6399.0
  0
TEXT
  8
FS_OBJECT
 62
     7
 10
8590.80
 20
6372.00
 40
12.00
  1
25
 41
0.93
  0
LINE
  8
FS_OBJECT
  6
CONTINUOUS
 62
     7
 10
8398.0
 20
6350.0
 11
8444.0
 21
6350.0
  0
LINE
  8
FS_OBJECT
  6
CONTINUOUS
 62
     7
 10
8444.0
 20
6350.0
 11
8444.0
 21
6300.0
  0
LINE
  8
FS_OBJECT
  6
CONTINUOUS
 62
     7
 10
8444.0
 20
6300.0
 11
8398.0
 21
6300.0
  0
LINE
  8
FS_OBJECT
  6
CONTINUOUS
 62
     7
 10
8398.0
 20
6300.0
 11
8398.0
 21
6350.0
  0
TEXT
  8
FS_OBJECT
 62
     7
 10
8411.80
 20
6323.00
 40
12.00
  1
26
 41
0.93
  0
LINE
  8
FS_OBJECT
  6
CONTINUOUS
 62
     7
 10
8201.0
 20
6400.0
 11
8248.0
 21
6400.0
  0
LINE
  8
FS_OBJECT
  6
CONTINUOUS
 62
     7
 10
8248.0
 20
6400.0
 11
8248.0
 21
6349.0
  0
LINE
  8
FS_OBJECT
  6
CONTINUOUS
 62
     7
 10
8248.0
 20
6349.0
 11
8201.0
 21
6349.0
  0
LINE
  8
FS_OBJECT
  6
CONTINUOUS
 62
     7
 10
8201.0
 20
6349.0
 11
8201.0
 21
6400.0
  0
TEXT
  8
FS_OBJECT
 62
     7
 10
8214.80
 20
6373.00
 40
12.00
  1
27
 41
0.93
  0
LINE
  8
FS_OBJECT
  6
CONTINUOUS
 62
     7
 10
8042.0
 20
6341.0
 11
8081.0
 21
6341.0
  0
LINE
  8
FS_OBJECT
  6
CONTINUOUS
 62
     7
 10
8081.0
 20
6341.0
 11
8081.0
 21
6299.0
  0
LINE
  8
FS_OBJECT
  6
CONTINUOUS
 62
     7
 10
8081.0
 20
6299.0
 11
8042.0
 21
6299.0
  0
LINE
  8
FS_OBJECT
  6
CONTINUOUS
 62
     7
 10
8042.0
 20
6299.0
 11
8042.0
 21
6341.0
  0
TEXT
  8
FS_OBJECT
 62
     7
 10
8053.80
 20
6316.00
 40
12.00
  1
28
 41
0.93
  0
LINE
  8
FS_OBJECT
  6
CONTINUOUS
 62
     7
 10
7971.0
 20
5966.0
 11
8015.0
 21
5966.0
  0
LINE
  8
FS_OBJECT
  6
CONTINUOUS
 62
     7
 10
8015.0
 20
5966.0
 11
8015.0
 21
5919.0
  0
LINE
  8
FS_OBJECT
  6
CONTINUOUS
 62
     7
 10
8015.0
 20
5919.0
 11
7971.0
 21
5919.0
  0
LINE
  8
FS_OBJECT
  6
CONTINUOUS
 62
     7
 10
7971.0
 20
5919.0
 11
7971.0
 21
5966.0
  0
TEXT
  8
FS_OBJECT
 62
     7
 10
7983.80
 20
5940.00
 40
12.00
  1
29
 41
0.93
  0
CIRCLE
  8
FS_OBJECT
 62
     7
 10
9123.0
 20
6265.0
 40
27.0
  0
TEXT
  8
FS_OBJECT
 62
     7
 10
9112.80
 20
6265.00
 40
12.00
  1
18
 41
0.93
  0
CIRCLE
  8
FS_OBJECT
 62
     7
 10
8954.0
 20
6276.0
 40
27.0
  0
TEXT
  8
FS_OBJECT
 62
     7
 10
8943.80
 20
6275.00
 40
12.00
  1
19
 41
0.93
  0
CIRCLE
  8
FS_OBJECT
 62
     7
 10
8682.0
 20
6263.0
 40
27.0
  0
TEXT
  8
FS_OBJECT
 62
     7
 10
8671.80
 20
6262.00
 40
12.00
  1
20
 41
0.93
  0
CIRCLE
  8
FS_OBJECT
 62
     7
 10
8530.0
 20
6268.0
 40
26.0
  0
TEXT
  8
FS_OBJECT
 62
     7
 10
8520.80
 20
6267.00
 40
12.00
  1
21
 41
0.93
  0
TEXT
  8
FS_OBJECT
 62
     7
 10
7788.80
 20
5681.00
 40
12.00
  1
BENZENE
 41
1.22
  0
TEXT
  8
FS_OBJECT
 62
     7
 10
9581.80
 20
6357.00
 40
12.00
  1
HYDROGEN
 41
1.23
  0
ENDSEC
  0
EOF
