  0
SECTION
  2
HEADER
  9
$EXTMIN
 10
107.0
 20
98.0
  9
$EXTMAX
 10
431.0
 20
450.0
  9
$LIMMIN
 10
0.0
 20
0.0
  9
$LIMMAX
 10
794.0
 20
417.0
  9
$LTSCALE
 40
200.0
  0
ENDSEC
  0
SECTION
  2
TABLES
  0
TABLE
  2
LTYPE
 70
     7
  0
LTYPE
  2
CONTINUOUS
 70
    64
  3
Solid line
 72
    65
 73
     0
 40
0.0
  0
LTYPE
  2
DASHED
 70
    64
  3
__ __ __ __ __ __ __ __ __ __ __ __ __ __ __
 72
    65
 73
     2
 40
0.75
 49
0.5
 49
-0.25
  0
LTYPE
  2
HIDDEN
 70
    64
  3
_ _ _ _ _ _ _ _ _ _ _ _ _ _ _ _ _ _ _ _ _ _ _
 72
    65
 73
     2
 40
0.375
 49
0.25
 49
-0.125
  0
LTYPE
  2
DOT
 70
    64
  3
...............................................
 72
    65
 73
     2
 40
0.25
 49
0.0
 49
-0.25
  0
LTYPE
  2
BORDER
 70
    64
  3
__ __ . __ __ . __ __ . __ __ . __ __ . __ __
 72
    65
 73
     6
 40
1.75
 49
0.5
 49
-0.25
 49
0.5
 49
-0.25
 49
0.0
 49
-0.25
  0
LTYPE
  2
CENTER
 70
    64
  3
____ _ ____ _ ____ _ ____ _ ____ _ ____ _ ____
 72
    65
 73
     4
 40
2.0
 49
1.25
 49
-0.25
 49
0.25
 49
-0.25
  0
LTYPE
  2
DIVIDE
 70
    64
  3
__ . . __ . . __ . . __ . . __ . . __ . . __
 72
    65
 73
     6
 40
1.25
 49
0.5
 49
-0.25
 49
0.0
 49
-0.25
 49
0.0
 49
-0.25
  0
ENDTAB
  0
TABLE
  2
LAYER
 70
    6
  0
LAYER
  2
0
 70
     0
 62
     7
  6
CONTINUOUS
  0
LAYER
  2
BORDER
 70
     0
 62
     7
  6
CONTINUOUS
  0
LAYER
  2
FS_OBJECT
 70
     0
 62
     7
  6
CONTINUOUS
  0
LAYER
  2
ICON
 70
     0
 62
     7
  6
CONTINUOUS
  0
LAYER
  2
PFD_OBJECT
 70
     0
 62
     7
  6
CONTINUOUS
  0
LAYER
  2
XY_PLOT
 70
     0
 62
     7
  6
CONTINUOUS
  0
ENDTAB
  0
TABLE
  2
STYLE
 70
     1
  0
STYLE
  2
STANDARD
 70
     0
 40
0.0
 41
1.0
 50
0.0
 71
     0
 42
0.2
  3
MONOTXT
  4

  0
ENDTAB
  0
TABLE
  2
VIEW
 70
     0
  0
ENDTAB
  0
ENDSEC
  0
SECTION
  2
BLOCKS
  0
ENDSEC
  0
SECTION
  2
ENTITIES
  0
ARC
  8
FS_OBJECT
 62
     7
 10
413.50
 20
319.0
 40
6.50
 50
0.0
 51
53.13
  0
ARC
  8
FS_OBJECT
 62
     7
 10
394.0
 20
293.0
 40
39.00
 50
53.13
 51
90.0
  0
ARC
  8
FS_OBJECT
 62
     7
 10
394.0
 20
293.0
 40
39.00
 50
90.0
 51
126.87
  0
ARC
  8
FS_OBJECT
 62
     7
 10
374.50
 20
319.0
 40
6.50
 50
126.87
 51
180.0
  0
ARC
  8
FS_OBJECT
 62
     7
 10
374.50
 20
319.0
 40
6.50
 50
180.0
 51
233.13
  0
ARC
  8
FS_OBJECT
 62
     7
 10
394.0
 20
345.0
 40
39.00
 50
233.13
 51
270.0
  0
ARC
  8
FS_OBJECT
 62
     7
 10
394.0
 20
345.0
 40
39.00
 50
270.0
 51
306.87
  0
ARC
  8
FS_OBJECT
 62
     7
 10
413.50
 20
319.0
 40
6.50
 50
306.87
 51
0.0
  0
ARC
  8
FS_OBJECT
 62
     7
 10
413.50
 20
411.0
 40
6.50
 50
0.0
 51
53.13
  0
ARC
  8
FS_OBJECT
 62
     7
 10
394.0
 20
385.0
 40
39.00
 50
53.13
 51
90.0
  0
ARC
  8
FS_OBJECT
 62
     7
 10
394.0
 20
385.0
 40
39.00
 50
90.0
 51
126.87
  0
ARC
  8
FS_OBJECT
 62
     7
 10
374.50
 20
411.0
 40
6.50
 50
126.87
 51
180.0
  0
ARC
  8
FS_OBJECT
 62
     7
 10
374.50
 20
411.0
 40
6.50
 50
180.0
 51
233.13
  0
ARC
  8
FS_OBJECT
 62
     7
 10
394.0
 20
437.0
 40
39.00
 50
233.13
 51
270.0
  0
ARC
  8
FS_OBJECT
 62
     7
 10
394.0
 20
437.0
 40
39.00
 50
270.0
 51
306.87
  0
ARC
  8
FS_OBJECT
 62
     7
 10
413.50
 20
411.0
 40
6.50
 50
306.87
 51
0.0
  0
LINE
  8
FS_OBJECT
  6
CONTINUOUS
 62
     7
 10
368.0
 20
411.0
 11
420.0
 21
411.0
  0
LINE
  8
FS_OBJECT
  6
CONTINUOUS
 62
     7
 10
420.0
 20
411.0
 11
420.0
 21
320.0
  0
LINE
  8
FS_OBJECT
  6
CONTINUOUS
 62
     7
 10
420.0
 20
320.0
 11
368.0
 21
320.0
  0
LINE
  8
FS_OBJECT
  6
CONTINUOUS
 62
     7
 10
368.0
 20
320.0
 11
368.0
 21
411.0
  0
CIRCLE
  8
FS_OBJECT
 62
     7
 10
295.0
 20
392.0
 40
19.0
  0
LINE
  8
FS_OBJECT
  6
CONTINUOUS
 62
     7
 10
273.0
 20
371.0
 11
303.0
 21
392.0
  0
LINE
  8
FS_OBJECT
  6
CONTINUOUS
 62
     7
 10
303.0
 20
392.0
 11
288.0
 21
392.0
  0
LINE
  8
FS_OBJECT
  6
CONTINUOUS
 62
     7
 10
288.0
 20
392.0
 11
318.0
 21
413.0
  0
LINE
  8
FS_OBJECT
  6
CONTINUOUS
 62
     7
 10
318.0
 20
413.0
 11
310.0
 21
404.0
  0
LINE
  8
FS_OBJECT
  6
CONTINUOUS
 62
     7
 10
310.0
 20
404.0
 11
306.0
 21
409.0
  0
LINE
  8
FS_OBJECT
  6
CONTINUOUS
 62
     7
 10
306.0
 20
409.0
 11
318.0
 21
413.0
  0
LINE
  8
FS_OBJECT
  6
CONTINUOUS
 62
     7
 10
198.0
 20
359.0
 11
201.0
 21
366.0
  0
LINE
  8
FS_OBJECT
  6
CONTINUOUS
 62
     7
 10
201.0
 20
366.0
 11
211.0
 21
372.0
  0
LINE
  8
FS_OBJECT
  6
CONTINUOUS
 62
     7
 10
211.0
 20
372.0
 11
223.0
 21
374.0
  0
LINE
  8
FS_OBJECT
  6
CONTINUOUS
 62
     7
 10
223.0
 20
374.0
 11
230.0
 21
374.0
  0
LINE
  8
FS_OBJECT
  6
CONTINUOUS
 62
     7
 10
230.0
 20
374.0
 11
236.0
 21
374.0
  0
LINE
  8
FS_OBJECT
  6
CONTINUOUS
 62
     7
 10
236.0
 20
374.0
 11
248.0
 21
372.0
  0
LINE
  8
FS_OBJECT
  6
CONTINUOUS
 62
     7
 10
248.0
 20
372.0
 11
256.0
 21
368.0
  0
LINE
  8
FS_OBJECT
  6
CONTINUOUS
 62
     7
 10
256.0
 20
368.0
 11
260.0
 21
361.0
  0
LINE
  8
FS_OBJECT
  6
CONTINUOUS
 62
     7
 10
260.0
 20
361.0
 11
261.0
 21
359.0
  0
LINE
  8
FS_OBJECT
  6
CONTINUOUS
 62
     7
 10
261.0
 20
359.0
 11
261.0
 21
161.0
  0
LINE
  8
FS_OBJECT
  6
CONTINUOUS
 62
     7
 10
261.0
 20
161.0
 11
310.0
 21
161.0
  0
LINE
  8
FS_OBJECT
  6
CONTINUOUS
 62
     7
 10
310.0
 20
161.0
 11
316.0
 21
160.0
  0
LINE
  8
FS_OBJECT
  6
CONTINUOUS
 62
     7
 10
316.0
 20
160.0
 11
322.0
 21
152.0
  0
LINE
  8
FS_OBJECT
  6
CONTINUOUS
 62
     7
 10
322.0
 20
152.0
 11
325.0
 21
139.0
  0
LINE
  8
FS_OBJECT
  6
CONTINUOUS
 62
     7
 10
325.0
 20
139.0
 11
326.0
 21
133.0
  0
LINE
  8
FS_OBJECT
  6
CONTINUOUS
 62
     7
 10
326.0
 20
133.0
 11
326.0
 21
127.0
  0
LINE
  8
FS_OBJECT
  6
CONTINUOUS
 62
     7
 10
326.0
 20
127.0
 11
324.0
 21
115.0
  0
LINE
  8
FS_OBJECT
  6
CONTINUOUS
 62
     7
 10
324.0
 20
115.0
 11
319.0
 21
102.0
  0
LINE
  8
FS_OBJECT
  6
CONTINUOUS
 62
     7
 10
319.0
 20
102.0
 11
316.0
 21
100.0
  0
LINE
  8
FS_OBJECT
  6
CONTINUOUS
 62
     7
 10
316.0
 20
100.0
 11
310.0
 21
98.0
  0
LINE
  8
FS_OBJECT
  6
CONTINUOUS
 62
     7
 10
310.0
 20
98.0
 11
149.0
 21
98.0
  0
LINE
  8
FS_OBJECT
  6
CONTINUOUS
 62
     7
 10
149.0
 20
98.0
 11
143.0
 21
101.0
  0
LINE
  8
FS_OBJECT
  6
CONTINUOUS
 62
     7
 10
143.0
 20
101.0
 11
136.0
 21
109.0
  0
LINE
  8
FS_OBJECT
  6
CONTINUOUS
 62
     7
 10
136.0
 20
109.0
 11
133.0
 21
122.0
  0
LINE
  8
FS_OBJECT
  6
CONTINUOUS
 62
     7
 10
133.0
 20
122.0
 11
133.0
 21
127.0
  0
LINE
  8
FS_OBJECT
  6
CONTINUOUS
 62
     7
 10
133.0
 20
127.0
 11
133.0
 21
133.0
  0
LINE
  8
FS_OBJECT
  6
CONTINUOUS
 62
     7
 10
133.0
 20
133.0
 11
135.0
 21
146.0
  0
LINE
  8
FS_OBJECT
  6
CONTINUOUS
 62
     7
 10
135.0
 20
146.0
 11
140.0
 21
158.0
  0
LINE
  8
FS_OBJECT
  6
CONTINUOUS
 62
     7
 10
140.0
 20
158.0
 11
143.0
 21
161.0
  0
LINE
  8
FS_OBJECT
  6
CONTINUOUS
 62
     7
 10
143.0
 20
161.0
 11
149.0
 21
161.0
  0
LINE
  8
FS_OBJECT
  6
CONTINUOUS
 62
     7
 10
149.0
 20
161.0
 11
198.0
 21
161.0
  0
LINE
  8
FS_OBJECT
  6
CONTINUOUS
 62
     7
 10
198.0
 20
161.0
 11
198.0
 21
359.0
  0
LINE
  8
FS_OBJECT
  6
CONTINUOUS
 62
     7
 10
222.0
 20
326.0
 11
259.0
 21
326.0
  0
LINE
  8
FS_OBJECT
  6
CONTINUOUS
 62
     7
 10
198.0
 20
293.0
 11
234.0
 21
293.0
  0
LINE
  8
FS_OBJECT
  6
CONTINUOUS
 62
     7
 10
222.0
 20
260.0
 11
259.0
 21
260.0
  0
LINE
  8
FS_OBJECT
  6
CONTINUOUS
 62
     7
 10
198.0
 20
228.0
 11
234.0
 21
228.0
  0
LINE
  8
FS_OBJECT
  6
CONTINUOUS
 62
     7
 10
222.0
 20
195.0
 11
259.0
 21
195.0
  0
LINE
  8
FS_OBJECT
  6
CONTINUOUS
 62
     7
 10
198.0
 20
163.0
 11
234.0
 21
163.0
  0
LINE
  8
FS_OBJECT
  6
CONTINUOUS
 62
     7
 10
315.0
 20
392.0
 11
368.0
 21
392.0
  0
LINE
  8
FS_OBJECT
  6
CONTINUOUS
 62
     7
 10
368.0
 20
392.0
 11
356.0
 21
389.0
  0
LINE
  8
FS_OBJECT
  6
CONTINUOUS
 62
     7
 10
356.0
 20
389.0
 11
356.0
 21
395.0
  0
LINE
  8
FS_OBJECT
  6
CONTINUOUS
 62
     7
 10
356.0
 20
395.0
 11
368.0
 21
392.0
  0
LINE
  8
FS_OBJECT
  6
CONTINUOUS
 62
     7
 10
368.0
 20
326.0
 11
328.0
 21
326.0
  0
LINE
  8
FS_OBJECT
  6
CONTINUOUS
 62
     7
 10
328.0
 20
326.0
 11
328.0
 21
360.0
  0
LINE
  8
FS_OBJECT
  6
CONTINUOUS
 62
     7
 10
328.0
 20
360.0
 11
261.0
 21
360.0
  0
LINE
  8
FS_OBJECT
  6
CONTINUOUS
 62
     7
 10
261.0
 20
360.0
 11
273.0
 21
363.0
  0
LINE
  8
FS_OBJECT
  6
CONTINUOUS
 62
     7
 10
273.0
 20
363.0
 11
273.0
 21
357.0
  0
LINE
  8
FS_OBJECT
  6
CONTINUOUS
 62
     7
 10
273.0
 20
357.0
 11
261.0
 21
360.0
  0
LINE
  8
FS_OBJECT
  6
CONTINUOUS
 62
     7
 10
339.0
 20
103.0
 11
260.0
 21
103.0
  0
LINE
  8
FS_OBJECT
  6
CONTINUOUS
 62
     7
 10
260.0
 20
103.0
 11
194.0
 21
111.0
  0
LINE
  8
FS_OBJECT
  6
CONTINUOUS
 62
     7
 10
194.0
 20
111.0
 11
260.0
 21
120.0
  0
LINE
  8
FS_OBJECT
  6
CONTINUOUS
 62
     7
 10
260.0
 20
120.0
 11
194.0
 21
129.0
  0
LINE
  8
FS_OBJECT
  6
CONTINUOUS
 62
     7
 10
194.0
 20
129.0
 11
260.0
 21
137.0
  0
LINE
  8
FS_OBJECT
  6
CONTINUOUS
 62
     7
 10
260.0
 20
137.0
 11
339.0
 21
137.0
  0
LINE
  8
FS_OBJECT
  6
CONTINUOUS
 62
     7
 10
339.0
 20
137.0
 11
339.0
 21
137.0
  0
LINE
  8
FS_OBJECT
  6
CONTINUOUS
 62
     7
 10
198.0
 20
357.0
 11
261.0
 21
357.0
  0
LINE
  8
FS_OBJECT
  6
CONTINUOUS
 62
     7
 10
229.0
 20
374.0
 11
229.0
 21
392.0
  0
LINE
  8
FS_OBJECT
  6
CONTINUOUS
 62
     7
 10
229.0
 20
392.0
 11
276.0
 21
392.0
  0
LINE
  8
FS_OBJECT
  6
CONTINUOUS
 62
     7
 10
276.0
 20
392.0
 11
264.0
 21
389.0
  0
LINE
  8
FS_OBJECT
  6
CONTINUOUS
 62
     7
 10
264.0
 20
389.0
 11
264.0
 21
395.0
  0
LINE
  8
FS_OBJECT
  6
CONTINUOUS
 62
     7
 10
264.0
 20
395.0
 11
276.0
 21
392.0
  0
CIRCLE
  8
FS_OBJECT
 62
     7
 10
121.0
 20
437.0
 40
13.0
  0
TEXT
  8
FS_OBJECT
 62
     7
 10
119.60
 20
435.25
 40
6.50
  1
1
 41
0.74
  0
ENDSEC
  0
EOF
